<mxfile host="app.diagrams.net" modified="2024-02-24T02:22:02.409Z" agent="Mozilla/5.0 (Windows NT 10.0; Win64; x64) AppleWebKit/537.36 (KHTML, like Gecko) Chrome/122.0.0.0 Safari/537.36" etag="DY6_c-x7MxDAAIl8T6BC" version="23.1.6" type="device">
  <diagram id="R2lEEEUBdFMjLlhIrx00" name="Page-1">
    <mxGraphModel dx="2201" dy="1847" grid="1" gridSize="10" guides="1" tooltips="1" connect="1" arrows="1" fold="1" page="1" pageScale="1" pageWidth="850" pageHeight="1100" math="0" shadow="0" extFonts="Permanent Marker^https://fonts.googleapis.com/css?family=Permanent+Marker">
      <root>
        <mxCell id="0" />
        <mxCell id="1" parent="0" />
        <mxCell id="gfKqpitYMT0C_zAYRqk9-2" value="University" style="rounded=0;whiteSpace=wrap;html=1;fillColor=#D4E1F5;" parent="1" vertex="1">
          <mxGeometry x="330" y="580" width="120" height="30" as="geometry" />
        </mxCell>
        <mxCell id="gfKqpitYMT0C_zAYRqk9-4" value="Campus" style="rounded=0;whiteSpace=wrap;html=1;fillColor=#D4E1F5;" parent="1" vertex="1">
          <mxGeometry x="330" y="350" width="120" height="30" as="geometry" />
        </mxCell>
        <mxCell id="gfKqpitYMT0C_zAYRqk9-29" value="has" style="rhombus;whiteSpace=wrap;html=1;fillColor=#FFB366;" parent="1" vertex="1">
          <mxGeometry x="350" y="420" width="80" height="50" as="geometry" />
        </mxCell>
        <mxCell id="gfKqpitYMT0C_zAYRqk9-31" value="&lt;u&gt;Uni_ID&lt;/u&gt;" style="ellipse;whiteSpace=wrap;html=1;" parent="1" vertex="1">
          <mxGeometry x="150" y="550" width="120" height="30" as="geometry" />
        </mxCell>
        <mxCell id="gfKqpitYMT0C_zAYRqk9-32" value="Name" style="ellipse;whiteSpace=wrap;html=1;" parent="1" vertex="1">
          <mxGeometry x="185" y="510" width="120" height="30" as="geometry" />
        </mxCell>
        <mxCell id="gfKqpitYMT0C_zAYRqk9-34" value="Address" style="ellipse;whiteSpace=wrap;html=1;" parent="1" vertex="1">
          <mxGeometry x="260" y="470" width="120" height="30" as="geometry" />
        </mxCell>
        <mxCell id="gfKqpitYMT0C_zAYRqk9-53" value="" style="endArrow=none;html=1;rounded=0;exitX=0.5;exitY=0;exitDx=0;exitDy=0;entryX=0.5;entryY=1;entryDx=0;entryDy=0;" parent="1" source="gfKqpitYMT0C_zAYRqk9-2" target="gfKqpitYMT0C_zAYRqk9-29" edge="1">
          <mxGeometry width="50" height="50" relative="1" as="geometry">
            <mxPoint x="490" y="440" as="sourcePoint" />
            <mxPoint x="540" y="390" as="targetPoint" />
          </mxGeometry>
        </mxCell>
        <mxCell id="gfKqpitYMT0C_zAYRqk9-54" value="" style="endArrow=none;html=1;rounded=0;exitX=0.5;exitY=0;exitDx=0;exitDy=0;entryX=0.5;entryY=1;entryDx=0;entryDy=0;" parent="1" source="gfKqpitYMT0C_zAYRqk9-29" target="gfKqpitYMT0C_zAYRqk9-4" edge="1">
          <mxGeometry width="50" height="50" relative="1" as="geometry">
            <mxPoint x="350" y="430" as="sourcePoint" />
            <mxPoint x="400" y="380" as="targetPoint" />
          </mxGeometry>
        </mxCell>
        <mxCell id="gfKqpitYMT0C_zAYRqk9-55" value="Name" style="ellipse;whiteSpace=wrap;html=1;" parent="1" vertex="1">
          <mxGeometry x="290" y="281.25" width="90" height="30" as="geometry" />
        </mxCell>
        <mxCell id="gfKqpitYMT0C_zAYRqk9-56" value="&lt;u&gt;Campus_Id&lt;/u&gt;" style="ellipse;whiteSpace=wrap;html=1;" parent="1" vertex="1">
          <mxGeometry x="200" y="311.25" width="110" height="35" as="geometry" />
        </mxCell>
        <mxCell id="gfKqpitYMT0C_zAYRqk9-136" value="" style="group" parent="1" vertex="1" connectable="0">
          <mxGeometry x="-570" y="70" width="370" height="110" as="geometry" />
        </mxCell>
        <mxCell id="gfKqpitYMT0C_zAYRqk9-20" value="Grades" style="rounded=0;whiteSpace=wrap;html=1;container=0;fillColor=#D4E1F5;" parent="gfKqpitYMT0C_zAYRqk9-136" vertex="1">
          <mxGeometry x="110" y="80" width="120" height="30" as="geometry" />
        </mxCell>
        <mxCell id="gfKqpitYMT0C_zAYRqk9-128" value="Status" style="ellipse;whiteSpace=wrap;html=1;container=0;" parent="gfKqpitYMT0C_zAYRqk9-136" vertex="1">
          <mxGeometry x="240" y="40" width="80" height="30" as="geometry" />
        </mxCell>
        <mxCell id="gfKqpitYMT0C_zAYRqk9-129" value="AssesmentType" style="ellipse;whiteSpace=wrap;html=1;container=0;" parent="gfKqpitYMT0C_zAYRqk9-136" vertex="1">
          <mxGeometry x="250" y="80" width="110" height="30" as="geometry" />
        </mxCell>
        <mxCell id="gfKqpitYMT0C_zAYRqk9-130" value="Percentage" style="ellipse;whiteSpace=wrap;html=1;container=0;" parent="gfKqpitYMT0C_zAYRqk9-136" vertex="1">
          <mxGeometry x="190" width="80" height="30" as="geometry" />
        </mxCell>
        <mxCell id="gfKqpitYMT0C_zAYRqk9-131" value="Grade" style="ellipse;whiteSpace=wrap;html=1;container=0;" parent="gfKqpitYMT0C_zAYRqk9-136" vertex="1">
          <mxGeometry x="80" width="80" height="30" as="geometry" />
        </mxCell>
        <mxCell id="gfKqpitYMT0C_zAYRqk9-132" value="&lt;u&gt;Grades_ID&lt;/u&gt;" style="ellipse;whiteSpace=wrap;html=1;container=0;" parent="gfKqpitYMT0C_zAYRqk9-136" vertex="1">
          <mxGeometry x="10" y="40" width="80" height="30" as="geometry" />
        </mxCell>
        <mxCell id="gfKqpitYMT0C_zAYRqk9-514" value="" style="endArrow=none;html=1;rounded=0;exitX=0.316;exitY=0.968;exitDx=0;exitDy=0;exitPerimeter=0;entryX=0.593;entryY=0.093;entryDx=0;entryDy=0;entryPerimeter=0;" parent="gfKqpitYMT0C_zAYRqk9-136" source="gfKqpitYMT0C_zAYRqk9-130" target="gfKqpitYMT0C_zAYRqk9-20" edge="1">
          <mxGeometry width="50" height="50" relative="1" as="geometry">
            <mxPoint x="270" y="260" as="sourcePoint" />
            <mxPoint x="320" y="210" as="targetPoint" />
          </mxGeometry>
        </mxCell>
        <mxCell id="gfKqpitYMT0C_zAYRqk9-515" value="" style="endArrow=none;html=1;rounded=0;exitX=0;exitY=0.5;exitDx=0;exitDy=0;entryX=0.75;entryY=0;entryDx=0;entryDy=0;" parent="gfKqpitYMT0C_zAYRqk9-136" source="gfKqpitYMT0C_zAYRqk9-128" target="gfKqpitYMT0C_zAYRqk9-20" edge="1">
          <mxGeometry width="50" height="50" relative="1" as="geometry">
            <mxPoint x="270" y="260" as="sourcePoint" />
            <mxPoint x="320" y="210" as="targetPoint" />
          </mxGeometry>
        </mxCell>
        <mxCell id="gfKqpitYMT0C_zAYRqk9-517" value="" style="endArrow=none;html=1;rounded=0;exitX=1;exitY=0.5;exitDx=0;exitDy=0;entryX=0;entryY=0.5;entryDx=0;entryDy=0;" parent="gfKqpitYMT0C_zAYRqk9-136" source="gfKqpitYMT0C_zAYRqk9-20" target="gfKqpitYMT0C_zAYRqk9-129" edge="1">
          <mxGeometry width="50" height="50" relative="1" as="geometry">
            <mxPoint x="270" y="260" as="sourcePoint" />
            <mxPoint x="320" y="210" as="targetPoint" />
          </mxGeometry>
        </mxCell>
        <mxCell id="gfKqpitYMT0C_zAYRqk9-623" value="&lt;b&gt;N&lt;/b&gt;" style="text;html=1;strokeColor=none;fillColor=none;align=center;verticalAlign=middle;whiteSpace=wrap;rounded=0;" parent="gfKqpitYMT0C_zAYRqk9-136" vertex="1">
          <mxGeometry x="130" y="42.5" width="60" height="25" as="geometry" />
        </mxCell>
        <mxCell id="gfKqpitYMT0C_zAYRqk9-149" value="" style="group" parent="1" vertex="1" connectable="0">
          <mxGeometry x="-350" y="-210" width="440" height="190" as="geometry" />
        </mxCell>
        <mxCell id="gfKqpitYMT0C_zAYRqk9-21" value="Students" style="rounded=0;whiteSpace=wrap;html=1;fillColor=#D4E1F5;" parent="gfKqpitYMT0C_zAYRqk9-149" vertex="1">
          <mxGeometry x="130" y="80" width="120" height="30" as="geometry" />
        </mxCell>
        <mxCell id="gfKqpitYMT0C_zAYRqk9-127" value="&lt;u&gt;Student_ID&lt;/u&gt;" style="ellipse;whiteSpace=wrap;html=1;" parent="gfKqpitYMT0C_zAYRqk9-149" vertex="1">
          <mxGeometry x="10" y="75" width="80" height="30" as="geometry" />
        </mxCell>
        <mxCell id="gfKqpitYMT0C_zAYRqk9-138" value="Program_name" style="ellipse;whiteSpace=wrap;html=1;" parent="gfKqpitYMT0C_zAYRqk9-149" vertex="1">
          <mxGeometry x="340" y="105" width="110" height="30" as="geometry" />
        </mxCell>
        <mxCell id="gfKqpitYMT0C_zAYRqk9-139" value="GuardianInfo" style="ellipse;whiteSpace=wrap;html=1;" parent="gfKqpitYMT0C_zAYRqk9-149" vertex="1">
          <mxGeometry x="370" y="70" width="80" height="30" as="geometry" />
        </mxCell>
        <mxCell id="gfKqpitYMT0C_zAYRqk9-141" value="Gender" style="ellipse;whiteSpace=wrap;html=1;" parent="gfKqpitYMT0C_zAYRqk9-149" vertex="1">
          <mxGeometry x="210" width="80" height="30" as="geometry" />
        </mxCell>
        <mxCell id="gfKqpitYMT0C_zAYRqk9-142" value="DOB" style="ellipse;whiteSpace=wrap;html=1;" parent="gfKqpitYMT0C_zAYRqk9-149" vertex="1">
          <mxGeometry x="95" width="80" height="30" as="geometry" />
        </mxCell>
        <mxCell id="gfKqpitYMT0C_zAYRqk9-143" value="name" style="ellipse;whiteSpace=wrap;html=1;" parent="gfKqpitYMT0C_zAYRqk9-149" vertex="1">
          <mxGeometry x="40" y="30" width="80" height="30" as="geometry" />
        </mxCell>
        <mxCell id="gfKqpitYMT0C_zAYRqk9-146" value="Academic_year" style="ellipse;whiteSpace=wrap;html=1;" parent="gfKqpitYMT0C_zAYRqk9-149" vertex="1">
          <mxGeometry x="310" y="140" width="100" height="30" as="geometry" />
        </mxCell>
        <mxCell id="gfKqpitYMT0C_zAYRqk9-147" value="Enroll_Status" style="ellipse;whiteSpace=wrap;html=1;" parent="gfKqpitYMT0C_zAYRqk9-149" vertex="1">
          <mxGeometry y="120" width="80" height="30" as="geometry" />
        </mxCell>
        <mxCell id="gfKqpitYMT0C_zAYRqk9-501" value="" style="endArrow=none;html=1;rounded=0;exitX=1;exitY=0.5;exitDx=0;exitDy=0;entryX=0;entryY=0.75;entryDx=0;entryDy=0;" parent="gfKqpitYMT0C_zAYRqk9-149" source="gfKqpitYMT0C_zAYRqk9-147" target="gfKqpitYMT0C_zAYRqk9-21" edge="1">
          <mxGeometry width="50" height="50" relative="1" as="geometry">
            <mxPoint x="320" y="270" as="sourcePoint" />
            <mxPoint x="370" y="220" as="targetPoint" />
          </mxGeometry>
        </mxCell>
        <mxCell id="gfKqpitYMT0C_zAYRqk9-502" value="" style="endArrow=none;html=1;rounded=0;exitX=1;exitY=0.5;exitDx=0;exitDy=0;entryX=0;entryY=0.25;entryDx=0;entryDy=0;" parent="gfKqpitYMT0C_zAYRqk9-149" source="gfKqpitYMT0C_zAYRqk9-127" target="gfKqpitYMT0C_zAYRqk9-21" edge="1">
          <mxGeometry width="50" height="50" relative="1" as="geometry">
            <mxPoint x="320" y="270" as="sourcePoint" />
            <mxPoint x="370" y="220" as="targetPoint" />
          </mxGeometry>
        </mxCell>
        <mxCell id="gfKqpitYMT0C_zAYRqk9-505" value="" style="endArrow=none;html=1;rounded=0;exitX=0.5;exitY=1;exitDx=0;exitDy=0;entryX=0.75;entryY=0;entryDx=0;entryDy=0;" parent="gfKqpitYMT0C_zAYRqk9-149" source="gfKqpitYMT0C_zAYRqk9-141" target="gfKqpitYMT0C_zAYRqk9-21" edge="1">
          <mxGeometry width="50" height="50" relative="1" as="geometry">
            <mxPoint x="240" y="270" as="sourcePoint" />
            <mxPoint x="290" y="220" as="targetPoint" />
          </mxGeometry>
        </mxCell>
        <mxCell id="gfKqpitYMT0C_zAYRqk9-508" value="" style="endArrow=none;html=1;rounded=0;exitX=1;exitY=0.5;exitDx=0;exitDy=0;entryX=0;entryY=0.5;entryDx=0;entryDy=0;" parent="gfKqpitYMT0C_zAYRqk9-149" source="gfKqpitYMT0C_zAYRqk9-21" target="gfKqpitYMT0C_zAYRqk9-138" edge="1">
          <mxGeometry width="50" height="50" relative="1" as="geometry">
            <mxPoint x="240" y="270" as="sourcePoint" />
            <mxPoint x="290" y="220" as="targetPoint" />
          </mxGeometry>
        </mxCell>
        <mxCell id="gfKqpitYMT0C_zAYRqk9-509" value="" style="endArrow=none;html=1;rounded=0;exitX=1;exitY=1;exitDx=0;exitDy=0;entryX=0;entryY=0;entryDx=0;entryDy=0;" parent="gfKqpitYMT0C_zAYRqk9-149" source="gfKqpitYMT0C_zAYRqk9-21" target="gfKqpitYMT0C_zAYRqk9-146" edge="1">
          <mxGeometry width="50" height="50" relative="1" as="geometry">
            <mxPoint x="240" y="270" as="sourcePoint" />
            <mxPoint x="310" y="160" as="targetPoint" />
          </mxGeometry>
        </mxCell>
        <mxCell id="gfKqpitYMT0C_zAYRqk9-601" value="&lt;b&gt;N&lt;/b&gt;" style="text;html=1;strokeColor=none;fillColor=none;align=center;verticalAlign=middle;whiteSpace=wrap;rounded=0;" parent="gfKqpitYMT0C_zAYRqk9-149" vertex="1">
          <mxGeometry x="180" y="105" width="60" height="25" as="geometry" />
        </mxCell>
        <mxCell id="gfKqpitYMT0C_zAYRqk9-602" value="&lt;b&gt;1&lt;/b&gt;" style="text;html=1;strokeColor=none;fillColor=none;align=center;verticalAlign=middle;whiteSpace=wrap;rounded=0;" parent="gfKqpitYMT0C_zAYRqk9-149" vertex="1">
          <mxGeometry x="180" y="55" width="35" height="20" as="geometry" />
        </mxCell>
        <mxCell id="gfKqpitYMT0C_zAYRqk9-628" value="MiddleName" style="ellipse;whiteSpace=wrap;html=1;" parent="gfKqpitYMT0C_zAYRqk9-149" vertex="1">
          <mxGeometry x="-60" y="-20" width="120" height="30" as="geometry" />
        </mxCell>
        <mxCell id="gfKqpitYMT0C_zAYRqk9-631" value="" style="endArrow=none;html=1;rounded=0;exitX=1;exitY=1;exitDx=0;exitDy=0;entryX=0.273;entryY=0.156;entryDx=0;entryDy=0;entryPerimeter=0;" parent="gfKqpitYMT0C_zAYRqk9-149" source="gfKqpitYMT0C_zAYRqk9-628" target="gfKqpitYMT0C_zAYRqk9-143" edge="1">
          <mxGeometry width="50" height="50" relative="1" as="geometry">
            <mxPoint x="280" y="150" as="sourcePoint" />
            <mxPoint x="330" y="100" as="targetPoint" />
          </mxGeometry>
        </mxCell>
        <mxCell id="gfKqpitYMT0C_zAYRqk9-637" value="" style="ellipse;whiteSpace=wrap;html=1;" parent="gfKqpitYMT0C_zAYRqk9-149" vertex="1">
          <mxGeometry x="290" y="10" width="90" height="50" as="geometry" />
        </mxCell>
        <mxCell id="gfKqpitYMT0C_zAYRqk9-638" value="email" style="ellipse;whiteSpace=wrap;html=1;" parent="gfKqpitYMT0C_zAYRqk9-149" vertex="1">
          <mxGeometry x="295" y="15" width="80" height="40" as="geometry" />
        </mxCell>
        <mxCell id="gfKqpitYMT0C_zAYRqk9-639" value="" style="endArrow=none;html=1;rounded=0;exitX=1;exitY=0.5;exitDx=0;exitDy=0;entryX=0;entryY=0.5;entryDx=0;entryDy=0;" parent="gfKqpitYMT0C_zAYRqk9-149" source="gfKqpitYMT0C_zAYRqk9-21" target="gfKqpitYMT0C_zAYRqk9-139" edge="1">
          <mxGeometry width="50" height="50" relative="1" as="geometry">
            <mxPoint x="390" y="130" as="sourcePoint" />
            <mxPoint x="370" y="90" as="targetPoint" />
          </mxGeometry>
        </mxCell>
        <mxCell id="gfKqpitYMT0C_zAYRqk9-662" value="&lt;b&gt;1&lt;/b&gt;" style="text;html=1;strokeColor=none;fillColor=none;align=center;verticalAlign=middle;whiteSpace=wrap;rounded=0;" parent="gfKqpitYMT0C_zAYRqk9-149" vertex="1">
          <mxGeometry x="110" y="110" width="35" height="20" as="geometry" />
        </mxCell>
        <mxCell id="gfKqpitYMT0C_zAYRqk9-663" value="Age" style="ellipse;whiteSpace=wrap;html=1;dashed=1;" parent="gfKqpitYMT0C_zAYRqk9-149" vertex="1">
          <mxGeometry x="230" y="140" width="70" height="30" as="geometry" />
        </mxCell>
        <mxCell id="gfKqpitYMT0C_zAYRqk9-664" value="" style="endArrow=none;html=1;rounded=0;exitX=1;exitY=0.25;exitDx=0;exitDy=0;" parent="gfKqpitYMT0C_zAYRqk9-149" source="gfKqpitYMT0C_zAYRqk9-601" target="gfKqpitYMT0C_zAYRqk9-663" edge="1">
          <mxGeometry width="50" height="50" relative="1" as="geometry">
            <mxPoint x="550" y="150" as="sourcePoint" />
            <mxPoint x="600" y="100" as="targetPoint" />
          </mxGeometry>
        </mxCell>
        <mxCell id="gfKqpitYMT0C_zAYRqk9-274" value="" style="group" parent="1" vertex="1" connectable="0">
          <mxGeometry x="430" y="-130" width="980" height="1200" as="geometry" />
        </mxCell>
        <mxCell id="gfKqpitYMT0C_zAYRqk9-15" value="Transport" style="rounded=0;whiteSpace=wrap;html=1;fillColor=#D4E1F5;" parent="gfKqpitYMT0C_zAYRqk9-274" vertex="1">
          <mxGeometry x="610" y="315" width="120" height="30" as="geometry" />
        </mxCell>
        <mxCell id="gfKqpitYMT0C_zAYRqk9-60" value="Address" style="ellipse;whiteSpace=wrap;html=1;" parent="gfKqpitYMT0C_zAYRqk9-274" vertex="1">
          <mxGeometry x="-30" y="410" width="90" height="40" as="geometry" />
        </mxCell>
        <mxCell id="gfKqpitYMT0C_zAYRqk9-277" value="have" style="rhombus;whiteSpace=wrap;html=1;fillColor=#FFB366;" parent="gfKqpitYMT0C_zAYRqk9-274" vertex="1">
          <mxGeometry x="200" y="475" width="90" height="55" as="geometry" />
        </mxCell>
        <mxCell id="gfKqpitYMT0C_zAYRqk9-303" value="holds" style="rhombus;whiteSpace=wrap;html=1;fillColor=#FFB366;" parent="gfKqpitYMT0C_zAYRqk9-274" vertex="1">
          <mxGeometry x="450" y="560" width="80" height="80" as="geometry" />
        </mxCell>
        <mxCell id="gfKqpitYMT0C_zAYRqk9-310" value="" style="group" parent="gfKqpitYMT0C_zAYRqk9-274" vertex="1" connectable="0">
          <mxGeometry x="460" y="380" width="340" height="130" as="geometry" />
        </mxCell>
        <mxCell id="gfKqpitYMT0C_zAYRqk9-23" value="SocialMedia" style="rounded=0;whiteSpace=wrap;html=1;fillColor=#D4E1F5;" parent="gfKqpitYMT0C_zAYRqk9-310" vertex="1">
          <mxGeometry x="110" y="70" width="120" height="30" as="geometry" />
        </mxCell>
        <mxCell id="gfKqpitYMT0C_zAYRqk9-100" value="URL" style="ellipse;whiteSpace=wrap;html=1;" parent="gfKqpitYMT0C_zAYRqk9-310" vertex="1">
          <mxGeometry x="80" width="80" height="30" as="geometry" />
        </mxCell>
        <mxCell id="gfKqpitYMT0C_zAYRqk9-103" value="Founder" style="ellipse;whiteSpace=wrap;html=1;" parent="gfKqpitYMT0C_zAYRqk9-310" vertex="1">
          <mxGeometry x="260" y="70" width="80" height="30" as="geometry" />
        </mxCell>
        <mxCell id="gfKqpitYMT0C_zAYRqk9-97" value="&lt;u&gt;Social_ID&lt;/u&gt;" style="ellipse;whiteSpace=wrap;html=1;" parent="gfKqpitYMT0C_zAYRqk9-310" vertex="1">
          <mxGeometry y="70" width="80" height="30" as="geometry" />
        </mxCell>
        <mxCell id="gfKqpitYMT0C_zAYRqk9-102" value="Mobile_app" style="ellipse;whiteSpace=wrap;html=1;" parent="gfKqpitYMT0C_zAYRqk9-310" vertex="1">
          <mxGeometry x="250" y="30" width="80" height="30" as="geometry" />
        </mxCell>
        <mxCell id="gfKqpitYMT0C_zAYRqk9-101" value="Description" style="ellipse;whiteSpace=wrap;html=1;" parent="gfKqpitYMT0C_zAYRqk9-310" vertex="1">
          <mxGeometry x="180" width="80" height="30" as="geometry" />
        </mxCell>
        <mxCell id="gfKqpitYMT0C_zAYRqk9-99" value="Platform_name" style="ellipse;whiteSpace=wrap;html=1;" parent="gfKqpitYMT0C_zAYRqk9-310" vertex="1">
          <mxGeometry x="10" y="30" width="100" height="30" as="geometry" />
        </mxCell>
        <mxCell id="gfKqpitYMT0C_zAYRqk9-422" value="" style="endArrow=none;html=1;rounded=0;exitX=1;exitY=0.5;exitDx=0;exitDy=0;entryX=0;entryY=0.5;entryDx=0;entryDy=0;" parent="gfKqpitYMT0C_zAYRqk9-310" source="gfKqpitYMT0C_zAYRqk9-97" target="gfKqpitYMT0C_zAYRqk9-23" edge="1">
          <mxGeometry width="50" height="50" relative="1" as="geometry">
            <mxPoint x="130" y="160" as="sourcePoint" />
            <mxPoint x="180" y="110" as="targetPoint" />
          </mxGeometry>
        </mxCell>
        <mxCell id="gfKqpitYMT0C_zAYRqk9-424" value="" style="endArrow=none;html=1;rounded=0;exitX=0.703;exitY=0.982;exitDx=0;exitDy=0;exitPerimeter=0;entryX=0;entryY=0;entryDx=0;entryDy=0;" parent="gfKqpitYMT0C_zAYRqk9-310" source="gfKqpitYMT0C_zAYRqk9-99" target="gfKqpitYMT0C_zAYRqk9-23" edge="1">
          <mxGeometry width="50" height="50" relative="1" as="geometry">
            <mxPoint x="130" y="160" as="sourcePoint" />
            <mxPoint x="180" y="110" as="targetPoint" />
          </mxGeometry>
        </mxCell>
        <mxCell id="gfKqpitYMT0C_zAYRqk9-425" value="" style="endArrow=none;html=1;rounded=0;exitX=0.5;exitY=1;exitDx=0;exitDy=0;entryX=0.189;entryY=0.036;entryDx=0;entryDy=0;entryPerimeter=0;" parent="gfKqpitYMT0C_zAYRqk9-310" source="gfKqpitYMT0C_zAYRqk9-100" target="gfKqpitYMT0C_zAYRqk9-23" edge="1">
          <mxGeometry width="50" height="50" relative="1" as="geometry">
            <mxPoint x="130" y="160" as="sourcePoint" />
            <mxPoint x="180" y="110" as="targetPoint" />
          </mxGeometry>
        </mxCell>
        <mxCell id="gfKqpitYMT0C_zAYRqk9-426" value="" style="endArrow=none;html=1;rounded=0;exitX=0.5;exitY=0;exitDx=0;exitDy=0;entryX=0.346;entryY=0.973;entryDx=0;entryDy=0;entryPerimeter=0;" parent="gfKqpitYMT0C_zAYRqk9-310" source="gfKqpitYMT0C_zAYRqk9-23" target="gfKqpitYMT0C_zAYRqk9-101" edge="1">
          <mxGeometry width="50" height="50" relative="1" as="geometry">
            <mxPoint x="130" y="160" as="sourcePoint" />
            <mxPoint x="180" y="110" as="targetPoint" />
          </mxGeometry>
        </mxCell>
        <mxCell id="gfKqpitYMT0C_zAYRqk9-427" value="" style="endArrow=none;html=1;rounded=0;entryX=0;entryY=0.5;entryDx=0;entryDy=0;" parent="gfKqpitYMT0C_zAYRqk9-310" target="gfKqpitYMT0C_zAYRqk9-102" edge="1">
          <mxGeometry width="50" height="50" relative="1" as="geometry">
            <mxPoint x="195" y="70" as="sourcePoint" />
            <mxPoint x="245" y="20" as="targetPoint" />
          </mxGeometry>
        </mxCell>
        <mxCell id="gfKqpitYMT0C_zAYRqk9-428" value="" style="endArrow=none;html=1;rounded=0;exitX=1;exitY=0.5;exitDx=0;exitDy=0;entryX=0;entryY=0.5;entryDx=0;entryDy=0;" parent="gfKqpitYMT0C_zAYRqk9-310" source="gfKqpitYMT0C_zAYRqk9-23" target="gfKqpitYMT0C_zAYRqk9-103" edge="1">
          <mxGeometry width="50" height="50" relative="1" as="geometry">
            <mxPoint x="130" y="160" as="sourcePoint" />
            <mxPoint x="180" y="110" as="targetPoint" />
          </mxGeometry>
        </mxCell>
        <mxCell id="gfKqpitYMT0C_zAYRqk9-574" value="&lt;b&gt;N&lt;/b&gt;" style="text;html=1;strokeColor=none;fillColor=none;align=center;verticalAlign=middle;whiteSpace=wrap;rounded=0;" parent="gfKqpitYMT0C_zAYRqk9-310" vertex="1">
          <mxGeometry x="150" y="100" width="60" height="30" as="geometry" />
        </mxCell>
        <mxCell id="gfKqpitYMT0C_zAYRqk9-311" value="" style="group" parent="gfKqpitYMT0C_zAYRqk9-274" vertex="1" connectable="0">
          <mxGeometry x="480" y="150" width="360" height="157.5" as="geometry" />
        </mxCell>
        <mxCell id="gfKqpitYMT0C_zAYRqk9-89" value="Arrival_time" style="ellipse;whiteSpace=wrap;html=1;" parent="gfKqpitYMT0C_zAYRqk9-311" vertex="1">
          <mxGeometry y="70" width="80" height="40" as="geometry" />
        </mxCell>
        <mxCell id="gfKqpitYMT0C_zAYRqk9-90" value="Departure_time_" style="ellipse;whiteSpace=wrap;html=1;" parent="gfKqpitYMT0C_zAYRqk9-311" vertex="1">
          <mxGeometry x="50" y="30" width="100" height="40" as="geometry" />
        </mxCell>
        <mxCell id="gfKqpitYMT0C_zAYRqk9-91" value="Route" style="ellipse;whiteSpace=wrap;html=1;" parent="gfKqpitYMT0C_zAYRqk9-311" vertex="1">
          <mxGeometry x="150" width="70" height="40" as="geometry" />
        </mxCell>
        <mxCell id="gfKqpitYMT0C_zAYRqk9-92" value="Type" style="ellipse;whiteSpace=wrap;html=1;" parent="gfKqpitYMT0C_zAYRqk9-311" vertex="1">
          <mxGeometry x="220" y="30" width="70" height="40" as="geometry" />
        </mxCell>
        <mxCell id="gfKqpitYMT0C_zAYRqk9-93" value="&lt;u&gt;Transport_ID&lt;/u&gt;" style="ellipse;whiteSpace=wrap;html=1;" parent="gfKqpitYMT0C_zAYRqk9-311" vertex="1">
          <mxGeometry x="280" y="117.5" width="80" height="40" as="geometry" />
        </mxCell>
        <mxCell id="gfKqpitYMT0C_zAYRqk9-94" value="Fare" style="ellipse;whiteSpace=wrap;html=1;" parent="gfKqpitYMT0C_zAYRqk9-311" vertex="1">
          <mxGeometry y="120" width="80" height="35" as="geometry" />
        </mxCell>
        <mxCell id="gfKqpitYMT0C_zAYRqk9-95" value="Capacity" style="ellipse;whiteSpace=wrap;html=1;" parent="gfKqpitYMT0C_zAYRqk9-311" vertex="1">
          <mxGeometry x="275" y="70" width="80" height="40" as="geometry" />
        </mxCell>
        <mxCell id="gfKqpitYMT0C_zAYRqk9-313" value="Uses" style="rhombus;whiteSpace=wrap;html=1;fillColor=#FFB366;" parent="gfKqpitYMT0C_zAYRqk9-274" vertex="1">
          <mxGeometry x="310" y="290" width="80" height="80" as="geometry" />
        </mxCell>
        <mxCell id="gfKqpitYMT0C_zAYRqk9-312" value="have" style="rhombus;whiteSpace=wrap;html=1;fillColor=#FFB366;" parent="gfKqpitYMT0C_zAYRqk9-274" vertex="1">
          <mxGeometry x="190" y="200" width="80" height="80" as="geometry" />
        </mxCell>
        <mxCell id="gfKqpitYMT0C_zAYRqk9-317" value="" style="endArrow=none;html=1;rounded=0;exitX=1;exitY=0.5;exitDx=0;exitDy=0;entryX=0;entryY=0.5;entryDx=0;entryDy=0;" parent="gfKqpitYMT0C_zAYRqk9-274" source="gfKqpitYMT0C_zAYRqk9-313" target="gfKqpitYMT0C_zAYRqk9-15" edge="1">
          <mxGeometry width="50" height="50" relative="1" as="geometry">
            <mxPoint x="310" y="260" as="sourcePoint" />
            <mxPoint x="360" y="210" as="targetPoint" />
          </mxGeometry>
        </mxCell>
        <mxCell id="gfKqpitYMT0C_zAYRqk9-38" value="History" style="ellipse;whiteSpace=wrap;html=1;" parent="gfKqpitYMT0C_zAYRqk9-274" vertex="1">
          <mxGeometry x="120" y="710" width="120" height="30" as="geometry" />
        </mxCell>
        <mxCell id="gfKqpitYMT0C_zAYRqk9-33" value="Estd_Date" style="ellipse;whiteSpace=wrap;html=1;" parent="gfKqpitYMT0C_zAYRqk9-274" vertex="1">
          <mxGeometry x="90" y="665" width="120" height="30" as="geometry" />
        </mxCell>
        <mxCell id="gfKqpitYMT0C_zAYRqk9-37" value="Rank" style="ellipse;whiteSpace=wrap;html=1;" parent="gfKqpitYMT0C_zAYRqk9-274" vertex="1">
          <mxGeometry x="60" y="630" width="120" height="30" as="geometry" />
        </mxCell>
        <mxCell id="gfKqpitYMT0C_zAYRqk9-36" value="ContactInfo" style="ellipse;whiteSpace=wrap;html=1;" parent="gfKqpitYMT0C_zAYRqk9-274" vertex="1">
          <mxGeometry x="-30" y="600" width="120" height="30" as="geometry" />
        </mxCell>
        <mxCell id="gfKqpitYMT0C_zAYRqk9-328" value="" style="group" parent="gfKqpitYMT0C_zAYRqk9-274" vertex="1" connectable="0">
          <mxGeometry x="70" y="50" width="390" height="100" as="geometry" />
        </mxCell>
        <mxCell id="gfKqpitYMT0C_zAYRqk9-88" value="Description" style="ellipse;whiteSpace=wrap;html=1;container=0;" parent="gfKqpitYMT0C_zAYRqk9-328" vertex="1">
          <mxGeometry x="290" y="70" width="100" height="30" as="geometry" />
        </mxCell>
        <mxCell id="gfKqpitYMT0C_zAYRqk9-85" value="name" style="ellipse;whiteSpace=wrap;html=1;container=0;" parent="gfKqpitYMT0C_zAYRqk9-328" vertex="1">
          <mxGeometry x="10" y="35" width="100" height="30" as="geometry" />
        </mxCell>
        <mxCell id="gfKqpitYMT0C_zAYRqk9-86" value="Address" style="ellipse;whiteSpace=wrap;html=1;container=0;" parent="gfKqpitYMT0C_zAYRqk9-328" vertex="1">
          <mxGeometry x="50" width="100" height="30" as="geometry" />
        </mxCell>
        <mxCell id="gfKqpitYMT0C_zAYRqk9-87" value="contactInfo" style="ellipse;whiteSpace=wrap;html=1;container=0;" parent="gfKqpitYMT0C_zAYRqk9-328" vertex="1">
          <mxGeometry x="170" width="100" height="30" as="geometry" />
        </mxCell>
        <mxCell id="gfKqpitYMT0C_zAYRqk9-5" value="Departments" style="rounded=0;whiteSpace=wrap;html=1;fillColor=#D4E1F5;container=0;" parent="gfKqpitYMT0C_zAYRqk9-328" vertex="1">
          <mxGeometry x="120" y="70" width="120" height="30" as="geometry" />
        </mxCell>
        <mxCell id="gfKqpitYMT0C_zAYRqk9-463" value="" style="endArrow=none;html=1;rounded=0;exitX=1;exitY=1;exitDx=0;exitDy=0;entryX=0;entryY=0;entryDx=0;entryDy=0;" parent="gfKqpitYMT0C_zAYRqk9-328" source="gfKqpitYMT0C_zAYRqk9-85" target="gfKqpitYMT0C_zAYRqk9-5" edge="1">
          <mxGeometry width="50" height="50" relative="1" as="geometry">
            <mxPoint x="60" y="60" as="sourcePoint" />
            <mxPoint x="110" y="10" as="targetPoint" />
          </mxGeometry>
        </mxCell>
        <mxCell id="gfKqpitYMT0C_zAYRqk9-468" value="" style="endArrow=none;html=1;rounded=0;exitX=0.5;exitY=0;exitDx=0;exitDy=0;entryX=0.367;entryY=1.051;entryDx=0;entryDy=0;entryPerimeter=0;" parent="gfKqpitYMT0C_zAYRqk9-328" source="gfKqpitYMT0C_zAYRqk9-5" target="gfKqpitYMT0C_zAYRqk9-87" edge="1">
          <mxGeometry width="50" height="50" relative="1" as="geometry">
            <mxPoint x="60" y="60" as="sourcePoint" />
            <mxPoint x="110" y="10" as="targetPoint" />
          </mxGeometry>
        </mxCell>
        <mxCell id="gfKqpitYMT0C_zAYRqk9-469" value="" style="endArrow=none;html=1;rounded=0;exitX=1;exitY=0.5;exitDx=0;exitDy=0;entryX=0;entryY=0.5;entryDx=0;entryDy=0;" parent="gfKqpitYMT0C_zAYRqk9-328" source="gfKqpitYMT0C_zAYRqk9-5" target="gfKqpitYMT0C_zAYRqk9-88" edge="1">
          <mxGeometry width="50" height="50" relative="1" as="geometry">
            <mxPoint x="60" y="60" as="sourcePoint" />
            <mxPoint x="110" y="10" as="targetPoint" />
          </mxGeometry>
        </mxCell>
        <mxCell id="gfKqpitYMT0C_zAYRqk9-589" value="&lt;b&gt;1&lt;/b&gt;" style="text;html=1;strokeColor=none;fillColor=none;align=center;verticalAlign=middle;whiteSpace=wrap;rounded=0;" parent="gfKqpitYMT0C_zAYRqk9-328" vertex="1">
          <mxGeometry x="190" y="50" width="35" height="20" as="geometry" />
        </mxCell>
        <mxCell id="gfKqpitYMT0C_zAYRqk9-593" value="&lt;b&gt;1&lt;/b&gt;" style="text;html=1;strokeColor=none;fillColor=none;align=center;verticalAlign=middle;whiteSpace=wrap;rounded=0;" parent="gfKqpitYMT0C_zAYRqk9-328" vertex="1">
          <mxGeometry x="120" y="50" width="35" height="20" as="geometry" />
        </mxCell>
        <mxCell id="gfKqpitYMT0C_zAYRqk9-595" value="" style="endArrow=none;html=1;rounded=0;exitX=0.5;exitY=1;exitDx=0;exitDy=0;entryX=0.406;entryY=0.833;entryDx=0;entryDy=0;entryPerimeter=0;" parent="gfKqpitYMT0C_zAYRqk9-328" edge="1">
          <mxGeometry width="50" height="50" relative="1" as="geometry">
            <mxPoint x="152.23" y="70" as="sourcePoint" />
            <mxPoint x="152.21" y="-15.019999999999982" as="targetPoint" />
          </mxGeometry>
        </mxCell>
        <mxCell id="gfKqpitYMT0C_zAYRqk9-600" value="&lt;b&gt;1&lt;/b&gt;" style="text;html=1;strokeColor=none;fillColor=none;align=center;verticalAlign=middle;whiteSpace=wrap;rounded=0;" parent="gfKqpitYMT0C_zAYRqk9-328" vertex="1">
          <mxGeometry y="80" width="35" height="20" as="geometry" />
        </mxCell>
        <mxCell id="gfKqpitYMT0C_zAYRqk9-329" value="Works For" style="rhombus;whiteSpace=wrap;html=1;fillColor=#FFB366;" parent="gfKqpitYMT0C_zAYRqk9-274" vertex="1">
          <mxGeometry x="190" y="-20" width="80" height="60" as="geometry" />
        </mxCell>
        <mxCell id="gfKqpitYMT0C_zAYRqk9-84" value="&lt;u&gt;Dept_Id&lt;/u&gt;" style="ellipse;whiteSpace=wrap;html=1;container=0;" parent="gfKqpitYMT0C_zAYRqk9-274" vertex="1">
          <mxGeometry x="80" y="150" width="100" height="30" as="geometry" />
        </mxCell>
        <mxCell id="gfKqpitYMT0C_zAYRqk9-307" value="" style="group" parent="gfKqpitYMT0C_zAYRqk9-274" vertex="1" connectable="0">
          <mxGeometry x="540" y="660" width="350" height="120" as="geometry" />
        </mxCell>
        <mxCell id="gfKqpitYMT0C_zAYRqk9-107" value="ContactInfo" style="ellipse;whiteSpace=wrap;html=1;" parent="gfKqpitYMT0C_zAYRqk9-307" vertex="1">
          <mxGeometry x="240" y="90" width="80" height="30" as="geometry" />
        </mxCell>
        <mxCell id="gfKqpitYMT0C_zAYRqk9-108" value="Address" style="ellipse;whiteSpace=wrap;html=1;" parent="gfKqpitYMT0C_zAYRqk9-307" vertex="1">
          <mxGeometry x="270" y="50" width="80" height="30" as="geometry" />
        </mxCell>
        <mxCell id="gfKqpitYMT0C_zAYRqk9-109" value="Description" style="ellipse;whiteSpace=wrap;html=1;" parent="gfKqpitYMT0C_zAYRqk9-307" vertex="1">
          <mxGeometry x="210" y="10" width="80" height="30" as="geometry" />
        </mxCell>
        <mxCell id="gfKqpitYMT0C_zAYRqk9-110" value="Inventory" style="ellipse;whiteSpace=wrap;html=1;" parent="gfKqpitYMT0C_zAYRqk9-307" vertex="1">
          <mxGeometry x="120" width="80" height="30" as="geometry" />
        </mxCell>
        <mxCell id="gfKqpitYMT0C_zAYRqk9-111" value="name" style="ellipse;whiteSpace=wrap;html=1;" parent="gfKqpitYMT0C_zAYRqk9-307" vertex="1">
          <mxGeometry x="40" y="20" width="80" height="30" as="geometry" />
        </mxCell>
        <mxCell id="gfKqpitYMT0C_zAYRqk9-112" value="&lt;u&gt;BookStore_ID&lt;/u&gt;" style="ellipse;whiteSpace=wrap;html=1;" parent="gfKqpitYMT0C_zAYRqk9-307" vertex="1">
          <mxGeometry x="-30" y="60" width="110" height="30" as="geometry" />
        </mxCell>
        <mxCell id="gfKqpitYMT0C_zAYRqk9-17" value="BookStore" style="rounded=0;whiteSpace=wrap;html=1;fillColor=#D4E1F5;" parent="gfKqpitYMT0C_zAYRqk9-307" vertex="1">
          <mxGeometry x="100" y="90" width="120" height="30" as="geometry" />
        </mxCell>
        <mxCell id="gfKqpitYMT0C_zAYRqk9-416" value="" style="endArrow=none;html=1;rounded=0;exitX=1;exitY=0.25;exitDx=0;exitDy=0;entryX=0;entryY=0.5;entryDx=0;entryDy=0;" parent="gfKqpitYMT0C_zAYRqk9-307" source="gfKqpitYMT0C_zAYRqk9-17" target="gfKqpitYMT0C_zAYRqk9-107" edge="1">
          <mxGeometry width="50" height="50" relative="1" as="geometry">
            <mxPoint x="310" y="70" as="sourcePoint" />
            <mxPoint x="360" y="20" as="targetPoint" />
          </mxGeometry>
        </mxCell>
        <mxCell id="gfKqpitYMT0C_zAYRqk9-418" value="" style="endArrow=none;html=1;rounded=0;exitX=0.5;exitY=0;exitDx=0;exitDy=0;entryX=0.322;entryY=0.913;entryDx=0;entryDy=0;entryPerimeter=0;" parent="gfKqpitYMT0C_zAYRqk9-307" source="gfKqpitYMT0C_zAYRqk9-17" target="gfKqpitYMT0C_zAYRqk9-109" edge="1">
          <mxGeometry width="50" height="50" relative="1" as="geometry">
            <mxPoint x="310" y="70" as="sourcePoint" />
            <mxPoint x="360" y="20" as="targetPoint" />
          </mxGeometry>
        </mxCell>
        <mxCell id="gfKqpitYMT0C_zAYRqk9-421" value="" style="endArrow=none;html=1;rounded=0;exitX=0.647;exitY=0.95;exitDx=0;exitDy=0;exitPerimeter=0;entryX=0;entryY=0;entryDx=0;entryDy=0;" parent="gfKqpitYMT0C_zAYRqk9-307" source="gfKqpitYMT0C_zAYRqk9-112" target="gfKqpitYMT0C_zAYRqk9-17" edge="1">
          <mxGeometry width="50" height="50" relative="1" as="geometry">
            <mxPoint x="310" y="70" as="sourcePoint" />
            <mxPoint x="360" y="20" as="targetPoint" />
          </mxGeometry>
        </mxCell>
        <mxCell id="gfKqpitYMT0C_zAYRqk9-360" value="has" style="rhombus;whiteSpace=wrap;html=1;fillColor=#FFB366;" parent="gfKqpitYMT0C_zAYRqk9-274" vertex="1">
          <mxGeometry x="470" y="750" width="80" height="80" as="geometry" />
        </mxCell>
        <mxCell id="gfKqpitYMT0C_zAYRqk9-361" value="" style="endArrow=none;html=1;rounded=0;entryX=1;entryY=0.5;entryDx=0;entryDy=0;exitX=0.583;exitY=1;exitDx=0;exitDy=0;exitPerimeter=0;" parent="gfKqpitYMT0C_zAYRqk9-274" source="gfKqpitYMT0C_zAYRqk9-17" target="gfKqpitYMT0C_zAYRqk9-360" edge="1">
          <mxGeometry width="50" height="50" relative="1" as="geometry">
            <mxPoint x="710" y="790" as="sourcePoint" />
            <mxPoint x="470" y="850" as="targetPoint" />
            <Array as="points">
              <mxPoint x="710" y="790" />
            </Array>
          </mxGeometry>
        </mxCell>
        <mxCell id="gfKqpitYMT0C_zAYRqk9-369" value="" style="group" parent="gfKqpitYMT0C_zAYRqk9-274" vertex="1" connectable="0">
          <mxGeometry x="10" y="800" width="420" height="150" as="geometry" />
        </mxCell>
        <mxCell id="gfKqpitYMT0C_zAYRqk9-13" value="Academic_calendar" style="rounded=0;whiteSpace=wrap;html=1;fillColor=#D4E1F5;" parent="gfKqpitYMT0C_zAYRqk9-369" vertex="1">
          <mxGeometry x="120" y="120" width="120" height="30" as="geometry" />
        </mxCell>
        <mxCell id="gfKqpitYMT0C_zAYRqk9-220" value="End_Date" style="ellipse;whiteSpace=wrap;html=1;" parent="gfKqpitYMT0C_zAYRqk9-369" vertex="1">
          <mxGeometry x="100" width="80" height="30" as="geometry" />
        </mxCell>
        <mxCell id="gfKqpitYMT0C_zAYRqk9-221" value="Start_Date" style="ellipse;whiteSpace=wrap;html=1;" parent="gfKqpitYMT0C_zAYRqk9-369" vertex="1">
          <mxGeometry x="30" y="20" width="80" height="30" as="geometry" />
        </mxCell>
        <mxCell id="gfKqpitYMT0C_zAYRqk9-222" value="Academic_year" style="ellipse;whiteSpace=wrap;html=1;" parent="gfKqpitYMT0C_zAYRqk9-369" vertex="1">
          <mxGeometry x="10" y="60" width="100" height="30" as="geometry" />
        </mxCell>
        <mxCell id="gfKqpitYMT0C_zAYRqk9-224" value="&lt;u&gt;Calendar_ID&lt;/u&gt;" style="ellipse;whiteSpace=wrap;html=1;" parent="gfKqpitYMT0C_zAYRqk9-369" vertex="1">
          <mxGeometry y="100" width="80" height="30" as="geometry" />
        </mxCell>
        <mxCell id="gfKqpitYMT0C_zAYRqk9-226" value="Academic events" style="ellipse;whiteSpace=wrap;html=1;" parent="gfKqpitYMT0C_zAYRqk9-369" vertex="1">
          <mxGeometry x="300" y="70" width="120" height="30" as="geometry" />
        </mxCell>
        <mxCell id="gfKqpitYMT0C_zAYRqk9-227" value="Holidays" style="ellipse;whiteSpace=wrap;html=1;" parent="gfKqpitYMT0C_zAYRqk9-369" vertex="1">
          <mxGeometry x="270" y="30" width="80" height="30" as="geometry" />
        </mxCell>
        <mxCell id="gfKqpitYMT0C_zAYRqk9-228" value="Exam_Period" style="ellipse;whiteSpace=wrap;html=1;" parent="gfKqpitYMT0C_zAYRqk9-369" vertex="1">
          <mxGeometry x="200" width="80" height="30" as="geometry" />
        </mxCell>
        <mxCell id="gfKqpitYMT0C_zAYRqk9-230" value="Course_period" style="ellipse;whiteSpace=wrap;html=1;" parent="gfKqpitYMT0C_zAYRqk9-369" vertex="1">
          <mxGeometry x="310" y="110" width="100" height="30" as="geometry" />
        </mxCell>
        <mxCell id="gfKqpitYMT0C_zAYRqk9-558" value="" style="endArrow=none;html=1;rounded=0;exitX=0;exitY=0;exitDx=0;exitDy=0;entryX=0.74;entryY=1.061;entryDx=0;entryDy=0;entryPerimeter=0;" parent="gfKqpitYMT0C_zAYRqk9-369" source="gfKqpitYMT0C_zAYRqk9-13" target="gfKqpitYMT0C_zAYRqk9-222" edge="1">
          <mxGeometry width="50" height="50" relative="1" as="geometry">
            <mxPoint x="40" y="140" as="sourcePoint" />
            <mxPoint x="90" y="90" as="targetPoint" />
          </mxGeometry>
        </mxCell>
        <mxCell id="gfKqpitYMT0C_zAYRqk9-561" value="" style="endArrow=none;html=1;rounded=0;exitX=0.25;exitY=0;exitDx=0;exitDy=0;entryX=1;entryY=1;entryDx=0;entryDy=0;" parent="gfKqpitYMT0C_zAYRqk9-369" source="gfKqpitYMT0C_zAYRqk9-13" target="gfKqpitYMT0C_zAYRqk9-221" edge="1">
          <mxGeometry width="50" height="50" relative="1" as="geometry">
            <mxPoint x="40" y="140" as="sourcePoint" />
            <mxPoint x="90" y="90" as="targetPoint" />
          </mxGeometry>
        </mxCell>
        <mxCell id="gfKqpitYMT0C_zAYRqk9-562" value="" style="endArrow=none;html=1;rounded=0;exitX=0.5;exitY=0;exitDx=0;exitDy=0;entryX=1;entryY=1;entryDx=0;entryDy=0;" parent="gfKqpitYMT0C_zAYRqk9-369" source="gfKqpitYMT0C_zAYRqk9-13" target="gfKqpitYMT0C_zAYRqk9-220" edge="1">
          <mxGeometry width="50" height="50" relative="1" as="geometry">
            <mxPoint x="40" y="140" as="sourcePoint" />
            <mxPoint x="90" y="90" as="targetPoint" />
          </mxGeometry>
        </mxCell>
        <mxCell id="gfKqpitYMT0C_zAYRqk9-563" value="" style="endArrow=none;html=1;rounded=0;exitX=0.75;exitY=0;exitDx=0;exitDy=0;entryX=0.5;entryY=1;entryDx=0;entryDy=0;" parent="gfKqpitYMT0C_zAYRqk9-369" source="gfKqpitYMT0C_zAYRqk9-13" target="gfKqpitYMT0C_zAYRqk9-228" edge="1">
          <mxGeometry width="50" height="50" relative="1" as="geometry">
            <mxPoint x="40" y="140" as="sourcePoint" />
            <mxPoint x="90" y="90" as="targetPoint" />
          </mxGeometry>
        </mxCell>
        <mxCell id="gfKqpitYMT0C_zAYRqk9-564" value="" style="endArrow=none;html=1;rounded=0;exitX=1;exitY=0;exitDx=0;exitDy=0;entryX=0.283;entryY=0.909;entryDx=0;entryDy=0;entryPerimeter=0;" parent="gfKqpitYMT0C_zAYRqk9-369" source="gfKqpitYMT0C_zAYRqk9-13" target="gfKqpitYMT0C_zAYRqk9-227" edge="1">
          <mxGeometry width="50" height="50" relative="1" as="geometry">
            <mxPoint x="40" y="140" as="sourcePoint" />
            <mxPoint x="90" y="90" as="targetPoint" />
          </mxGeometry>
        </mxCell>
        <mxCell id="gfKqpitYMT0C_zAYRqk9-565" value="" style="endArrow=none;html=1;rounded=0;exitX=0;exitY=1;exitDx=0;exitDy=0;entryX=1;entryY=0.25;entryDx=0;entryDy=0;" parent="gfKqpitYMT0C_zAYRqk9-369" source="gfKqpitYMT0C_zAYRqk9-226" target="gfKqpitYMT0C_zAYRqk9-13" edge="1">
          <mxGeometry width="50" height="50" relative="1" as="geometry">
            <mxPoint x="40" y="140" as="sourcePoint" />
            <mxPoint x="90" y="90" as="targetPoint" />
          </mxGeometry>
        </mxCell>
        <mxCell id="gfKqpitYMT0C_zAYRqk9-566" value="" style="endArrow=none;html=1;rounded=0;exitX=0;exitY=0.5;exitDx=0;exitDy=0;entryX=1;entryY=0.5;entryDx=0;entryDy=0;" parent="gfKqpitYMT0C_zAYRqk9-369" source="gfKqpitYMT0C_zAYRqk9-230" target="gfKqpitYMT0C_zAYRqk9-13" edge="1">
          <mxGeometry width="50" height="50" relative="1" as="geometry">
            <mxPoint x="40" y="140" as="sourcePoint" />
            <mxPoint x="90" y="90" as="targetPoint" />
          </mxGeometry>
        </mxCell>
        <mxCell id="gfKqpitYMT0C_zAYRqk9-429" value="" style="endArrow=none;html=1;rounded=0;entryX=1;entryY=0.5;entryDx=0;entryDy=0;exitX=0.103;exitY=-0.001;exitDx=0;exitDy=0;exitPerimeter=0;" parent="gfKqpitYMT0C_zAYRqk9-274" source="gfKqpitYMT0C_zAYRqk9-15" target="gfKqpitYMT0C_zAYRqk9-94" edge="1">
          <mxGeometry width="50" height="50" relative="1" as="geometry">
            <mxPoint x="610" y="310" as="sourcePoint" />
            <mxPoint x="560" y="240" as="targetPoint" />
          </mxGeometry>
        </mxCell>
        <mxCell id="gfKqpitYMT0C_zAYRqk9-431" value="" style="endArrow=none;html=1;rounded=0;entryX=0.765;entryY=0.943;entryDx=0;entryDy=0;entryPerimeter=0;exitX=0.351;exitY=0.017;exitDx=0;exitDy=0;exitPerimeter=0;" parent="gfKqpitYMT0C_zAYRqk9-274" source="gfKqpitYMT0C_zAYRqk9-15" target="gfKqpitYMT0C_zAYRqk9-90" edge="1">
          <mxGeometry width="50" height="50" relative="1" as="geometry">
            <mxPoint x="650" y="310" as="sourcePoint" />
            <mxPoint x="560" y="240" as="targetPoint" />
          </mxGeometry>
        </mxCell>
        <mxCell id="gfKqpitYMT0C_zAYRqk9-432" value="" style="endArrow=none;html=1;rounded=0;exitX=0.5;exitY=0;exitDx=0;exitDy=0;entryX=0.5;entryY=1;entryDx=0;entryDy=0;" parent="gfKqpitYMT0C_zAYRqk9-274" source="gfKqpitYMT0C_zAYRqk9-15" target="gfKqpitYMT0C_zAYRqk9-91" edge="1">
          <mxGeometry width="50" height="50" relative="1" as="geometry">
            <mxPoint x="510" y="290" as="sourcePoint" />
            <mxPoint x="560" y="240" as="targetPoint" />
          </mxGeometry>
        </mxCell>
        <mxCell id="gfKqpitYMT0C_zAYRqk9-433" value="" style="endArrow=none;html=1;rounded=0;exitX=0.413;exitY=0.981;exitDx=0;exitDy=0;exitPerimeter=0;entryX=0.573;entryY=0.017;entryDx=0;entryDy=0;entryPerimeter=0;" parent="gfKqpitYMT0C_zAYRqk9-274" source="gfKqpitYMT0C_zAYRqk9-92" target="gfKqpitYMT0C_zAYRqk9-15" edge="1">
          <mxGeometry width="50" height="50" relative="1" as="geometry">
            <mxPoint x="510" y="290" as="sourcePoint" />
            <mxPoint x="680" y="310" as="targetPoint" />
          </mxGeometry>
        </mxCell>
        <mxCell id="gfKqpitYMT0C_zAYRqk9-434" value="" style="endArrow=none;html=1;rounded=0;exitX=0.85;exitY=-0.035;exitDx=0;exitDy=0;exitPerimeter=0;entryX=0.077;entryY=0.787;entryDx=0;entryDy=0;entryPerimeter=0;" parent="gfKqpitYMT0C_zAYRqk9-274" source="gfKqpitYMT0C_zAYRqk9-15" target="gfKqpitYMT0C_zAYRqk9-95" edge="1">
          <mxGeometry width="50" height="50" relative="1" as="geometry">
            <mxPoint x="620" y="340" as="sourcePoint" />
            <mxPoint x="670" y="290" as="targetPoint" />
          </mxGeometry>
        </mxCell>
        <mxCell id="gfKqpitYMT0C_zAYRqk9-435" value="" style="endArrow=none;html=1;rounded=0;exitX=0.939;exitY=-0.001;exitDx=0;exitDy=0;exitPerimeter=0;entryX=0;entryY=0.5;entryDx=0;entryDy=0;" parent="gfKqpitYMT0C_zAYRqk9-274" source="gfKqpitYMT0C_zAYRqk9-15" target="gfKqpitYMT0C_zAYRqk9-93" edge="1">
          <mxGeometry width="50" height="50" relative="1" as="geometry">
            <mxPoint x="620" y="340" as="sourcePoint" />
            <mxPoint x="670" y="290" as="targetPoint" />
          </mxGeometry>
        </mxCell>
        <mxCell id="gfKqpitYMT0C_zAYRqk9-462" value="" style="endArrow=none;html=1;rounded=0;exitX=1;exitY=0;exitDx=0;exitDy=0;entryX=0;entryY=1;entryDx=0;entryDy=0;" parent="gfKqpitYMT0C_zAYRqk9-274" source="gfKqpitYMT0C_zAYRqk9-84" target="gfKqpitYMT0C_zAYRqk9-5" edge="1">
          <mxGeometry width="50" height="50" relative="1" as="geometry">
            <mxPoint y="40" as="sourcePoint" />
            <mxPoint x="50" y="-10" as="targetPoint" />
          </mxGeometry>
        </mxCell>
        <mxCell id="gfKqpitYMT0C_zAYRqk9-573" value="&lt;b&gt;1&lt;/b&gt;" style="text;html=1;strokeColor=none;fillColor=none;align=center;verticalAlign=middle;whiteSpace=wrap;rounded=0;" parent="gfKqpitYMT0C_zAYRqk9-274" vertex="1">
          <mxGeometry x="25" y="480" width="35" height="20" as="geometry" />
        </mxCell>
        <mxCell id="gfKqpitYMT0C_zAYRqk9-576" value="&lt;b&gt;N&lt;/b&gt;" style="text;html=1;strokeColor=none;fillColor=none;align=center;verticalAlign=middle;whiteSpace=wrap;rounded=0;" parent="gfKqpitYMT0C_zAYRqk9-274" vertex="1">
          <mxGeometry x="700" y="780" width="60" height="30" as="geometry" />
        </mxCell>
        <mxCell id="gfKqpitYMT0C_zAYRqk9-577" value="&lt;b&gt;1&lt;/b&gt;" style="text;html=1;strokeColor=none;fillColor=none;align=center;verticalAlign=middle;whiteSpace=wrap;rounded=0;" parent="gfKqpitYMT0C_zAYRqk9-274" vertex="1">
          <mxGeometry x="102.5" y="950" width="35" height="20" as="geometry" />
        </mxCell>
        <mxCell id="gfKqpitYMT0C_zAYRqk9-587" value="&lt;b&gt;N&lt;/b&gt;" style="text;html=1;strokeColor=none;fillColor=none;align=center;verticalAlign=middle;whiteSpace=wrap;rounded=0;" parent="gfKqpitYMT0C_zAYRqk9-274" vertex="1">
          <mxGeometry x="215" y="150" width="60" height="30" as="geometry" />
        </mxCell>
        <mxCell id="gfKqpitYMT0C_zAYRqk9-588" value="&lt;b&gt;N&lt;/b&gt;" style="text;html=1;strokeColor=none;fillColor=none;align=center;verticalAlign=middle;whiteSpace=wrap;rounded=0;" parent="gfKqpitYMT0C_zAYRqk9-274" vertex="1">
          <mxGeometry x="570" y="330" width="60" height="30" as="geometry" />
        </mxCell>
        <mxCell id="gfKqpitYMT0C_zAYRqk9-278" value="" style="endArrow=none;html=1;rounded=0;exitX=1;exitY=0.75;exitDx=0;exitDy=0;entryX=0;entryY=0.5;entryDx=0;entryDy=0;" parent="1" source="gfKqpitYMT0C_zAYRqk9-4" target="gfKqpitYMT0C_zAYRqk9-277" edge="1">
          <mxGeometry width="50" height="50" relative="1" as="geometry">
            <mxPoint x="700" y="340" as="sourcePoint" />
            <mxPoint x="750" y="290" as="targetPoint" />
          </mxGeometry>
        </mxCell>
        <mxCell id="gfKqpitYMT0C_zAYRqk9-282" value="" style="endArrow=none;html=1;rounded=0;exitX=1;exitY=0.5;exitDx=0;exitDy=0;" parent="1" source="gfKqpitYMT0C_zAYRqk9-277" edge="1">
          <mxGeometry width="50" height="50" relative="1" as="geometry">
            <mxPoint x="800" y="340" as="sourcePoint" />
            <mxPoint x="1050" y="350" as="targetPoint" />
            <Array as="points">
              <mxPoint x="1050" y="370" />
            </Array>
          </mxGeometry>
        </mxCell>
        <mxCell id="gfKqpitYMT0C_zAYRqk9-287" value="" style="group" parent="1" vertex="1" connectable="0">
          <mxGeometry x="190" y="60" width="400" height="177.5" as="geometry" />
        </mxCell>
        <mxCell id="gfKqpitYMT0C_zAYRqk9-73" value="End_time" style="ellipse;whiteSpace=wrap;html=1;rounded=0;movable=1;resizable=1;rotatable=1;deletable=1;editable=1;locked=0;connectable=1;" parent="gfKqpitYMT0C_zAYRqk9-287" vertex="1">
          <mxGeometry x="280" y="152.5" width="80" height="25" as="geometry" />
        </mxCell>
        <mxCell id="gfKqpitYMT0C_zAYRqk9-83" value="" style="group;movable=1;resizable=1;rotatable=1;deletable=1;editable=1;locked=0;connectable=1;" parent="gfKqpitYMT0C_zAYRqk9-287" vertex="1" connectable="0">
          <mxGeometry width="400" height="145" as="geometry" />
        </mxCell>
        <mxCell id="gfKqpitYMT0C_zAYRqk9-18" value="Athletics_and_rec" style="rounded=0;whiteSpace=wrap;html=1;fillColor=#D4E1F5;movable=1;resizable=1;rotatable=1;deletable=1;editable=1;locked=0;connectable=1;" parent="gfKqpitYMT0C_zAYRqk9-83" vertex="1">
          <mxGeometry x="150" y="88.03571428571429" width="120" height="31.071428571428573" as="geometry" />
        </mxCell>
        <mxCell id="gfKqpitYMT0C_zAYRqk9-68" value="&lt;u&gt;Ath_Id&lt;/u&gt;" style="ellipse;whiteSpace=wrap;html=1;rounded=0;movable=1;resizable=1;rotatable=1;deletable=1;editable=1;locked=0;connectable=1;" parent="gfKqpitYMT0C_zAYRqk9-83" vertex="1">
          <mxGeometry x="10" y="67.32142857142858" width="80" height="25.892857142857146" as="geometry" />
        </mxCell>
        <mxCell id="gfKqpitYMT0C_zAYRqk9-70" value="name" style="ellipse;whiteSpace=wrap;html=1;rounded=0;movable=1;resizable=1;rotatable=1;deletable=1;editable=1;locked=0;connectable=1;" parent="gfKqpitYMT0C_zAYRqk9-83" vertex="1">
          <mxGeometry x="60" y="25.892857142857146" width="80" height="25.892857142857146" as="geometry" />
        </mxCell>
        <mxCell id="gfKqpitYMT0C_zAYRqk9-71" value="Start_time" style="ellipse;whiteSpace=wrap;html=1;rounded=0;movable=1;resizable=1;rotatable=1;deletable=1;editable=1;locked=0;connectable=1;" parent="gfKqpitYMT0C_zAYRqk9-83" vertex="1">
          <mxGeometry x="320" y="119.10714285714286" width="80" height="25.892857142857146" as="geometry" />
        </mxCell>
        <mxCell id="gfKqpitYMT0C_zAYRqk9-75" value="Days" style="ellipse;whiteSpace=wrap;html=1;rounded=0;movable=1;resizable=1;rotatable=1;deletable=1;editable=1;locked=0;connectable=1;" parent="gfKqpitYMT0C_zAYRqk9-83" vertex="1">
          <mxGeometry y="111.33928571428572" width="80" height="25.892857142857146" as="geometry" />
        </mxCell>
        <mxCell id="gfKqpitYMT0C_zAYRqk9-76" value="Game_name" style="ellipse;whiteSpace=wrap;html=1;rounded=0;movable=1;resizable=1;rotatable=1;deletable=1;editable=1;locked=0;connectable=1;" parent="gfKqpitYMT0C_zAYRqk9-83" vertex="1">
          <mxGeometry x="120" width="80" height="25.892857142857146" as="geometry" />
        </mxCell>
        <mxCell id="gfKqpitYMT0C_zAYRqk9-77" value="Size" style="ellipse;whiteSpace=wrap;html=1;rounded=0;movable=1;resizable=1;rotatable=1;deletable=1;editable=1;locked=0;connectable=1;" parent="gfKqpitYMT0C_zAYRqk9-83" vertex="1">
          <mxGeometry x="230" y="10.357142857142858" width="80" height="25.892857142857146" as="geometry" />
        </mxCell>
        <mxCell id="gfKqpitYMT0C_zAYRqk9-78" value="ContactInfo" style="ellipse;whiteSpace=wrap;html=1;rounded=0;movable=1;resizable=1;rotatable=1;deletable=1;editable=1;locked=0;connectable=1;" parent="gfKqpitYMT0C_zAYRqk9-83" vertex="1">
          <mxGeometry x="290" y="36.25" width="80" height="25.892857142857146" as="geometry" />
        </mxCell>
        <mxCell id="gfKqpitYMT0C_zAYRqk9-79" value="Address" style="ellipse;whiteSpace=wrap;html=1;rounded=0;movable=1;resizable=1;rotatable=1;deletable=1;editable=1;locked=0;connectable=1;" parent="gfKqpitYMT0C_zAYRqk9-83" vertex="1">
          <mxGeometry x="320" y="77.67857142857143" width="80" height="25.892857142857146" as="geometry" />
        </mxCell>
        <mxCell id="gfKqpitYMT0C_zAYRqk9-397" value="" style="endArrow=none;html=1;rounded=0;exitX=1;exitY=0.5;exitDx=0;exitDy=0;entryX=0;entryY=0.5;entryDx=0;entryDy=0;" parent="gfKqpitYMT0C_zAYRqk9-83" source="gfKqpitYMT0C_zAYRqk9-75" target="gfKqpitYMT0C_zAYRqk9-18" edge="1">
          <mxGeometry width="50" height="50" relative="1" as="geometry">
            <mxPoint x="110" y="150" as="sourcePoint" />
            <mxPoint x="160" y="100" as="targetPoint" />
          </mxGeometry>
        </mxCell>
        <mxCell id="gfKqpitYMT0C_zAYRqk9-398" value="" style="endArrow=none;html=1;rounded=0;exitX=1;exitY=0.5;exitDx=0;exitDy=0;entryX=0;entryY=0;entryDx=0;entryDy=0;" parent="gfKqpitYMT0C_zAYRqk9-83" source="gfKqpitYMT0C_zAYRqk9-68" target="gfKqpitYMT0C_zAYRqk9-18" edge="1">
          <mxGeometry width="50" height="50" relative="1" as="geometry">
            <mxPoint x="110" y="150" as="sourcePoint" />
            <mxPoint x="160" y="100" as="targetPoint" />
          </mxGeometry>
        </mxCell>
        <mxCell id="gfKqpitYMT0C_zAYRqk9-399" value="" style="endArrow=none;html=1;rounded=0;exitX=1;exitY=1;exitDx=0;exitDy=0;entryX=0.127;entryY=0.064;entryDx=0;entryDy=0;entryPerimeter=0;" parent="gfKqpitYMT0C_zAYRqk9-83" source="gfKqpitYMT0C_zAYRqk9-70" target="gfKqpitYMT0C_zAYRqk9-18" edge="1">
          <mxGeometry width="50" height="50" relative="1" as="geometry">
            <mxPoint x="110" y="150" as="sourcePoint" />
            <mxPoint x="160" y="100" as="targetPoint" />
          </mxGeometry>
        </mxCell>
        <mxCell id="gfKqpitYMT0C_zAYRqk9-400" value="" style="endArrow=none;html=1;rounded=0;exitX=0.603;exitY=1.073;exitDx=0;exitDy=0;exitPerimeter=0;entryX=0.25;entryY=0;entryDx=0;entryDy=0;" parent="gfKqpitYMT0C_zAYRqk9-83" source="gfKqpitYMT0C_zAYRqk9-76" target="gfKqpitYMT0C_zAYRqk9-18" edge="1">
          <mxGeometry width="50" height="50" relative="1" as="geometry">
            <mxPoint x="110" y="150" as="sourcePoint" />
            <mxPoint x="160" y="100" as="targetPoint" />
          </mxGeometry>
        </mxCell>
        <mxCell id="gfKqpitYMT0C_zAYRqk9-401" value="" style="endArrow=none;html=1;rounded=0;exitX=0.333;exitY=0.943;exitDx=0;exitDy=0;exitPerimeter=0;entryX=0.375;entryY=-0.029;entryDx=0;entryDy=0;entryPerimeter=0;" parent="gfKqpitYMT0C_zAYRqk9-83" source="gfKqpitYMT0C_zAYRqk9-77" target="gfKqpitYMT0C_zAYRqk9-18" edge="1">
          <mxGeometry width="50" height="50" relative="1" as="geometry">
            <mxPoint x="110" y="150" as="sourcePoint" />
            <mxPoint x="160" y="100" as="targetPoint" />
          </mxGeometry>
        </mxCell>
        <mxCell id="gfKqpitYMT0C_zAYRqk9-402" value="" style="endArrow=none;html=1;rounded=0;exitX=0.75;exitY=0;exitDx=0;exitDy=0;entryX=0.321;entryY=1.018;entryDx=0;entryDy=0;entryPerimeter=0;" parent="gfKqpitYMT0C_zAYRqk9-83" source="gfKqpitYMT0C_zAYRqk9-18" target="gfKqpitYMT0C_zAYRqk9-78" edge="1">
          <mxGeometry width="50" height="50" relative="1" as="geometry">
            <mxPoint x="310" y="60" as="sourcePoint" />
            <mxPoint x="360" y="10" as="targetPoint" />
          </mxGeometry>
        </mxCell>
        <mxCell id="gfKqpitYMT0C_zAYRqk9-403" value="" style="endArrow=none;html=1;rounded=0;exitX=1;exitY=0.25;exitDx=0;exitDy=0;entryX=0;entryY=0.5;entryDx=0;entryDy=0;" parent="gfKqpitYMT0C_zAYRqk9-83" source="gfKqpitYMT0C_zAYRqk9-18" target="gfKqpitYMT0C_zAYRqk9-79" edge="1">
          <mxGeometry width="50" height="50" relative="1" as="geometry">
            <mxPoint x="310" y="60" as="sourcePoint" />
            <mxPoint x="360" y="10" as="targetPoint" />
          </mxGeometry>
        </mxCell>
        <mxCell id="gfKqpitYMT0C_zAYRqk9-404" value="" style="endArrow=none;html=1;rounded=0;exitX=1;exitY=0.75;exitDx=0;exitDy=0;entryX=0;entryY=0.5;entryDx=0;entryDy=0;" parent="gfKqpitYMT0C_zAYRqk9-83" source="gfKqpitYMT0C_zAYRqk9-18" target="gfKqpitYMT0C_zAYRqk9-71" edge="1">
          <mxGeometry width="50" height="50" relative="1" as="geometry">
            <mxPoint x="310" y="60" as="sourcePoint" />
            <mxPoint x="360" y="10" as="targetPoint" />
          </mxGeometry>
        </mxCell>
        <mxCell id="gfKqpitYMT0C_zAYRqk9-572" value="&lt;b&gt;1&lt;/b&gt;" style="text;html=1;strokeColor=none;fillColor=none;align=center;verticalAlign=middle;whiteSpace=wrap;rounded=0;" parent="gfKqpitYMT0C_zAYRqk9-83" vertex="1">
          <mxGeometry x="195" y="122.05000000000001" width="35" height="20" as="geometry" />
        </mxCell>
        <mxCell id="gfKqpitYMT0C_zAYRqk9-405" value="" style="endArrow=none;html=1;rounded=0;exitX=0.949;exitY=1.006;exitDx=0;exitDy=0;exitPerimeter=0;entryX=0.294;entryY=0.037;entryDx=0;entryDy=0;entryPerimeter=0;" parent="gfKqpitYMT0C_zAYRqk9-287" source="gfKqpitYMT0C_zAYRqk9-18" target="gfKqpitYMT0C_zAYRqk9-73" edge="1">
          <mxGeometry width="50" height="50" relative="1" as="geometry">
            <mxPoint x="310" y="60" as="sourcePoint" />
            <mxPoint x="300" y="150" as="targetPoint" />
          </mxGeometry>
        </mxCell>
        <mxCell id="gfKqpitYMT0C_zAYRqk9-275" value="have" style="rhombus;whiteSpace=wrap;html=1;fillColor=#FFB366;" parent="1" vertex="1">
          <mxGeometry x="350" y="230" width="80" height="42.5" as="geometry" />
        </mxCell>
        <mxCell id="gfKqpitYMT0C_zAYRqk9-288" value="" style="endArrow=none;html=1;rounded=0;exitX=0.5;exitY=0;exitDx=0;exitDy=0;entryX=0.5;entryY=1;entryDx=0;entryDy=0;" parent="1" source="gfKqpitYMT0C_zAYRqk9-4" target="gfKqpitYMT0C_zAYRqk9-275" edge="1">
          <mxGeometry width="50" height="50" relative="1" as="geometry">
            <mxPoint x="480" y="380" as="sourcePoint" />
            <mxPoint x="530" y="330" as="targetPoint" />
          </mxGeometry>
        </mxCell>
        <mxCell id="gfKqpitYMT0C_zAYRqk9-289" value="" style="endArrow=none;html=1;rounded=0;entryX=0.5;entryY=0;entryDx=0;entryDy=0;" parent="1" target="gfKqpitYMT0C_zAYRqk9-275" edge="1">
          <mxGeometry width="50" height="50" relative="1" as="geometry">
            <mxPoint x="390" y="180" as="sourcePoint" />
            <mxPoint x="530" y="330" as="targetPoint" />
          </mxGeometry>
        </mxCell>
        <mxCell id="gfKqpitYMT0C_zAYRqk9-290" value="" style="group" parent="1" vertex="1" connectable="0">
          <mxGeometry x="-270" y="205" width="410" height="117.5" as="geometry" />
        </mxCell>
        <mxCell id="gfKqpitYMT0C_zAYRqk9-24" value="Dining" style="rounded=0;whiteSpace=wrap;html=1;fillColor=#D4E1F5;" parent="gfKqpitYMT0C_zAYRqk9-290" vertex="1">
          <mxGeometry x="120" y="87.5" width="120" height="30" as="geometry" />
        </mxCell>
        <mxCell id="gfKqpitYMT0C_zAYRqk9-171" value="Operating_hours" style="ellipse;whiteSpace=wrap;html=1;" parent="gfKqpitYMT0C_zAYRqk9-290" vertex="1">
          <mxGeometry x="300" y="92.5" width="110" height="25" as="geometry" />
        </mxCell>
        <mxCell id="gfKqpitYMT0C_zAYRqk9-172" value="Capacity" style="ellipse;whiteSpace=wrap;html=1;" parent="gfKqpitYMT0C_zAYRqk9-290" vertex="1">
          <mxGeometry x="300" y="42.5" width="80" height="30" as="geometry" />
        </mxCell>
        <mxCell id="gfKqpitYMT0C_zAYRqk9-173" value="Cuisine_type" style="ellipse;whiteSpace=wrap;html=1;" parent="gfKqpitYMT0C_zAYRqk9-290" vertex="1">
          <mxGeometry x="150" width="80" height="30" as="geometry" />
        </mxCell>
        <mxCell id="gfKqpitYMT0C_zAYRqk9-174" value="name" style="ellipse;whiteSpace=wrap;html=1;" parent="gfKqpitYMT0C_zAYRqk9-290" vertex="1">
          <mxGeometry x="60" y="7.5" width="80" height="30" as="geometry" />
        </mxCell>
        <mxCell id="gfKqpitYMT0C_zAYRqk9-175" value="Type" style="ellipse;whiteSpace=wrap;html=1;" parent="gfKqpitYMT0C_zAYRqk9-290" vertex="1">
          <mxGeometry x="20" y="42.5" width="80" height="30" as="geometry" />
        </mxCell>
        <mxCell id="gfKqpitYMT0C_zAYRqk9-176" value="&lt;u&gt;Dining_ID&lt;/u&gt;" style="ellipse;whiteSpace=wrap;html=1;" parent="gfKqpitYMT0C_zAYRqk9-290" vertex="1">
          <mxGeometry y="87.5" width="80" height="30" as="geometry" />
        </mxCell>
        <mxCell id="gfKqpitYMT0C_zAYRqk9-177" value="Address" style="ellipse;whiteSpace=wrap;html=1;" parent="gfKqpitYMT0C_zAYRqk9-290" vertex="1">
          <mxGeometry x="240" y="12.5" width="80" height="30" as="geometry" />
        </mxCell>
        <mxCell id="gfKqpitYMT0C_zAYRqk9-518" value="" style="endArrow=none;html=1;rounded=0;entryX=1;entryY=0.5;entryDx=0;entryDy=0;exitX=0;exitY=0.5;exitDx=0;exitDy=0;" parent="gfKqpitYMT0C_zAYRqk9-290" source="gfKqpitYMT0C_zAYRqk9-24" target="gfKqpitYMT0C_zAYRqk9-176" edge="1">
          <mxGeometry width="50" height="50" relative="1" as="geometry">
            <mxPoint x="120" y="115" as="sourcePoint" />
            <mxPoint x="20" y="255" as="targetPoint" />
          </mxGeometry>
        </mxCell>
        <mxCell id="gfKqpitYMT0C_zAYRqk9-519" value="" style="endArrow=none;html=1;rounded=0;exitX=1;exitY=1;exitDx=0;exitDy=0;entryX=0;entryY=0;entryDx=0;entryDy=0;" parent="gfKqpitYMT0C_zAYRqk9-290" source="gfKqpitYMT0C_zAYRqk9-175" target="gfKqpitYMT0C_zAYRqk9-24" edge="1">
          <mxGeometry width="50" height="50" relative="1" as="geometry">
            <mxPoint x="-30" y="305" as="sourcePoint" />
            <mxPoint x="20" y="255" as="targetPoint" />
          </mxGeometry>
        </mxCell>
        <mxCell id="gfKqpitYMT0C_zAYRqk9-520" value="" style="endArrow=none;html=1;rounded=0;entryX=1;entryY=1;entryDx=0;entryDy=0;exitX=0.136;exitY=-0.02;exitDx=0;exitDy=0;exitPerimeter=0;" parent="gfKqpitYMT0C_zAYRqk9-290" source="gfKqpitYMT0C_zAYRqk9-24" target="gfKqpitYMT0C_zAYRqk9-174" edge="1">
          <mxGeometry width="50" height="50" relative="1" as="geometry">
            <mxPoint x="140" y="85" as="sourcePoint" />
            <mxPoint x="20" y="255" as="targetPoint" />
          </mxGeometry>
        </mxCell>
        <mxCell id="gfKqpitYMT0C_zAYRqk9-521" value="" style="endArrow=none;html=1;rounded=0;exitX=0.5;exitY=1;exitDx=0;exitDy=0;entryX=0.25;entryY=0;entryDx=0;entryDy=0;" parent="gfKqpitYMT0C_zAYRqk9-290" source="gfKqpitYMT0C_zAYRqk9-173" target="gfKqpitYMT0C_zAYRqk9-24" edge="1">
          <mxGeometry width="50" height="50" relative="1" as="geometry">
            <mxPoint x="-30" y="305" as="sourcePoint" />
            <mxPoint x="20" y="255" as="targetPoint" />
          </mxGeometry>
        </mxCell>
        <mxCell id="gfKqpitYMT0C_zAYRqk9-522" value="" style="endArrow=none;html=1;rounded=0;exitX=0.293;exitY=0.944;exitDx=0;exitDy=0;exitPerimeter=0;entryX=0.584;entryY=-0.049;entryDx=0;entryDy=0;entryPerimeter=0;" parent="gfKqpitYMT0C_zAYRqk9-290" source="gfKqpitYMT0C_zAYRqk9-177" target="gfKqpitYMT0C_zAYRqk9-24" edge="1">
          <mxGeometry width="50" height="50" relative="1" as="geometry">
            <mxPoint x="-30" y="305" as="sourcePoint" />
            <mxPoint x="20" y="255" as="targetPoint" />
          </mxGeometry>
        </mxCell>
        <mxCell id="gfKqpitYMT0C_zAYRqk9-523" value="" style="endArrow=none;html=1;rounded=0;exitX=0;exitY=0.5;exitDx=0;exitDy=0;" parent="gfKqpitYMT0C_zAYRqk9-290" source="gfKqpitYMT0C_zAYRqk9-172" target="gfKqpitYMT0C_zAYRqk9-24" edge="1">
          <mxGeometry width="50" height="50" relative="1" as="geometry">
            <mxPoint x="-30" y="305" as="sourcePoint" />
            <mxPoint x="20" y="255" as="targetPoint" />
          </mxGeometry>
        </mxCell>
        <mxCell id="gfKqpitYMT0C_zAYRqk9-524" value="" style="endArrow=none;html=1;rounded=0;exitX=0;exitY=0.5;exitDx=0;exitDy=0;entryX=1;entryY=0.5;entryDx=0;entryDy=0;" parent="gfKqpitYMT0C_zAYRqk9-290" source="gfKqpitYMT0C_zAYRqk9-171" target="gfKqpitYMT0C_zAYRqk9-24" edge="1">
          <mxGeometry width="50" height="50" relative="1" as="geometry">
            <mxPoint x="-30" y="305" as="sourcePoint" />
            <mxPoint x="20" y="255" as="targetPoint" />
          </mxGeometry>
        </mxCell>
        <mxCell id="gfKqpitYMT0C_zAYRqk9-293" value="have" style="rhombus;whiteSpace=wrap;html=1;fillColor=#FFB366;" parent="1" vertex="1">
          <mxGeometry x="-130" y="345" width="80" height="40" as="geometry" />
        </mxCell>
        <mxCell id="gfKqpitYMT0C_zAYRqk9-294" value="" style="endArrow=none;html=1;rounded=0;exitX=1;exitY=0.5;exitDx=0;exitDy=0;entryX=0;entryY=0.5;entryDx=0;entryDy=0;" parent="1" source="gfKqpitYMT0C_zAYRqk9-293" target="gfKqpitYMT0C_zAYRqk9-4" edge="1">
          <mxGeometry width="50" height="50" relative="1" as="geometry">
            <mxPoint x="130" y="410" as="sourcePoint" />
            <mxPoint x="180" y="360" as="targetPoint" />
          </mxGeometry>
        </mxCell>
        <mxCell id="gfKqpitYMT0C_zAYRqk9-295" value="" style="endArrow=none;html=1;rounded=0;exitX=0.5;exitY=0;exitDx=0;exitDy=0;entryX=0.5;entryY=1;entryDx=0;entryDy=0;" parent="1" source="gfKqpitYMT0C_zAYRqk9-293" target="gfKqpitYMT0C_zAYRqk9-24" edge="1">
          <mxGeometry width="50" height="50" relative="1" as="geometry">
            <mxPoint x="130" y="410" as="sourcePoint" />
            <mxPoint x="180" y="360" as="targetPoint" />
          </mxGeometry>
        </mxCell>
        <mxCell id="gfKqpitYMT0C_zAYRqk9-296" value="" style="group" parent="1" vertex="1" connectable="0">
          <mxGeometry x="-600" y="311.25" width="320" height="100" as="geometry" />
        </mxCell>
        <mxCell id="gfKqpitYMT0C_zAYRqk9-14" value="Parking" style="rounded=0;whiteSpace=wrap;html=1;fillColor=#D4E1F5;" parent="gfKqpitYMT0C_zAYRqk9-296" vertex="1">
          <mxGeometry x="100" y="70" width="120" height="30" as="geometry" />
        </mxCell>
        <mxCell id="gfKqpitYMT0C_zAYRqk9-268" value="Fees" style="ellipse;whiteSpace=wrap;html=1;" parent="gfKqpitYMT0C_zAYRqk9-296" vertex="1">
          <mxGeometry x="230" y="30" width="80" height="30" as="geometry" />
        </mxCell>
        <mxCell id="gfKqpitYMT0C_zAYRqk9-269" value="Availability" style="ellipse;whiteSpace=wrap;html=1;" parent="gfKqpitYMT0C_zAYRqk9-296" vertex="1">
          <mxGeometry x="240" y="70" width="80" height="30" as="geometry" />
        </mxCell>
        <mxCell id="gfKqpitYMT0C_zAYRqk9-270" value="Type" style="ellipse;whiteSpace=wrap;html=1;" parent="gfKqpitYMT0C_zAYRqk9-296" vertex="1">
          <mxGeometry x="80" width="80" height="30" as="geometry" />
        </mxCell>
        <mxCell id="gfKqpitYMT0C_zAYRqk9-271" value="Capacity" style="ellipse;whiteSpace=wrap;html=1;" parent="gfKqpitYMT0C_zAYRqk9-296" vertex="1">
          <mxGeometry x="30" y="30" width="80" height="30" as="geometry" />
        </mxCell>
        <mxCell id="gfKqpitYMT0C_zAYRqk9-272" value="&lt;u&gt;Parking_ID&lt;/u&gt;" style="ellipse;whiteSpace=wrap;html=1;" parent="gfKqpitYMT0C_zAYRqk9-296" vertex="1">
          <mxGeometry y="70" width="80" height="30" as="geometry" />
        </mxCell>
        <mxCell id="gfKqpitYMT0C_zAYRqk9-273" value="Location" style="ellipse;whiteSpace=wrap;html=1;" parent="gfKqpitYMT0C_zAYRqk9-296" vertex="1">
          <mxGeometry x="170" width="80" height="30" as="geometry" />
        </mxCell>
        <mxCell id="gfKqpitYMT0C_zAYRqk9-526" value="" style="endArrow=none;html=1;rounded=0;exitX=1;exitY=1;exitDx=0;exitDy=0;entryX=0;entryY=0;entryDx=0;entryDy=0;" parent="gfKqpitYMT0C_zAYRqk9-296" source="gfKqpitYMT0C_zAYRqk9-271" target="gfKqpitYMT0C_zAYRqk9-14" edge="1">
          <mxGeometry width="50" height="50" relative="1" as="geometry">
            <mxPoint x="280" y="198.75" as="sourcePoint" />
            <mxPoint x="330" y="148.75" as="targetPoint" />
          </mxGeometry>
        </mxCell>
        <mxCell id="gfKqpitYMT0C_zAYRqk9-527" value="" style="endArrow=none;html=1;rounded=0;exitX=0.5;exitY=1;exitDx=0;exitDy=0;entryX=0.25;entryY=0;entryDx=0;entryDy=0;" parent="gfKqpitYMT0C_zAYRqk9-296" source="gfKqpitYMT0C_zAYRqk9-270" target="gfKqpitYMT0C_zAYRqk9-14" edge="1">
          <mxGeometry width="50" height="50" relative="1" as="geometry">
            <mxPoint x="280" y="198.75" as="sourcePoint" />
            <mxPoint x="330" y="148.75" as="targetPoint" />
          </mxGeometry>
        </mxCell>
        <mxCell id="gfKqpitYMT0C_zAYRqk9-528" value="" style="endArrow=none;html=1;rounded=0;exitX=0;exitY=1;exitDx=0;exitDy=0;entryX=0.5;entryY=0;entryDx=0;entryDy=0;" parent="gfKqpitYMT0C_zAYRqk9-296" source="gfKqpitYMT0C_zAYRqk9-273" target="gfKqpitYMT0C_zAYRqk9-14" edge="1">
          <mxGeometry width="50" height="50" relative="1" as="geometry">
            <mxPoint x="280" y="198.75" as="sourcePoint" />
            <mxPoint x="330" y="148.75" as="targetPoint" />
          </mxGeometry>
        </mxCell>
        <mxCell id="gfKqpitYMT0C_zAYRqk9-529" value="" style="endArrow=none;html=1;rounded=0;exitX=0;exitY=0.5;exitDx=0;exitDy=0;entryX=0.75;entryY=0;entryDx=0;entryDy=0;" parent="gfKqpitYMT0C_zAYRqk9-296" source="gfKqpitYMT0C_zAYRqk9-268" target="gfKqpitYMT0C_zAYRqk9-14" edge="1">
          <mxGeometry width="50" height="50" relative="1" as="geometry">
            <mxPoint x="280" y="198.75" as="sourcePoint" />
            <mxPoint x="330" y="148.75" as="targetPoint" />
          </mxGeometry>
        </mxCell>
        <mxCell id="gfKqpitYMT0C_zAYRqk9-530" value="" style="endArrow=none;html=1;rounded=0;exitX=0;exitY=0.5;exitDx=0;exitDy=0;entryX=1;entryY=0.5;entryDx=0;entryDy=0;" parent="gfKqpitYMT0C_zAYRqk9-296" source="gfKqpitYMT0C_zAYRqk9-269" target="gfKqpitYMT0C_zAYRqk9-14" edge="1">
          <mxGeometry width="50" height="50" relative="1" as="geometry">
            <mxPoint x="280" y="198.75" as="sourcePoint" />
            <mxPoint x="330" y="148.75" as="targetPoint" />
          </mxGeometry>
        </mxCell>
        <mxCell id="gfKqpitYMT0C_zAYRqk9-297" value="has" style="rhombus;whiteSpace=wrap;html=1;fillColor=#FFB366;" parent="1" vertex="1">
          <mxGeometry x="-480" y="430" width="80" height="60" as="geometry" />
        </mxCell>
        <mxCell id="gfKqpitYMT0C_zAYRqk9-298" value="" style="endArrow=none;html=1;rounded=0;exitX=1;exitY=0.5;exitDx=0;exitDy=0;entryX=0;entryY=1;entryDx=0;entryDy=0;" parent="1" source="gfKqpitYMT0C_zAYRqk9-297" target="gfKqpitYMT0C_zAYRqk9-4" edge="1">
          <mxGeometry width="50" height="50" relative="1" as="geometry">
            <mxPoint x="-100" y="390" as="sourcePoint" />
            <mxPoint x="-50" y="340" as="targetPoint" />
          </mxGeometry>
        </mxCell>
        <mxCell id="gfKqpitYMT0C_zAYRqk9-305" value="" style="endArrow=none;html=1;rounded=0;exitX=1;exitY=1;exitDx=0;exitDy=0;" parent="1" source="gfKqpitYMT0C_zAYRqk9-4" edge="1">
          <mxGeometry width="50" height="50" relative="1" as="geometry">
            <mxPoint x="780" y="560" as="sourcePoint" />
            <mxPoint x="880" y="470" as="targetPoint" />
          </mxGeometry>
        </mxCell>
        <mxCell id="gfKqpitYMT0C_zAYRqk9-306" value="" style="endArrow=none;html=1;rounded=0;exitX=1;exitY=0.5;exitDx=0;exitDy=0;entryX=0;entryY=0.75;entryDx=0;entryDy=0;" parent="1" source="gfKqpitYMT0C_zAYRqk9-303" target="gfKqpitYMT0C_zAYRqk9-16" edge="1">
          <mxGeometry width="50" height="50" relative="1" as="geometry">
            <mxPoint x="970" y="480" as="sourcePoint" />
            <mxPoint x="1060" y="510" as="targetPoint" />
          </mxGeometry>
        </mxCell>
        <mxCell id="gfKqpitYMT0C_zAYRqk9-314" value="" style="endArrow=none;html=1;rounded=0;exitX=1;exitY=0.25;exitDx=0;exitDy=0;entryX=0.5;entryY=1;entryDx=0;entryDy=0;" parent="1" source="gfKqpitYMT0C_zAYRqk9-4" target="gfKqpitYMT0C_zAYRqk9-312" edge="1">
          <mxGeometry width="50" height="50" relative="1" as="geometry">
            <mxPoint x="810" y="130" as="sourcePoint" />
            <mxPoint x="860" y="80" as="targetPoint" />
          </mxGeometry>
        </mxCell>
        <mxCell id="gfKqpitYMT0C_zAYRqk9-316" value="" style="endArrow=none;html=1;rounded=0;exitX=1;exitY=0.5;exitDx=0;exitDy=0;entryX=0;entryY=0.5;entryDx=0;entryDy=0;" parent="1" source="gfKqpitYMT0C_zAYRqk9-4" target="gfKqpitYMT0C_zAYRqk9-313" edge="1">
          <mxGeometry width="50" height="50" relative="1" as="geometry">
            <mxPoint x="740" y="130" as="sourcePoint" />
            <mxPoint x="790" y="80" as="targetPoint" />
          </mxGeometry>
        </mxCell>
        <mxCell id="gfKqpitYMT0C_zAYRqk9-318" value="" style="group" parent="1" vertex="1" connectable="0">
          <mxGeometry x="1240" y="257.5" width="560" height="222.5" as="geometry" />
        </mxCell>
        <mxCell id="gfKqpitYMT0C_zAYRqk9-251" value="&lt;u&gt;Residence_ID&lt;/u&gt;" style="ellipse;whiteSpace=wrap;html=1;" parent="gfKqpitYMT0C_zAYRqk9-318" vertex="1">
          <mxGeometry x="-20" y="170" width="100" height="32.5" as="geometry" />
        </mxCell>
        <mxCell id="gfKqpitYMT0C_zAYRqk9-255" value="Address" style="ellipse;whiteSpace=wrap;html=1;" parent="gfKqpitYMT0C_zAYRqk9-318" vertex="1">
          <mxGeometry x="30" y="90" width="100" height="30" as="geometry" />
        </mxCell>
        <mxCell id="gfKqpitYMT0C_zAYRqk9-256" value="Name" style="ellipse;whiteSpace=wrap;html=1;" parent="gfKqpitYMT0C_zAYRqk9-318" vertex="1">
          <mxGeometry x="10" y="135" width="80" height="30" as="geometry" />
        </mxCell>
        <mxCell id="gfKqpitYMT0C_zAYRqk9-258" value="Amenities" style="ellipse;whiteSpace=wrap;html=1;" parent="gfKqpitYMT0C_zAYRqk9-318" vertex="1">
          <mxGeometry x="365" y="85" width="120" height="35" as="geometry" />
        </mxCell>
        <mxCell id="gfKqpitYMT0C_zAYRqk9-260" value="Utilities" style="ellipse;whiteSpace=wrap;html=1;" parent="gfKqpitYMT0C_zAYRqk9-318" vertex="1">
          <mxGeometry x="420" y="130" width="120" height="35" as="geometry" />
        </mxCell>
        <mxCell id="gfKqpitYMT0C_zAYRqk9-261" value="Rent" style="ellipse;whiteSpace=wrap;html=1;" parent="gfKqpitYMT0C_zAYRqk9-318" vertex="1">
          <mxGeometry x="440" y="187.5" width="120" height="35" as="geometry" />
        </mxCell>
        <mxCell id="gfKqpitYMT0C_zAYRqk9-262" value="Deposits" style="ellipse;whiteSpace=wrap;html=1;" parent="gfKqpitYMT0C_zAYRqk9-318" vertex="1">
          <mxGeometry x="340" y="35" width="120" height="35" as="geometry" />
        </mxCell>
        <mxCell id="gfKqpitYMT0C_zAYRqk9-16" value="Residence_and_housing" style="rounded=0;whiteSpace=wrap;html=1;fillColor=#D4E1F5;" parent="gfKqpitYMT0C_zAYRqk9-318" vertex="1">
          <mxGeometry x="205" y="190" width="160" height="30" as="geometry" />
        </mxCell>
        <mxCell id="gfKqpitYMT0C_zAYRqk9-254" value="Room_Type" style="ellipse;whiteSpace=wrap;html=1;" parent="gfKqpitYMT0C_zAYRqk9-318" vertex="1">
          <mxGeometry x="75" y="50" width="120" height="35" as="geometry" />
        </mxCell>
        <mxCell id="gfKqpitYMT0C_zAYRqk9-253" value="Type" style="ellipse;whiteSpace=wrap;html=1;" parent="gfKqpitYMT0C_zAYRqk9-318" vertex="1">
          <mxGeometry x="130" y="12.5" width="120" height="30" as="geometry" />
        </mxCell>
        <mxCell id="gfKqpitYMT0C_zAYRqk9-252" value="Capacity" style="ellipse;whiteSpace=wrap;html=1;" parent="gfKqpitYMT0C_zAYRqk9-318" vertex="1">
          <mxGeometry x="260" width="120" height="35" as="geometry" />
        </mxCell>
        <mxCell id="gfKqpitYMT0C_zAYRqk9-406" value="" style="endArrow=none;html=1;rounded=0;exitX=1;exitY=1;exitDx=0;exitDy=0;entryX=0;entryY=0.25;entryDx=0;entryDy=0;" parent="gfKqpitYMT0C_zAYRqk9-318" source="gfKqpitYMT0C_zAYRqk9-251" target="gfKqpitYMT0C_zAYRqk9-16" edge="1">
          <mxGeometry width="50" height="50" relative="1" as="geometry">
            <mxPoint x="180" y="232.5" as="sourcePoint" />
            <mxPoint x="230" y="182.5" as="targetPoint" />
          </mxGeometry>
        </mxCell>
        <mxCell id="gfKqpitYMT0C_zAYRqk9-407" value="" style="endArrow=none;html=1;rounded=0;exitX=1;exitY=0.5;exitDx=0;exitDy=0;entryX=0.096;entryY=0.018;entryDx=0;entryDy=0;entryPerimeter=0;" parent="gfKqpitYMT0C_zAYRqk9-318" source="gfKqpitYMT0C_zAYRqk9-256" target="gfKqpitYMT0C_zAYRqk9-16" edge="1">
          <mxGeometry width="50" height="50" relative="1" as="geometry">
            <mxPoint x="180" y="232.5" as="sourcePoint" />
            <mxPoint x="230" y="182.5" as="targetPoint" />
          </mxGeometry>
        </mxCell>
        <mxCell id="gfKqpitYMT0C_zAYRqk9-408" value="" style="endArrow=none;html=1;rounded=0;exitX=1;exitY=1;exitDx=0;exitDy=0;entryX=0.156;entryY=0.083;entryDx=0;entryDy=0;entryPerimeter=0;" parent="gfKqpitYMT0C_zAYRqk9-318" source="gfKqpitYMT0C_zAYRqk9-255" target="gfKqpitYMT0C_zAYRqk9-16" edge="1">
          <mxGeometry width="50" height="50" relative="1" as="geometry">
            <mxPoint x="180" y="232.5" as="sourcePoint" />
            <mxPoint x="230" y="182.5" as="targetPoint" />
          </mxGeometry>
        </mxCell>
        <mxCell id="gfKqpitYMT0C_zAYRqk9-411" value="" style="endArrow=none;html=1;rounded=0;exitX=0.5;exitY=1;exitDx=0;exitDy=0;entryX=0.352;entryY=-0.01;entryDx=0;entryDy=0;entryPerimeter=0;" parent="gfKqpitYMT0C_zAYRqk9-318" source="gfKqpitYMT0C_zAYRqk9-252" target="gfKqpitYMT0C_zAYRqk9-16" edge="1">
          <mxGeometry width="50" height="50" relative="1" as="geometry">
            <mxPoint x="300" y="42.5" as="sourcePoint" />
            <mxPoint x="260" y="182.5" as="targetPoint" />
          </mxGeometry>
        </mxCell>
        <mxCell id="gfKqpitYMT0C_zAYRqk9-412" value="" style="endArrow=none;html=1;rounded=0;exitX=0.247;exitY=0.934;exitDx=0;exitDy=0;exitPerimeter=0;entryX=0.437;entryY=0.075;entryDx=0;entryDy=0;entryPerimeter=0;" parent="gfKqpitYMT0C_zAYRqk9-318" source="gfKqpitYMT0C_zAYRqk9-262" target="gfKqpitYMT0C_zAYRqk9-16" edge="1">
          <mxGeometry width="50" height="50" relative="1" as="geometry">
            <mxPoint x="180" y="232.5" as="sourcePoint" />
            <mxPoint x="230" y="182.5" as="targetPoint" />
          </mxGeometry>
        </mxCell>
        <mxCell id="gfKqpitYMT0C_zAYRqk9-413" value="" style="endArrow=none;html=1;rounded=0;exitX=0.667;exitY=0.104;exitDx=0;exitDy=0;exitPerimeter=0;entryX=0;entryY=1;entryDx=0;entryDy=0;" parent="gfKqpitYMT0C_zAYRqk9-318" source="gfKqpitYMT0C_zAYRqk9-16" target="gfKqpitYMT0C_zAYRqk9-258" edge="1">
          <mxGeometry width="50" height="50" relative="1" as="geometry">
            <mxPoint x="180" y="232.5" as="sourcePoint" />
            <mxPoint x="230" y="182.5" as="targetPoint" />
          </mxGeometry>
        </mxCell>
        <mxCell id="gfKqpitYMT0C_zAYRqk9-414" value="" style="endArrow=none;html=1;rounded=0;exitX=0.891;exitY=-0.038;exitDx=0;exitDy=0;exitPerimeter=0;entryX=0;entryY=0.5;entryDx=0;entryDy=0;" parent="gfKqpitYMT0C_zAYRqk9-318" source="gfKqpitYMT0C_zAYRqk9-16" target="gfKqpitYMT0C_zAYRqk9-260" edge="1">
          <mxGeometry width="50" height="50" relative="1" as="geometry">
            <mxPoint x="180" y="232.5" as="sourcePoint" />
            <mxPoint x="230" y="182.5" as="targetPoint" />
          </mxGeometry>
        </mxCell>
        <mxCell id="gfKqpitYMT0C_zAYRqk9-322" value="" style="group" parent="1" vertex="1" connectable="0">
          <mxGeometry x="930" y="-350" width="390" height="172.5" as="geometry" />
        </mxCell>
        <mxCell id="gfKqpitYMT0C_zAYRqk9-8" value="Courses" style="rounded=0;whiteSpace=wrap;html=1;fillColor=#D4E1F5;" parent="gfKqpitYMT0C_zAYRqk9-322" vertex="1">
          <mxGeometry x="130" y="112.5" width="120" height="30" as="geometry" />
        </mxCell>
        <mxCell id="gfKqpitYMT0C_zAYRqk9-178" value="Description" style="ellipse;whiteSpace=wrap;html=1;" parent="gfKqpitYMT0C_zAYRqk9-322" vertex="1">
          <mxGeometry x="210" width="80" height="30" as="geometry" />
        </mxCell>
        <mxCell id="gfKqpitYMT0C_zAYRqk9-179" value="Duration" style="ellipse;whiteSpace=wrap;html=1;" parent="gfKqpitYMT0C_zAYRqk9-322" vertex="1">
          <mxGeometry x="100" y="-10" width="80" height="30" as="geometry" />
        </mxCell>
        <mxCell id="gfKqpitYMT0C_zAYRqk9-180" value="Credits" style="ellipse;whiteSpace=wrap;html=1;" parent="gfKqpitYMT0C_zAYRqk9-322" vertex="1">
          <mxGeometry x="60" y="30" width="80" height="30" as="geometry" />
        </mxCell>
        <mxCell id="gfKqpitYMT0C_zAYRqk9-181" value="name" style="ellipse;whiteSpace=wrap;html=1;" parent="gfKqpitYMT0C_zAYRqk9-322" vertex="1">
          <mxGeometry x="40" y="72.5" width="80" height="30" as="geometry" />
        </mxCell>
        <mxCell id="gfKqpitYMT0C_zAYRqk9-182" value="&lt;u&gt;Course_ID&lt;/u&gt;" style="ellipse;whiteSpace=wrap;html=1;" parent="gfKqpitYMT0C_zAYRqk9-322" vertex="1">
          <mxGeometry x="20" y="112.5" width="80" height="30" as="geometry" />
        </mxCell>
        <mxCell id="gfKqpitYMT0C_zAYRqk9-184" value="Material" style="ellipse;whiteSpace=wrap;html=1;" parent="gfKqpitYMT0C_zAYRqk9-322" vertex="1">
          <mxGeometry x="265" y="30" width="80" height="30" as="geometry" />
        </mxCell>
        <mxCell id="gfKqpitYMT0C_zAYRqk9-185" value="Syllabus" style="ellipse;whiteSpace=wrap;html=1;" parent="gfKqpitYMT0C_zAYRqk9-322" vertex="1">
          <mxGeometry x="305" y="117.5" width="80" height="30" as="geometry" />
        </mxCell>
        <mxCell id="gfKqpitYMT0C_zAYRqk9-186" value="Enrollment_capacity" style="ellipse;whiteSpace=wrap;html=1;" parent="gfKqpitYMT0C_zAYRqk9-322" vertex="1">
          <mxGeometry x="280" y="72.5" width="120" height="30" as="geometry" />
        </mxCell>
        <mxCell id="gfKqpitYMT0C_zAYRqk9-447" value="" style="endArrow=none;html=1;rounded=0;exitX=1;exitY=0.5;exitDx=0;exitDy=0;entryX=0;entryY=0.5;entryDx=0;entryDy=0;" parent="gfKqpitYMT0C_zAYRqk9-322" source="gfKqpitYMT0C_zAYRqk9-182" target="gfKqpitYMT0C_zAYRqk9-8" edge="1">
          <mxGeometry width="50" height="50" relative="1" as="geometry">
            <mxPoint x="230" y="120" as="sourcePoint" />
            <mxPoint x="280" y="70" as="targetPoint" />
          </mxGeometry>
        </mxCell>
        <mxCell id="gfKqpitYMT0C_zAYRqk9-448" value="" style="endArrow=none;html=1;rounded=0;exitX=1;exitY=1;exitDx=0;exitDy=0;entryX=0;entryY=0;entryDx=0;entryDy=0;" parent="gfKqpitYMT0C_zAYRqk9-322" source="gfKqpitYMT0C_zAYRqk9-181" target="gfKqpitYMT0C_zAYRqk9-8" edge="1">
          <mxGeometry width="50" height="50" relative="1" as="geometry">
            <mxPoint x="230" y="120" as="sourcePoint" />
            <mxPoint x="280" y="70" as="targetPoint" />
          </mxGeometry>
        </mxCell>
        <mxCell id="gfKqpitYMT0C_zAYRqk9-449" value="" style="endArrow=none;html=1;rounded=0;exitX=1;exitY=1;exitDx=0;exitDy=0;entryX=0.25;entryY=0;entryDx=0;entryDy=0;" parent="gfKqpitYMT0C_zAYRqk9-322" source="gfKqpitYMT0C_zAYRqk9-180" target="gfKqpitYMT0C_zAYRqk9-8" edge="1">
          <mxGeometry width="50" height="50" relative="1" as="geometry">
            <mxPoint x="230" y="120" as="sourcePoint" />
            <mxPoint x="280" y="70" as="targetPoint" />
          </mxGeometry>
        </mxCell>
        <mxCell id="gfKqpitYMT0C_zAYRqk9-453" value="" style="endArrow=none;html=1;rounded=0;exitX=1;exitY=0;exitDx=0;exitDy=0;entryX=0;entryY=0.5;entryDx=0;entryDy=0;" parent="gfKqpitYMT0C_zAYRqk9-322" source="gfKqpitYMT0C_zAYRqk9-8" target="gfKqpitYMT0C_zAYRqk9-186" edge="1">
          <mxGeometry width="50" height="50" relative="1" as="geometry">
            <mxPoint x="230" y="120" as="sourcePoint" />
            <mxPoint x="280" y="70" as="targetPoint" />
          </mxGeometry>
        </mxCell>
        <mxCell id="gfKqpitYMT0C_zAYRqk9-454" value="" style="endArrow=none;html=1;rounded=0;exitX=1;exitY=0.5;exitDx=0;exitDy=0;entryX=0;entryY=0.5;entryDx=0;entryDy=0;" parent="gfKqpitYMT0C_zAYRqk9-322" source="gfKqpitYMT0C_zAYRqk9-8" target="gfKqpitYMT0C_zAYRqk9-185" edge="1">
          <mxGeometry width="50" height="50" relative="1" as="geometry">
            <mxPoint x="230" y="120" as="sourcePoint" />
            <mxPoint x="280" y="70" as="targetPoint" />
          </mxGeometry>
        </mxCell>
        <mxCell id="gfKqpitYMT0C_zAYRqk9-590" value="&lt;b&gt;N&lt;/b&gt;" style="text;html=1;strokeColor=none;fillColor=none;align=center;verticalAlign=middle;whiteSpace=wrap;rounded=0;" parent="gfKqpitYMT0C_zAYRqk9-322" vertex="1">
          <mxGeometry x="190" y="142.5" width="60" height="30" as="geometry" />
        </mxCell>
        <mxCell id="gfKqpitYMT0C_zAYRqk9-643" value="&lt;b&gt;1&lt;/b&gt;" style="text;html=1;strokeColor=none;fillColor=none;align=center;verticalAlign=middle;whiteSpace=wrap;rounded=0;" parent="gfKqpitYMT0C_zAYRqk9-322" vertex="1">
          <mxGeometry x="190" y="82.5" width="35" height="20" as="geometry" />
        </mxCell>
        <mxCell id="gfKqpitYMT0C_zAYRqk9-323" value="" style="endArrow=none;html=1;rounded=0;entryX=0.5;entryY=0;entryDx=0;entryDy=0;" parent="1" target="gfKqpitYMT0C_zAYRqk9-297" edge="1">
          <mxGeometry width="50" height="50" relative="1" as="geometry">
            <mxPoint x="-440" y="410" as="sourcePoint" />
            <mxPoint x="-340" y="560" as="targetPoint" />
          </mxGeometry>
        </mxCell>
        <mxCell id="gfKqpitYMT0C_zAYRqk9-333" value="" style="endArrow=none;html=1;rounded=0;entryX=0.5;entryY=0;entryDx=0;entryDy=0;" parent="1" target="gfKqpitYMT0C_zAYRqk9-329" edge="1">
          <mxGeometry width="50" height="50" relative="1" as="geometry">
            <mxPoint x="660" y="-360" as="sourcePoint" />
            <mxPoint x="700" y="-190" as="targetPoint" />
          </mxGeometry>
        </mxCell>
        <mxCell id="gfKqpitYMT0C_zAYRqk9-334" value="" style="endArrow=none;html=1;rounded=0;exitX=0.5;exitY=1;exitDx=0;exitDy=0;" parent="1" source="gfKqpitYMT0C_zAYRqk9-329" edge="1">
          <mxGeometry width="50" height="50" relative="1" as="geometry">
            <mxPoint x="650" y="-140" as="sourcePoint" />
            <mxPoint x="660" y="-10" as="targetPoint" />
          </mxGeometry>
        </mxCell>
        <mxCell id="gfKqpitYMT0C_zAYRqk9-335" value="" style="endArrow=none;html=1;rounded=0;exitX=0.5;exitY=0;exitDx=0;exitDy=0;" parent="1" source="gfKqpitYMT0C_zAYRqk9-312" edge="1">
          <mxGeometry width="50" height="50" relative="1" as="geometry">
            <mxPoint x="630" y="80" as="sourcePoint" />
            <mxPoint x="660" y="20" as="targetPoint" />
          </mxGeometry>
        </mxCell>
        <mxCell id="gfKqpitYMT0C_zAYRqk9-336" value="teaches" style="rhombus;whiteSpace=wrap;html=1;fillColor=#FFB366;" parent="1" vertex="1">
          <mxGeometry x="1080" y="-185" width="80" height="50" as="geometry" />
        </mxCell>
        <mxCell id="gfKqpitYMT0C_zAYRqk9-337" value="" style="endArrow=none;html=1;rounded=0;entryX=0.5;entryY=1;entryDx=0;entryDy=0;" parent="1" target="gfKqpitYMT0C_zAYRqk9-336" edge="1">
          <mxGeometry width="50" height="50" relative="1" as="geometry">
            <mxPoint x="850" y="-370" as="sourcePoint" />
            <mxPoint x="990" y="-180" as="targetPoint" />
            <Array as="points">
              <mxPoint x="850" y="-135" />
            </Array>
          </mxGeometry>
        </mxCell>
        <mxCell id="gfKqpitYMT0C_zAYRqk9-338" value="" style="endArrow=none;html=1;rounded=0;exitX=0.5;exitY=0;exitDx=0;exitDy=0;" parent="1" source="gfKqpitYMT0C_zAYRqk9-336" edge="1">
          <mxGeometry width="50" height="50" relative="1" as="geometry">
            <mxPoint x="940" y="-130" as="sourcePoint" />
            <mxPoint x="1120" y="-210" as="targetPoint" />
          </mxGeometry>
        </mxCell>
        <mxCell id="gfKqpitYMT0C_zAYRqk9-342" value="" style="group" parent="1" vertex="1" connectable="0">
          <mxGeometry x="1340" y="-330" width="490" height="220" as="geometry" />
        </mxCell>
        <mxCell id="gfKqpitYMT0C_zAYRqk9-10" value="News and events" style="rounded=0;whiteSpace=wrap;html=1;fillColor=#D4E1F5;" parent="gfKqpitYMT0C_zAYRqk9-342" vertex="1">
          <mxGeometry x="190" y="160" width="120" height="30" as="geometry" />
        </mxCell>
        <mxCell id="gfKqpitYMT0C_zAYRqk9-197" value="ContactInfo" style="ellipse;whiteSpace=wrap;html=1;" parent="gfKqpitYMT0C_zAYRqk9-342" vertex="1">
          <mxGeometry x="120" width="80" height="30" as="geometry" />
        </mxCell>
        <mxCell id="gfKqpitYMT0C_zAYRqk9-198" value="Schedule" style="ellipse;whiteSpace=wrap;html=1;" parent="gfKqpitYMT0C_zAYRqk9-342" vertex="1">
          <mxGeometry x="60" y="40" width="80" height="30" as="geometry" />
        </mxCell>
        <mxCell id="gfKqpitYMT0C_zAYRqk9-199" value="Description" style="ellipse;whiteSpace=wrap;html=1;" parent="gfKqpitYMT0C_zAYRqk9-342" vertex="1">
          <mxGeometry x="20" y="80" width="80" height="30" as="geometry" />
        </mxCell>
        <mxCell id="gfKqpitYMT0C_zAYRqk9-200" value="Title" style="ellipse;whiteSpace=wrap;html=1;" parent="gfKqpitYMT0C_zAYRqk9-342" vertex="1">
          <mxGeometry x="10" y="120" width="80" height="30" as="geometry" />
        </mxCell>
        <mxCell id="gfKqpitYMT0C_zAYRqk9-201" value="&lt;u&gt;News_ID&lt;/u&gt;" style="ellipse;whiteSpace=wrap;html=1;" parent="gfKqpitYMT0C_zAYRqk9-342" vertex="1">
          <mxGeometry y="160" width="80" height="30" as="geometry" />
        </mxCell>
        <mxCell id="gfKqpitYMT0C_zAYRqk9-202" value="Category" style="ellipse;whiteSpace=wrap;html=1;" parent="gfKqpitYMT0C_zAYRqk9-342" vertex="1">
          <mxGeometry x="370" y="40" width="80" height="30" as="geometry" />
        </mxCell>
        <mxCell id="gfKqpitYMT0C_zAYRqk9-203" value="Organizer" style="ellipse;whiteSpace=wrap;html=1;" parent="gfKqpitYMT0C_zAYRqk9-342" vertex="1">
          <mxGeometry x="300" y="10" width="80" height="30" as="geometry" />
        </mxCell>
        <mxCell id="gfKqpitYMT0C_zAYRqk9-204" value="Address" style="ellipse;whiteSpace=wrap;html=1;" parent="gfKqpitYMT0C_zAYRqk9-342" vertex="1">
          <mxGeometry x="210" width="80" height="30" as="geometry" />
        </mxCell>
        <mxCell id="gfKqpitYMT0C_zAYRqk9-207" value="Images" style="ellipse;whiteSpace=wrap;html=1;" parent="gfKqpitYMT0C_zAYRqk9-342" vertex="1">
          <mxGeometry x="400" y="80" width="80" height="30" as="geometry" />
        </mxCell>
        <mxCell id="gfKqpitYMT0C_zAYRqk9-208" value="Status" style="ellipse;whiteSpace=wrap;html=1;" parent="gfKqpitYMT0C_zAYRqk9-342" vertex="1">
          <mxGeometry x="410" y="130" width="80" height="30" as="geometry" />
        </mxCell>
        <mxCell id="gfKqpitYMT0C_zAYRqk9-209" value="Link" style="ellipse;whiteSpace=wrap;html=1;" parent="gfKqpitYMT0C_zAYRqk9-342" vertex="1">
          <mxGeometry x="410" y="170" width="80" height="30" as="geometry" />
        </mxCell>
        <mxCell id="gfKqpitYMT0C_zAYRqk9-436" value="" style="endArrow=none;html=1;rounded=0;entryX=0;entryY=0.5;entryDx=0;entryDy=0;exitX=1;exitY=0.5;exitDx=0;exitDy=0;" parent="gfKqpitYMT0C_zAYRqk9-342" source="gfKqpitYMT0C_zAYRqk9-201" target="gfKqpitYMT0C_zAYRqk9-10" edge="1">
          <mxGeometry width="50" height="50" relative="1" as="geometry">
            <mxPoint x="-10" y="280" as="sourcePoint" />
            <mxPoint x="40" y="230" as="targetPoint" />
          </mxGeometry>
        </mxCell>
        <mxCell id="gfKqpitYMT0C_zAYRqk9-437" value="" style="endArrow=none;html=1;rounded=0;exitX=0;exitY=0.25;exitDx=0;exitDy=0;entryX=0.951;entryY=0.671;entryDx=0;entryDy=0;entryPerimeter=0;" parent="gfKqpitYMT0C_zAYRqk9-342" source="gfKqpitYMT0C_zAYRqk9-10" target="gfKqpitYMT0C_zAYRqk9-200" edge="1">
          <mxGeometry width="50" height="50" relative="1" as="geometry">
            <mxPoint x="180" y="160" as="sourcePoint" />
            <mxPoint x="100" y="110" as="targetPoint" />
          </mxGeometry>
        </mxCell>
        <mxCell id="gfKqpitYMT0C_zAYRqk9-444" value="" style="endArrow=none;html=1;rounded=0;exitX=0.873;exitY=0.006;exitDx=0;exitDy=0;exitPerimeter=0;entryX=0;entryY=1;entryDx=0;entryDy=0;" parent="gfKqpitYMT0C_zAYRqk9-342" source="gfKqpitYMT0C_zAYRqk9-10" target="gfKqpitYMT0C_zAYRqk9-207" edge="1">
          <mxGeometry width="50" height="50" relative="1" as="geometry">
            <mxPoint x="170" y="120" as="sourcePoint" />
            <mxPoint x="220" y="70" as="targetPoint" />
          </mxGeometry>
        </mxCell>
        <mxCell id="gfKqpitYMT0C_zAYRqk9-445" value="" style="endArrow=none;html=1;rounded=0;exitX=1;exitY=0;exitDx=0;exitDy=0;" parent="gfKqpitYMT0C_zAYRqk9-342" source="gfKqpitYMT0C_zAYRqk9-10" target="gfKqpitYMT0C_zAYRqk9-208" edge="1">
          <mxGeometry width="50" height="50" relative="1" as="geometry">
            <mxPoint x="350" y="160" as="sourcePoint" />
            <mxPoint x="400" y="110" as="targetPoint" />
          </mxGeometry>
        </mxCell>
        <mxCell id="gfKqpitYMT0C_zAYRqk9-446" value="" style="endArrow=none;html=1;rounded=0;exitX=1;exitY=0.5;exitDx=0;exitDy=0;entryX=0;entryY=0.5;entryDx=0;entryDy=0;" parent="gfKqpitYMT0C_zAYRqk9-342" source="gfKqpitYMT0C_zAYRqk9-10" target="gfKqpitYMT0C_zAYRqk9-209" edge="1">
          <mxGeometry width="50" height="50" relative="1" as="geometry">
            <mxPoint x="350" y="160" as="sourcePoint" />
            <mxPoint x="400" y="110" as="targetPoint" />
          </mxGeometry>
        </mxCell>
        <mxCell id="gfKqpitYMT0C_zAYRqk9-591" value="&lt;b&gt;N&lt;/b&gt;" style="text;html=1;strokeColor=none;fillColor=none;align=center;verticalAlign=middle;whiteSpace=wrap;rounded=0;" parent="gfKqpitYMT0C_zAYRqk9-342" vertex="1">
          <mxGeometry x="200" y="190" width="60" height="30" as="geometry" />
        </mxCell>
        <mxCell id="gfKqpitYMT0C_zAYRqk9-343" value="Announces" style="rhombus;whiteSpace=wrap;html=1;fillColor=#FFB366;" parent="1" vertex="1">
          <mxGeometry x="1275" y="-130" width="105" height="60" as="geometry" />
        </mxCell>
        <mxCell id="gfKqpitYMT0C_zAYRqk9-344" value="" style="endArrow=none;html=1;rounded=0;exitX=1;exitY=0;exitDx=0;exitDy=0;" parent="1" source="gfKqpitYMT0C_zAYRqk9-5" edge="1">
          <mxGeometry width="50" height="50" relative="1" as="geometry">
            <mxPoint x="1100" y="-130" as="sourcePoint" />
            <mxPoint x="1280" y="-100" as="targetPoint" />
          </mxGeometry>
        </mxCell>
        <mxCell id="gfKqpitYMT0C_zAYRqk9-347" value="" style="endArrow=none;html=1;rounded=0;exitX=1;exitY=0.5;exitDx=0;exitDy=0;entryX=0.5;entryY=1;entryDx=0;entryDy=0;" parent="1" source="gfKqpitYMT0C_zAYRqk9-343" target="gfKqpitYMT0C_zAYRqk9-10" edge="1">
          <mxGeometry width="50" height="50" relative="1" as="geometry">
            <mxPoint x="1390" y="-160" as="sourcePoint" />
            <mxPoint x="1440" y="-210" as="targetPoint" />
            <Array as="points">
              <mxPoint x="1590" y="-100" />
            </Array>
          </mxGeometry>
        </mxCell>
        <mxCell id="gfKqpitYMT0C_zAYRqk9-348" value="" style="group" parent="1" vertex="1" connectable="0">
          <mxGeometry y="-350" width="390" height="130" as="geometry" />
        </mxCell>
        <mxCell id="gfKqpitYMT0C_zAYRqk9-19" value="Scholarships" style="rounded=0;whiteSpace=wrap;html=1;fillColor=#D4E1F5;" parent="gfKqpitYMT0C_zAYRqk9-348" vertex="1">
          <mxGeometry x="140" y="100" width="120" height="30" as="geometry" />
        </mxCell>
        <mxCell id="gfKqpitYMT0C_zAYRqk9-105" value="Name" style="ellipse;whiteSpace=wrap;html=1;" parent="gfKqpitYMT0C_zAYRqk9-348" vertex="1">
          <mxGeometry x="30" y="50" width="80" height="30" as="geometry" />
        </mxCell>
        <mxCell id="gfKqpitYMT0C_zAYRqk9-106" value="&lt;u&gt;Scholarship_ID&lt;/u&gt;" style="ellipse;whiteSpace=wrap;html=1;" parent="gfKqpitYMT0C_zAYRqk9-348" vertex="1">
          <mxGeometry x="-20" y="100" width="110" height="40" as="geometry" />
        </mxCell>
        <mxCell id="gfKqpitYMT0C_zAYRqk9-116" value="Description" style="ellipse;whiteSpace=wrap;html=1;" parent="gfKqpitYMT0C_zAYRqk9-348" vertex="1">
          <mxGeometry x="60" y="10" width="80" height="30" as="geometry" />
        </mxCell>
        <mxCell id="gfKqpitYMT0C_zAYRqk9-118" value="Provider" style="ellipse;whiteSpace=wrap;html=1;" parent="gfKqpitYMT0C_zAYRqk9-348" vertex="1">
          <mxGeometry x="310" y="100" width="80" height="30" as="geometry" />
        </mxCell>
        <mxCell id="gfKqpitYMT0C_zAYRqk9-119" value="Amount" style="ellipse;whiteSpace=wrap;html=1;" parent="gfKqpitYMT0C_zAYRqk9-348" vertex="1">
          <mxGeometry x="130" y="-10" width="80" height="30" as="geometry" />
        </mxCell>
        <mxCell id="gfKqpitYMT0C_zAYRqk9-120" value="Deadline" style="ellipse;whiteSpace=wrap;html=1;" parent="gfKqpitYMT0C_zAYRqk9-348" vertex="1">
          <mxGeometry x="210" width="80" height="30" as="geometry" />
        </mxCell>
        <mxCell id="gfKqpitYMT0C_zAYRqk9-121" value="Duration" style="ellipse;whiteSpace=wrap;html=1;" parent="gfKqpitYMT0C_zAYRqk9-348" vertex="1">
          <mxGeometry x="270" y="30" width="80" height="30" as="geometry" />
        </mxCell>
        <mxCell id="gfKqpitYMT0C_zAYRqk9-122" value="URL" style="ellipse;whiteSpace=wrap;html=1;" parent="gfKqpitYMT0C_zAYRqk9-348" vertex="1">
          <mxGeometry x="310" y="60" width="80" height="30" as="geometry" />
        </mxCell>
        <mxCell id="gfKqpitYMT0C_zAYRqk9-484" value="" style="endArrow=none;html=1;rounded=0;exitX=1;exitY=0.5;exitDx=0;exitDy=0;entryX=0;entryY=0.5;entryDx=0;entryDy=0;" parent="gfKqpitYMT0C_zAYRqk9-348" source="gfKqpitYMT0C_zAYRqk9-106" target="gfKqpitYMT0C_zAYRqk9-19" edge="1">
          <mxGeometry width="50" height="50" relative="1" as="geometry">
            <mxPoint x="170" y="140" as="sourcePoint" />
            <mxPoint x="220" y="90" as="targetPoint" />
          </mxGeometry>
        </mxCell>
        <mxCell id="gfKqpitYMT0C_zAYRqk9-485" value="" style="endArrow=none;html=1;rounded=0;exitX=1;exitY=1;exitDx=0;exitDy=0;entryX=0;entryY=0;entryDx=0;entryDy=0;" parent="gfKqpitYMT0C_zAYRqk9-348" source="gfKqpitYMT0C_zAYRqk9-105" target="gfKqpitYMT0C_zAYRqk9-19" edge="1">
          <mxGeometry width="50" height="50" relative="1" as="geometry">
            <mxPoint x="170" y="140" as="sourcePoint" />
            <mxPoint x="220" y="90" as="targetPoint" />
          </mxGeometry>
        </mxCell>
        <mxCell id="gfKqpitYMT0C_zAYRqk9-486" value="" style="endArrow=none;html=1;rounded=0;exitX=1;exitY=1;exitDx=0;exitDy=0;entryX=0.117;entryY=0.03;entryDx=0;entryDy=0;entryPerimeter=0;" parent="gfKqpitYMT0C_zAYRqk9-348" source="gfKqpitYMT0C_zAYRqk9-116" target="gfKqpitYMT0C_zAYRqk9-19" edge="1">
          <mxGeometry width="50" height="50" relative="1" as="geometry">
            <mxPoint x="170" y="140" as="sourcePoint" />
            <mxPoint x="220" y="90" as="targetPoint" />
          </mxGeometry>
        </mxCell>
        <mxCell id="gfKqpitYMT0C_zAYRqk9-489" value="" style="endArrow=none;html=1;rounded=0;exitX=0.055;exitY=0.832;exitDx=0;exitDy=0;exitPerimeter=0;entryX=0.5;entryY=0;entryDx=0;entryDy=0;" parent="gfKqpitYMT0C_zAYRqk9-348" source="gfKqpitYMT0C_zAYRqk9-121" target="gfKqpitYMT0C_zAYRqk9-19" edge="1">
          <mxGeometry width="50" height="50" relative="1" as="geometry">
            <mxPoint x="170" y="140" as="sourcePoint" />
            <mxPoint x="220" y="90" as="targetPoint" />
          </mxGeometry>
        </mxCell>
        <mxCell id="gfKqpitYMT0C_zAYRqk9-490" value="" style="endArrow=none;html=1;rounded=0;exitX=0;exitY=0.5;exitDx=0;exitDy=0;entryX=0.626;entryY=-0.028;entryDx=0;entryDy=0;entryPerimeter=0;" parent="gfKqpitYMT0C_zAYRqk9-348" source="gfKqpitYMT0C_zAYRqk9-122" target="gfKqpitYMT0C_zAYRqk9-19" edge="1">
          <mxGeometry width="50" height="50" relative="1" as="geometry">
            <mxPoint x="170" y="140" as="sourcePoint" />
            <mxPoint x="220" y="90" as="targetPoint" />
          </mxGeometry>
        </mxCell>
        <mxCell id="gfKqpitYMT0C_zAYRqk9-669" value="&lt;b&gt;1&lt;/b&gt;" style="text;html=1;strokeColor=none;fillColor=none;align=center;verticalAlign=middle;whiteSpace=wrap;rounded=0;" parent="gfKqpitYMT0C_zAYRqk9-348" vertex="1">
          <mxGeometry x="95" y="100" width="35" height="20" as="geometry" />
        </mxCell>
        <mxCell id="gfKqpitYMT0C_zAYRqk9-349" value="Provides&amp;nbsp;" style="rhombus;whiteSpace=wrap;html=1;fillColor=#FFB366;" parent="1" vertex="1">
          <mxGeometry x="160" y="-180" width="100" height="80" as="geometry" />
        </mxCell>
        <mxCell id="gfKqpitYMT0C_zAYRqk9-350" value="" style="endArrow=none;html=1;rounded=0;exitX=1;exitY=0.5;exitDx=0;exitDy=0;" parent="1" source="gfKqpitYMT0C_zAYRqk9-349" edge="1">
          <mxGeometry width="50" height="50" relative="1" as="geometry">
            <mxPoint x="330" y="-90" as="sourcePoint" />
            <mxPoint x="480" y="-360" as="targetPoint" />
            <Array as="points">
              <mxPoint x="480" y="-140" />
            </Array>
          </mxGeometry>
        </mxCell>
        <mxCell id="gfKqpitYMT0C_zAYRqk9-351" value="" style="endArrow=none;html=1;rounded=0;entryX=0.5;entryY=0;entryDx=0;entryDy=0;" parent="1" target="gfKqpitYMT0C_zAYRqk9-349" edge="1">
          <mxGeometry width="50" height="50" relative="1" as="geometry">
            <mxPoint x="210" y="-220" as="sourcePoint" />
            <mxPoint x="380" y="-140" as="targetPoint" />
          </mxGeometry>
        </mxCell>
        <mxCell id="gfKqpitYMT0C_zAYRqk9-352" value="" style="group" parent="1" vertex="1" connectable="0">
          <mxGeometry x="-400" y="-490" width="470" height="170" as="geometry" />
        </mxCell>
        <mxCell id="gfKqpitYMT0C_zAYRqk9-7" value="Admissions" style="rounded=0;whiteSpace=wrap;html=1;fillColor=#D4E1F5;" parent="gfKqpitYMT0C_zAYRqk9-352" vertex="1">
          <mxGeometry x="180" y="120" width="120" height="30" as="geometry" />
        </mxCell>
        <mxCell id="gfKqpitYMT0C_zAYRqk9-162" value="&lt;u&gt;Admission_ID&lt;/u&gt;" style="ellipse;whiteSpace=wrap;html=1;" parent="gfKqpitYMT0C_zAYRqk9-352" vertex="1">
          <mxGeometry x="10" y="120" width="90" height="40" as="geometry" />
        </mxCell>
        <mxCell id="gfKqpitYMT0C_zAYRqk9-163" value="LOR" style="ellipse;whiteSpace=wrap;html=1;" parent="gfKqpitYMT0C_zAYRqk9-352" vertex="1">
          <mxGeometry x="320" y="5" width="80" height="30" as="geometry" />
        </mxCell>
        <mxCell id="gfKqpitYMT0C_zAYRqk9-164" value="Application_fees" style="ellipse;whiteSpace=wrap;html=1;" parent="gfKqpitYMT0C_zAYRqk9-352" vertex="1">
          <mxGeometry x="370" y="125" width="100" height="30" as="geometry" />
        </mxCell>
        <mxCell id="gfKqpitYMT0C_zAYRqk9-165" value="Portfolio" style="ellipse;whiteSpace=wrap;html=1;" parent="gfKqpitYMT0C_zAYRqk9-352" vertex="1">
          <mxGeometry x="380" y="85" width="80" height="30" as="geometry" />
        </mxCell>
        <mxCell id="gfKqpitYMT0C_zAYRqk9-166" value="Resume" style="ellipse;whiteSpace=wrap;html=1;" parent="gfKqpitYMT0C_zAYRqk9-352" vertex="1">
          <mxGeometry x="355" y="45" width="80" height="30" as="geometry" />
        </mxCell>
        <mxCell id="gfKqpitYMT0C_zAYRqk9-167" value="Application_type" style="ellipse;whiteSpace=wrap;html=1;" parent="gfKqpitYMT0C_zAYRqk9-352" vertex="1">
          <mxGeometry x="200" width="110" height="40" as="geometry" />
        </mxCell>
        <mxCell id="gfKqpitYMT0C_zAYRqk9-168" value="Status" style="ellipse;whiteSpace=wrap;html=1;" parent="gfKqpitYMT0C_zAYRqk9-352" vertex="1">
          <mxGeometry x="110" y="5" width="80" height="30" as="geometry" />
        </mxCell>
        <mxCell id="gfKqpitYMT0C_zAYRqk9-169" value="Date" style="ellipse;whiteSpace=wrap;html=1;" parent="gfKqpitYMT0C_zAYRqk9-352" vertex="1">
          <mxGeometry x="50" y="35" width="80" height="30" as="geometry" />
        </mxCell>
        <mxCell id="gfKqpitYMT0C_zAYRqk9-170" value="Name_of_applicant" style="ellipse;whiteSpace=wrap;html=1;" parent="gfKqpitYMT0C_zAYRqk9-352" vertex="1">
          <mxGeometry y="75" width="130" height="30" as="geometry" />
        </mxCell>
        <mxCell id="gfKqpitYMT0C_zAYRqk9-493" value="" style="endArrow=none;html=1;rounded=0;exitX=1;exitY=0.5;exitDx=0;exitDy=0;entryX=0;entryY=0.25;entryDx=0;entryDy=0;" parent="gfKqpitYMT0C_zAYRqk9-352" source="gfKqpitYMT0C_zAYRqk9-170" target="gfKqpitYMT0C_zAYRqk9-7" edge="1">
          <mxGeometry width="50" height="50" relative="1" as="geometry">
            <mxPoint x="410" y="310" as="sourcePoint" />
            <mxPoint x="460" y="260" as="targetPoint" />
          </mxGeometry>
        </mxCell>
        <mxCell id="gfKqpitYMT0C_zAYRqk9-494" value="" style="endArrow=none;html=1;rounded=0;exitX=1;exitY=1;exitDx=0;exitDy=0;entryX=0;entryY=0;entryDx=0;entryDy=0;" parent="gfKqpitYMT0C_zAYRqk9-352" source="gfKqpitYMT0C_zAYRqk9-169" target="gfKqpitYMT0C_zAYRqk9-7" edge="1">
          <mxGeometry width="50" height="50" relative="1" as="geometry">
            <mxPoint x="410" y="310" as="sourcePoint" />
            <mxPoint x="460" y="260" as="targetPoint" />
          </mxGeometry>
        </mxCell>
        <mxCell id="gfKqpitYMT0C_zAYRqk9-495" value="" style="endArrow=none;html=1;rounded=0;exitX=0.695;exitY=0.98;exitDx=0;exitDy=0;exitPerimeter=0;entryX=0.25;entryY=0;entryDx=0;entryDy=0;" parent="gfKqpitYMT0C_zAYRqk9-352" source="gfKqpitYMT0C_zAYRqk9-168" target="gfKqpitYMT0C_zAYRqk9-7" edge="1">
          <mxGeometry width="50" height="50" relative="1" as="geometry">
            <mxPoint x="410" y="310" as="sourcePoint" />
            <mxPoint x="460" y="260" as="targetPoint" />
          </mxGeometry>
        </mxCell>
        <mxCell id="gfKqpitYMT0C_zAYRqk9-496" value="" style="endArrow=none;html=1;rounded=0;exitX=0.356;exitY=0.94;exitDx=0;exitDy=0;exitPerimeter=0;entryX=0.5;entryY=0;entryDx=0;entryDy=0;" parent="gfKqpitYMT0C_zAYRqk9-352" source="gfKqpitYMT0C_zAYRqk9-167" target="gfKqpitYMT0C_zAYRqk9-7" edge="1">
          <mxGeometry width="50" height="50" relative="1" as="geometry">
            <mxPoint x="410" y="310" as="sourcePoint" />
            <mxPoint x="460" y="260" as="targetPoint" />
          </mxGeometry>
        </mxCell>
        <mxCell id="gfKqpitYMT0C_zAYRqk9-497" value="" style="endArrow=none;html=1;rounded=0;exitX=0;exitY=1;exitDx=0;exitDy=0;entryX=0.75;entryY=0;entryDx=0;entryDy=0;" parent="gfKqpitYMT0C_zAYRqk9-352" source="gfKqpitYMT0C_zAYRqk9-163" target="gfKqpitYMT0C_zAYRqk9-7" edge="1">
          <mxGeometry width="50" height="50" relative="1" as="geometry">
            <mxPoint x="410" y="310" as="sourcePoint" />
            <mxPoint x="460" y="260" as="targetPoint" />
          </mxGeometry>
        </mxCell>
        <mxCell id="gfKqpitYMT0C_zAYRqk9-498" value="" style="endArrow=none;html=1;rounded=0;exitX=0;exitY=1;exitDx=0;exitDy=0;entryX=0.893;entryY=0.027;entryDx=0;entryDy=0;entryPerimeter=0;" parent="gfKqpitYMT0C_zAYRqk9-352" source="gfKqpitYMT0C_zAYRqk9-166" target="gfKqpitYMT0C_zAYRqk9-7" edge="1">
          <mxGeometry width="50" height="50" relative="1" as="geometry">
            <mxPoint x="410" y="310" as="sourcePoint" />
            <mxPoint x="460" y="260" as="targetPoint" />
          </mxGeometry>
        </mxCell>
        <mxCell id="gfKqpitYMT0C_zAYRqk9-499" value="" style="endArrow=none;html=1;rounded=0;exitX=0;exitY=1;exitDx=0;exitDy=0;entryX=1;entryY=0.25;entryDx=0;entryDy=0;" parent="gfKqpitYMT0C_zAYRqk9-352" source="gfKqpitYMT0C_zAYRqk9-165" target="gfKqpitYMT0C_zAYRqk9-7" edge="1">
          <mxGeometry width="50" height="50" relative="1" as="geometry">
            <mxPoint x="410" y="310" as="sourcePoint" />
            <mxPoint x="460" y="260" as="targetPoint" />
          </mxGeometry>
        </mxCell>
        <mxCell id="gfKqpitYMT0C_zAYRqk9-500" value="" style="endArrow=none;html=1;rounded=0;exitX=1;exitY=0.5;exitDx=0;exitDy=0;entryX=0;entryY=0.5;entryDx=0;entryDy=0;" parent="gfKqpitYMT0C_zAYRqk9-352" source="gfKqpitYMT0C_zAYRqk9-7" target="gfKqpitYMT0C_zAYRqk9-164" edge="1">
          <mxGeometry width="50" height="50" relative="1" as="geometry">
            <mxPoint x="410" y="310" as="sourcePoint" />
            <mxPoint x="460" y="260" as="targetPoint" />
          </mxGeometry>
        </mxCell>
        <mxCell id="gfKqpitYMT0C_zAYRqk9-668" value="&lt;b&gt;1&lt;/b&gt;" style="text;html=1;strokeColor=none;fillColor=none;align=center;verticalAlign=middle;whiteSpace=wrap;rounded=0;" parent="gfKqpitYMT0C_zAYRqk9-352" vertex="1">
          <mxGeometry x="285" y="150" width="35" height="20" as="geometry" />
        </mxCell>
        <mxCell id="gfKqpitYMT0C_zAYRqk9-354" value="" style="endArrow=none;html=1;rounded=0;entryX=0;entryY=0.5;entryDx=0;entryDy=0;exitX=1;exitY=0.5;exitDx=0;exitDy=0;" parent="1" source="gfKqpitYMT0C_zAYRqk9-355" target="gfKqpitYMT0C_zAYRqk9-5" edge="1">
          <mxGeometry width="50" height="50" relative="1" as="geometry">
            <mxPoint x="-100" y="5" as="sourcePoint" />
            <mxPoint x="420" y="40" as="targetPoint" />
          </mxGeometry>
        </mxCell>
        <mxCell id="gfKqpitYMT0C_zAYRqk9-355" value="Belongs to" style="rhombus;whiteSpace=wrap;html=1;fillColor=#FFB366;" parent="1" vertex="1">
          <mxGeometry x="-200" y="-35" width="80" height="80" as="geometry" />
        </mxCell>
        <mxCell id="gfKqpitYMT0C_zAYRqk9-356" value="" style="endArrow=none;html=1;rounded=0;entryX=0.5;entryY=0;entryDx=0;entryDy=0;" parent="1" target="gfKqpitYMT0C_zAYRqk9-355" edge="1">
          <mxGeometry width="50" height="50" relative="1" as="geometry">
            <mxPoint x="-160" y="-100" as="sourcePoint" />
            <mxPoint x="90" y="40" as="targetPoint" />
          </mxGeometry>
        </mxCell>
        <mxCell id="gfKqpitYMT0C_zAYRqk9-358" value="" style="endArrow=none;html=1;rounded=0;exitX=0.75;exitY=1;exitDx=0;exitDy=0;" parent="1" source="gfKqpitYMT0C_zAYRqk9-4" edge="1">
          <mxGeometry width="50" height="50" relative="1" as="geometry">
            <mxPoint x="850" y="770" as="sourcePoint" />
            <mxPoint x="904.8148148148148" y="665.1851851851852" as="targetPoint" />
          </mxGeometry>
        </mxCell>
        <mxCell id="gfKqpitYMT0C_zAYRqk9-362" value="" style="endArrow=none;html=1;rounded=0;entryX=0.5;entryY=0;entryDx=0;entryDy=0;exitX=0.5;exitY=1;exitDx=0;exitDy=0;" parent="1" source="gfKqpitYMT0C_zAYRqk9-363" target="gfKqpitYMT0C_zAYRqk9-8" edge="1">
          <mxGeometry width="50" height="50" relative="1" as="geometry">
            <mxPoint x="1200" y="-410" as="sourcePoint" />
            <mxPoint x="930" y="-80" as="targetPoint" />
          </mxGeometry>
        </mxCell>
        <mxCell id="gfKqpitYMT0C_zAYRqk9-370" value="has" style="rhombus;whiteSpace=wrap;html=1;fillColor=#FFB366;" parent="1" vertex="1">
          <mxGeometry x="350" y="770" width="80" height="80" as="geometry" />
        </mxCell>
        <mxCell id="gfKqpitYMT0C_zAYRqk9-371" value="" style="endArrow=none;html=1;rounded=0;exitX=0.5;exitY=0;exitDx=0;exitDy=0;entryX=0.5;entryY=1;entryDx=0;entryDy=0;" parent="1" source="gfKqpitYMT0C_zAYRqk9-370" target="gfKqpitYMT0C_zAYRqk9-2" edge="1">
          <mxGeometry width="50" height="50" relative="1" as="geometry">
            <mxPoint x="360" y="720" as="sourcePoint" />
            <mxPoint x="410" y="670" as="targetPoint" />
          </mxGeometry>
        </mxCell>
        <mxCell id="gfKqpitYMT0C_zAYRqk9-372" value="" style="endArrow=none;html=1;rounded=0;exitX=0;exitY=0.75;exitDx=0;exitDy=0;" parent="1" source="gfKqpitYMT0C_zAYRqk9-13" edge="1">
          <mxGeometry width="50" height="50" relative="1" as="geometry">
            <mxPoint x="360" y="720" as="sourcePoint" />
            <mxPoint x="430" y="810" as="targetPoint" />
          </mxGeometry>
        </mxCell>
        <mxCell id="gfKqpitYMT0C_zAYRqk9-375" value="" style="group" parent="1" vertex="1" connectable="0">
          <mxGeometry x="915" y="-620" width="405" height="230" as="geometry" />
        </mxCell>
        <mxCell id="gfKqpitYMT0C_zAYRqk9-363" value="has" style="rhombus;whiteSpace=wrap;html=1;fillColor=#FFB366;strokeColor=#d79b00;" parent="gfKqpitYMT0C_zAYRqk9-375" vertex="1">
          <mxGeometry x="162.5" y="160" width="80" height="60" as="geometry" />
        </mxCell>
        <mxCell id="gfKqpitYMT0C_zAYRqk9-364" value="" style="group" parent="gfKqpitYMT0C_zAYRqk9-375" vertex="1" connectable="0">
          <mxGeometry width="405" height="130" as="geometry" />
        </mxCell>
        <mxCell id="gfKqpitYMT0C_zAYRqk9-11" value="Fees" style="rounded=0;whiteSpace=wrap;html=1;fillColor=#D4E1F5;" parent="gfKqpitYMT0C_zAYRqk9-364" vertex="1">
          <mxGeometry x="145" y="100" width="120" height="30" as="geometry" />
        </mxCell>
        <mxCell id="gfKqpitYMT0C_zAYRqk9-212" value="Late_fee_penalty" style="ellipse;whiteSpace=wrap;html=1;" parent="gfKqpitYMT0C_zAYRqk9-364" vertex="1">
          <mxGeometry x="265" y="20" width="120" height="30" as="geometry" />
        </mxCell>
        <mxCell id="gfKqpitYMT0C_zAYRqk9-213" value="Currency" style="ellipse;whiteSpace=wrap;html=1;" parent="gfKqpitYMT0C_zAYRqk9-364" vertex="1">
          <mxGeometry x="185" width="80" height="30" as="geometry" />
        </mxCell>
        <mxCell id="gfKqpitYMT0C_zAYRqk9-214" value="Amount" style="ellipse;whiteSpace=wrap;html=1;" parent="gfKqpitYMT0C_zAYRqk9-364" vertex="1">
          <mxGeometry x="95" width="80" height="30" as="geometry" />
        </mxCell>
        <mxCell id="gfKqpitYMT0C_zAYRqk9-215" value="Desc" style="ellipse;whiteSpace=wrap;html=1;" parent="gfKqpitYMT0C_zAYRqk9-364" vertex="1">
          <mxGeometry x="25" y="40" width="80" height="30" as="geometry" />
        </mxCell>
        <mxCell id="gfKqpitYMT0C_zAYRqk9-216" value="&lt;u&gt;Fees_ID&lt;/u&gt;" style="ellipse;whiteSpace=wrap;html=1;" parent="gfKqpitYMT0C_zAYRqk9-364" vertex="1">
          <mxGeometry y="90" width="80" height="30" as="geometry" />
        </mxCell>
        <mxCell id="gfKqpitYMT0C_zAYRqk9-217" value="T&amp;amp;C" style="ellipse;whiteSpace=wrap;html=1;" parent="gfKqpitYMT0C_zAYRqk9-364" vertex="1">
          <mxGeometry x="325" y="100" width="80" height="30" as="geometry" />
        </mxCell>
        <mxCell id="gfKqpitYMT0C_zAYRqk9-218" value="Fees_status" style="ellipse;whiteSpace=wrap;html=1;" parent="gfKqpitYMT0C_zAYRqk9-364" vertex="1">
          <mxGeometry x="315" y="60" width="80" height="30" as="geometry" />
        </mxCell>
        <mxCell id="gfKqpitYMT0C_zAYRqk9-455" value="" style="endArrow=none;html=1;rounded=0;entryX=0;entryY=0.5;entryDx=0;entryDy=0;exitX=1;exitY=0.5;exitDx=0;exitDy=0;" parent="gfKqpitYMT0C_zAYRqk9-364" source="gfKqpitYMT0C_zAYRqk9-216" target="gfKqpitYMT0C_zAYRqk9-11" edge="1">
          <mxGeometry width="50" height="50" relative="1" as="geometry">
            <mxPoint x="-5" y="250" as="sourcePoint" />
            <mxPoint x="45" y="200" as="targetPoint" />
          </mxGeometry>
        </mxCell>
        <mxCell id="gfKqpitYMT0C_zAYRqk9-458" value="" style="endArrow=none;html=1;rounded=0;entryX=0.265;entryY=0.9;entryDx=0;entryDy=0;entryPerimeter=0;exitX=0.325;exitY=0.059;exitDx=0;exitDy=0;exitPerimeter=0;" parent="gfKqpitYMT0C_zAYRqk9-364" source="gfKqpitYMT0C_zAYRqk9-11" target="gfKqpitYMT0C_zAYRqk9-213" edge="1">
          <mxGeometry width="50" height="50" relative="1" as="geometry">
            <mxPoint x="195" y="90" as="sourcePoint" />
            <mxPoint x="195" y="30" as="targetPoint" />
          </mxGeometry>
        </mxCell>
        <mxCell id="gfKqpitYMT0C_zAYRqk9-459" value="" style="endArrow=none;html=1;rounded=0;exitX=0.5;exitY=0;exitDx=0;exitDy=0;entryX=0;entryY=1;entryDx=0;entryDy=0;" parent="gfKqpitYMT0C_zAYRqk9-364" source="gfKqpitYMT0C_zAYRqk9-11" target="gfKqpitYMT0C_zAYRqk9-212" edge="1">
          <mxGeometry width="50" height="50" relative="1" as="geometry">
            <mxPoint x="145" y="80" as="sourcePoint" />
            <mxPoint x="195" y="30" as="targetPoint" />
          </mxGeometry>
        </mxCell>
        <mxCell id="gfKqpitYMT0C_zAYRqk9-460" value="" style="endArrow=none;html=1;rounded=0;exitX=0.83;exitY=0.014;exitDx=0;exitDy=0;exitPerimeter=0;entryX=0;entryY=0.5;entryDx=0;entryDy=0;" parent="gfKqpitYMT0C_zAYRqk9-364" source="gfKqpitYMT0C_zAYRqk9-11" target="gfKqpitYMT0C_zAYRqk9-218" edge="1">
          <mxGeometry width="50" height="50" relative="1" as="geometry">
            <mxPoint x="145" y="80" as="sourcePoint" />
            <mxPoint x="195" y="30" as="targetPoint" />
          </mxGeometry>
        </mxCell>
        <mxCell id="gfKqpitYMT0C_zAYRqk9-461" value="" style="endArrow=none;html=1;rounded=0;exitX=1;exitY=0.5;exitDx=0;exitDy=0;entryX=0;entryY=0.5;entryDx=0;entryDy=0;" parent="gfKqpitYMT0C_zAYRqk9-364" source="gfKqpitYMT0C_zAYRqk9-11" target="gfKqpitYMT0C_zAYRqk9-217" edge="1">
          <mxGeometry width="50" height="50" relative="1" as="geometry">
            <mxPoint x="145" y="80" as="sourcePoint" />
            <mxPoint x="315" y="110" as="targetPoint" />
          </mxGeometry>
        </mxCell>
        <mxCell id="gfKqpitYMT0C_zAYRqk9-368" value="" style="endArrow=none;html=1;rounded=0;exitX=0.5;exitY=0;exitDx=0;exitDy=0;" parent="gfKqpitYMT0C_zAYRqk9-375" source="gfKqpitYMT0C_zAYRqk9-363" edge="1">
          <mxGeometry width="50" height="50" relative="1" as="geometry">
            <mxPoint x="12.5" y="220" as="sourcePoint" />
            <mxPoint x="203" y="130" as="targetPoint" />
          </mxGeometry>
        </mxCell>
        <mxCell id="gfKqpitYMT0C_zAYRqk9-644" value="&lt;b&gt;1&lt;/b&gt;" style="text;html=1;strokeColor=none;fillColor=none;align=center;verticalAlign=middle;whiteSpace=wrap;rounded=0;" parent="gfKqpitYMT0C_zAYRqk9-375" vertex="1">
          <mxGeometry x="205" y="130" width="35" height="20" as="geometry" />
        </mxCell>
        <mxCell id="gfKqpitYMT0C_zAYRqk9-376" value="" style="group" parent="1" vertex="1" connectable="0">
          <mxGeometry x="-17.5" y="605" width="375" height="200" as="geometry" />
        </mxCell>
        <mxCell id="gfKqpitYMT0C_zAYRqk9-319" value="" style="group" parent="gfKqpitYMT0C_zAYRqk9-376" vertex="1" connectable="0">
          <mxGeometry width="375" height="147.5" as="geometry" />
        </mxCell>
        <mxCell id="gfKqpitYMT0C_zAYRqk9-22" value="Research_centre" style="rounded=0;whiteSpace=wrap;html=1;fillColor=#D4E1F5;" parent="gfKqpitYMT0C_zAYRqk9-319" vertex="1">
          <mxGeometry x="105" y="87.5" width="120" height="30" as="geometry" />
        </mxCell>
        <mxCell id="gfKqpitYMT0C_zAYRqk9-150" value="Timeline" style="ellipse;whiteSpace=wrap;html=1;" parent="gfKqpitYMT0C_zAYRqk9-319" vertex="1">
          <mxGeometry x="245" y="20" width="80" height="30" as="geometry" />
        </mxCell>
        <mxCell id="gfKqpitYMT0C_zAYRqk9-151" value="Objective" style="ellipse;whiteSpace=wrap;html=1;" parent="gfKqpitYMT0C_zAYRqk9-319" vertex="1">
          <mxGeometry x="165" width="80" height="30" as="geometry" />
        </mxCell>
        <mxCell id="gfKqpitYMT0C_zAYRqk9-152" value="Research_area" style="ellipse;whiteSpace=wrap;html=1;" parent="gfKqpitYMT0C_zAYRqk9-319" vertex="1">
          <mxGeometry x="65" y="10" width="100" height="30" as="geometry" />
        </mxCell>
        <mxCell id="gfKqpitYMT0C_zAYRqk9-153" value="Title" style="ellipse;whiteSpace=wrap;html=1;" parent="gfKqpitYMT0C_zAYRqk9-319" vertex="1">
          <mxGeometry x="15" y="50" width="80" height="30" as="geometry" />
        </mxCell>
        <mxCell id="gfKqpitYMT0C_zAYRqk9-154" value="&lt;u&gt;Res_ID&lt;/u&gt;" style="ellipse;whiteSpace=wrap;html=1;" parent="gfKqpitYMT0C_zAYRqk9-319" vertex="1">
          <mxGeometry y="87.5" width="80" height="30" as="geometry" />
        </mxCell>
        <mxCell id="gfKqpitYMT0C_zAYRqk9-155" value="Outcome" style="ellipse;whiteSpace=wrap;html=1;" parent="gfKqpitYMT0C_zAYRqk9-319" vertex="1">
          <mxGeometry x="295" y="50" width="80" height="30" as="geometry" />
        </mxCell>
        <mxCell id="gfKqpitYMT0C_zAYRqk9-156" value="Budget" style="ellipse;whiteSpace=wrap;html=1;" parent="gfKqpitYMT0C_zAYRqk9-319" vertex="1">
          <mxGeometry x="285" y="87.5" width="80" height="30" as="geometry" />
        </mxCell>
        <mxCell id="gfKqpitYMT0C_zAYRqk9-539" value="" style="endArrow=none;html=1;rounded=0;exitX=1;exitY=0.5;exitDx=0;exitDy=0;entryX=0;entryY=0.5;entryDx=0;entryDy=0;" parent="gfKqpitYMT0C_zAYRqk9-319" source="gfKqpitYMT0C_zAYRqk9-154" target="gfKqpitYMT0C_zAYRqk9-22" edge="1">
          <mxGeometry width="50" height="50" relative="1" as="geometry">
            <mxPoint x="397.5" y="65" as="sourcePoint" />
            <mxPoint x="447.5" y="15" as="targetPoint" />
          </mxGeometry>
        </mxCell>
        <mxCell id="gfKqpitYMT0C_zAYRqk9-540" value="" style="endArrow=none;html=1;rounded=0;exitX=1;exitY=1;exitDx=0;exitDy=0;entryX=0;entryY=0;entryDx=0;entryDy=0;" parent="gfKqpitYMT0C_zAYRqk9-319" source="gfKqpitYMT0C_zAYRqk9-153" target="gfKqpitYMT0C_zAYRqk9-22" edge="1">
          <mxGeometry width="50" height="50" relative="1" as="geometry">
            <mxPoint x="247.5" y="95" as="sourcePoint" />
            <mxPoint x="107.5" y="85" as="targetPoint" />
          </mxGeometry>
        </mxCell>
        <mxCell id="gfKqpitYMT0C_zAYRqk9-541" value="" style="endArrow=none;html=1;rounded=0;exitX=0.5;exitY=1;exitDx=0;exitDy=0;entryX=0.181;entryY=0.029;entryDx=0;entryDy=0;entryPerimeter=0;" parent="gfKqpitYMT0C_zAYRqk9-319" source="gfKqpitYMT0C_zAYRqk9-152" target="gfKqpitYMT0C_zAYRqk9-22" edge="1">
          <mxGeometry width="50" height="50" relative="1" as="geometry">
            <mxPoint x="247.5" y="95" as="sourcePoint" />
            <mxPoint x="297.5" y="45" as="targetPoint" />
          </mxGeometry>
        </mxCell>
        <mxCell id="gfKqpitYMT0C_zAYRqk9-542" value="" style="endArrow=none;html=1;rounded=0;exitX=0.384;exitY=0.007;exitDx=0;exitDy=0;exitPerimeter=0;entryX=0.5;entryY=1;entryDx=0;entryDy=0;" parent="gfKqpitYMT0C_zAYRqk9-319" source="gfKqpitYMT0C_zAYRqk9-22" target="gfKqpitYMT0C_zAYRqk9-151" edge="1">
          <mxGeometry width="50" height="50" relative="1" as="geometry">
            <mxPoint x="247.5" y="95" as="sourcePoint" />
            <mxPoint x="297.5" y="45" as="targetPoint" />
          </mxGeometry>
        </mxCell>
        <mxCell id="gfKqpitYMT0C_zAYRqk9-544" value="" style="endArrow=none;html=1;rounded=0;entryX=0;entryY=0.5;entryDx=0;entryDy=0;exitX=0.875;exitY=0.093;exitDx=0;exitDy=0;exitPerimeter=0;" parent="gfKqpitYMT0C_zAYRqk9-319" source="gfKqpitYMT0C_zAYRqk9-22" target="gfKqpitYMT0C_zAYRqk9-155" edge="1">
          <mxGeometry width="50" height="50" relative="1" as="geometry">
            <mxPoint x="217.5" y="85" as="sourcePoint" />
            <mxPoint x="297.5" y="45" as="targetPoint" />
          </mxGeometry>
        </mxCell>
        <mxCell id="gfKqpitYMT0C_zAYRqk9-543" value="" style="endArrow=none;html=1;rounded=0;entryX=0;entryY=1;entryDx=0;entryDy=0;exitX=0.656;exitY=0.071;exitDx=0;exitDy=0;exitPerimeter=0;" parent="gfKqpitYMT0C_zAYRqk9-319" source="gfKqpitYMT0C_zAYRqk9-22" target="gfKqpitYMT0C_zAYRqk9-150" edge="1">
          <mxGeometry width="50" height="50" relative="1" as="geometry">
            <mxPoint x="187.5" y="85" as="sourcePoint" />
            <mxPoint x="297.5" y="45" as="targetPoint" />
          </mxGeometry>
        </mxCell>
        <mxCell id="gfKqpitYMT0C_zAYRqk9-545" value="" style="endArrow=none;html=1;rounded=0;exitX=1;exitY=0.5;exitDx=0;exitDy=0;entryX=0;entryY=0.5;entryDx=0;entryDy=0;" parent="gfKqpitYMT0C_zAYRqk9-319" source="gfKqpitYMT0C_zAYRqk9-22" target="gfKqpitYMT0C_zAYRqk9-156" edge="1">
          <mxGeometry width="50" height="50" relative="1" as="geometry">
            <mxPoint x="247.5" y="95" as="sourcePoint" />
            <mxPoint x="297.5" y="45" as="targetPoint" />
          </mxGeometry>
        </mxCell>
        <mxCell id="gfKqpitYMT0C_zAYRqk9-580" value="&lt;b&gt;N&lt;/b&gt;" style="text;html=1;strokeColor=none;fillColor=none;align=center;verticalAlign=middle;whiteSpace=wrap;rounded=0;" parent="gfKqpitYMT0C_zAYRqk9-319" vertex="1">
          <mxGeometry x="117.5" y="117.5" width="60" height="30" as="geometry" />
        </mxCell>
        <mxCell id="gfKqpitYMT0C_zAYRqk9-378" value="" style="endArrow=none;html=1;rounded=0;entryX=0.118;entryY=0.98;entryDx=0;entryDy=0;entryPerimeter=0;" parent="1" target="gfKqpitYMT0C_zAYRqk9-4" edge="1">
          <mxGeometry width="50" height="50" relative="1" as="geometry">
            <mxPoint x="-200" y="770" as="sourcePoint" />
            <mxPoint x="120" y="610" as="targetPoint" />
          </mxGeometry>
        </mxCell>
        <mxCell id="gfKqpitYMT0C_zAYRqk9-379" value="have" style="rhombus;whiteSpace=wrap;html=1;fillColor=#FFB366;" parent="1" vertex="1">
          <mxGeometry x="-200" y="740" width="80" height="60" as="geometry" />
        </mxCell>
        <mxCell id="gfKqpitYMT0C_zAYRqk9-380" value="" style="endArrow=none;html=1;rounded=0;exitX=1;exitY=0.5;exitDx=0;exitDy=0;" parent="1" source="gfKqpitYMT0C_zAYRqk9-379" edge="1">
          <mxGeometry width="50" height="50" relative="1" as="geometry">
            <mxPoint x="160" y="660" as="sourcePoint" />
            <mxPoint x="150" y="720" as="targetPoint" />
            <Array as="points">
              <mxPoint x="150" y="770" />
            </Array>
          </mxGeometry>
        </mxCell>
        <mxCell id="gfKqpitYMT0C_zAYRqk9-381" value="" style="group" parent="1" vertex="1" connectable="0">
          <mxGeometry x="-590" y="540" width="380" height="130" as="geometry" />
        </mxCell>
        <mxCell id="gfKqpitYMT0C_zAYRqk9-9" value="Library" style="rounded=0;whiteSpace=wrap;html=1;fillColor=#D4E1F5;" parent="gfKqpitYMT0C_zAYRqk9-381" vertex="1">
          <mxGeometry x="130" y="100" width="120" height="30" as="geometry" />
        </mxCell>
        <mxCell id="gfKqpitYMT0C_zAYRqk9-188" value="Address" style="ellipse;whiteSpace=wrap;html=1;" parent="gfKqpitYMT0C_zAYRqk9-381" vertex="1">
          <mxGeometry x="170" width="80" height="30" as="geometry" />
        </mxCell>
        <mxCell id="gfKqpitYMT0C_zAYRqk9-189" value="ContactInfo" style="ellipse;whiteSpace=wrap;html=1;" parent="gfKqpitYMT0C_zAYRqk9-381" vertex="1">
          <mxGeometry x="80" y="10" width="80" height="30" as="geometry" />
        </mxCell>
        <mxCell id="gfKqpitYMT0C_zAYRqk9-190" value="name" style="ellipse;whiteSpace=wrap;html=1;" parent="gfKqpitYMT0C_zAYRqk9-381" vertex="1">
          <mxGeometry x="10" y="40" width="80" height="30" as="geometry" />
        </mxCell>
        <mxCell id="gfKqpitYMT0C_zAYRqk9-191" value="&lt;u&gt;Lib_ID&lt;/u&gt;" style="ellipse;whiteSpace=wrap;html=1;" parent="gfKqpitYMT0C_zAYRqk9-381" vertex="1">
          <mxGeometry y="90" width="80" height="30" as="geometry" />
        </mxCell>
        <mxCell id="gfKqpitYMT0C_zAYRqk9-193" value="Collections" style="ellipse;whiteSpace=wrap;html=1;" parent="gfKqpitYMT0C_zAYRqk9-381" vertex="1">
          <mxGeometry x="300" y="60" width="80" height="30" as="geometry" />
        </mxCell>
        <mxCell id="gfKqpitYMT0C_zAYRqk9-194" value="Facilities" style="ellipse;whiteSpace=wrap;html=1;" parent="gfKqpitYMT0C_zAYRqk9-381" vertex="1">
          <mxGeometry x="255" y="10" width="80" height="30" as="geometry" />
        </mxCell>
        <mxCell id="gfKqpitYMT0C_zAYRqk9-195" value="Capacity" style="ellipse;whiteSpace=wrap;html=1;" parent="gfKqpitYMT0C_zAYRqk9-381" vertex="1">
          <mxGeometry x="290" y="100" width="80" height="30" as="geometry" />
        </mxCell>
        <mxCell id="gfKqpitYMT0C_zAYRqk9-531" value="" style="endArrow=none;html=1;rounded=0;exitX=1;exitY=1;exitDx=0;exitDy=0;entryX=0;entryY=0.5;entryDx=0;entryDy=0;" parent="gfKqpitYMT0C_zAYRqk9-381" source="gfKqpitYMT0C_zAYRqk9-191" target="gfKqpitYMT0C_zAYRqk9-9" edge="1">
          <mxGeometry width="50" height="50" relative="1" as="geometry">
            <mxPoint x="270" y="170" as="sourcePoint" />
            <mxPoint x="320" y="120" as="targetPoint" />
          </mxGeometry>
        </mxCell>
        <mxCell id="gfKqpitYMT0C_zAYRqk9-532" value="" style="endArrow=none;html=1;rounded=0;exitX=1;exitY=1;exitDx=0;exitDy=0;entryX=0;entryY=0;entryDx=0;entryDy=0;" parent="gfKqpitYMT0C_zAYRqk9-381" source="gfKqpitYMT0C_zAYRqk9-190" target="gfKqpitYMT0C_zAYRqk9-9" edge="1">
          <mxGeometry width="50" height="50" relative="1" as="geometry">
            <mxPoint x="270" y="170" as="sourcePoint" />
            <mxPoint x="320" y="120" as="targetPoint" />
          </mxGeometry>
        </mxCell>
        <mxCell id="gfKqpitYMT0C_zAYRqk9-534" value="" style="endArrow=none;html=1;rounded=0;exitX=0.5;exitY=1;exitDx=0;exitDy=0;entryX=0.25;entryY=0;entryDx=0;entryDy=0;" parent="gfKqpitYMT0C_zAYRqk9-381" source="gfKqpitYMT0C_zAYRqk9-189" target="gfKqpitYMT0C_zAYRqk9-9" edge="1">
          <mxGeometry width="50" height="50" relative="1" as="geometry">
            <mxPoint x="270" y="170" as="sourcePoint" />
            <mxPoint x="320" y="120" as="targetPoint" />
          </mxGeometry>
        </mxCell>
        <mxCell id="gfKqpitYMT0C_zAYRqk9-536" value="" style="endArrow=none;html=1;rounded=0;exitX=0.75;exitY=0;exitDx=0;exitDy=0;entryX=0;entryY=1;entryDx=0;entryDy=0;" parent="gfKqpitYMT0C_zAYRqk9-381" source="gfKqpitYMT0C_zAYRqk9-9" target="gfKqpitYMT0C_zAYRqk9-194" edge="1">
          <mxGeometry width="50" height="50" relative="1" as="geometry">
            <mxPoint x="270" y="170" as="sourcePoint" />
            <mxPoint x="320" y="120" as="targetPoint" />
          </mxGeometry>
        </mxCell>
        <mxCell id="gfKqpitYMT0C_zAYRqk9-537" value="" style="endArrow=none;html=1;rounded=0;exitX=1;exitY=0;exitDx=0;exitDy=0;entryX=0;entryY=1;entryDx=0;entryDy=0;" parent="gfKqpitYMT0C_zAYRqk9-381" source="gfKqpitYMT0C_zAYRqk9-9" target="gfKqpitYMT0C_zAYRqk9-193" edge="1">
          <mxGeometry width="50" height="50" relative="1" as="geometry">
            <mxPoint x="270" y="170" as="sourcePoint" />
            <mxPoint x="320" y="120" as="targetPoint" />
          </mxGeometry>
        </mxCell>
        <mxCell id="gfKqpitYMT0C_zAYRqk9-582" value="&lt;b&gt;N&lt;/b&gt;" style="text;html=1;strokeColor=none;fillColor=none;align=center;verticalAlign=middle;whiteSpace=wrap;rounded=0;" parent="gfKqpitYMT0C_zAYRqk9-381" vertex="1">
          <mxGeometry x="180" y="70" width="60" height="30" as="geometry" />
        </mxCell>
        <mxCell id="gfKqpitYMT0C_zAYRqk9-382" value="has" style="rhombus;whiteSpace=wrap;html=1;fillColor=#FFB366;" parent="1" vertex="1">
          <mxGeometry x="-120" y="450" width="80" height="70" as="geometry" />
        </mxCell>
        <mxCell id="gfKqpitYMT0C_zAYRqk9-383" value="" style="endArrow=none;html=1;rounded=0;exitX=0.883;exitY=-0.007;exitDx=0;exitDy=0;exitPerimeter=0;entryX=0;entryY=0.5;entryDx=0;entryDy=0;" parent="1" source="gfKqpitYMT0C_zAYRqk9-9" target="gfKqpitYMT0C_zAYRqk9-382" edge="1">
          <mxGeometry width="50" height="50" relative="1" as="geometry">
            <mxPoint x="-170" y="530" as="sourcePoint" />
            <mxPoint x="-120" y="480" as="targetPoint" />
          </mxGeometry>
        </mxCell>
        <mxCell id="gfKqpitYMT0C_zAYRqk9-384" value="" style="endArrow=none;html=1;rounded=0;entryX=1;entryY=0.5;entryDx=0;entryDy=0;exitX=0;exitY=1;exitDx=0;exitDy=0;" parent="1" source="gfKqpitYMT0C_zAYRqk9-4" target="gfKqpitYMT0C_zAYRqk9-382" edge="1">
          <mxGeometry width="50" height="50" relative="1" as="geometry">
            <mxPoint x="-100" y="510" as="sourcePoint" />
            <mxPoint x="-50" y="460" as="targetPoint" />
          </mxGeometry>
        </mxCell>
        <mxCell id="gfKqpitYMT0C_zAYRqk9-385" value="" style="endArrow=none;html=1;rounded=0;" parent="1" target="gfKqpitYMT0C_zAYRqk9-386" edge="1">
          <mxGeometry width="50" height="50" relative="1" as="geometry">
            <mxPoint x="-160" y="-130" as="sourcePoint" />
            <mxPoint x="-160" y="-250" as="targetPoint" />
          </mxGeometry>
        </mxCell>
        <mxCell id="gfKqpitYMT0C_zAYRqk9-386" value="Apply for" style="rhombus;whiteSpace=wrap;html=1;fillColor=#FFB366;" parent="1" vertex="1">
          <mxGeometry x="-200" y="-300" width="80" height="70" as="geometry" />
        </mxCell>
        <mxCell id="gfKqpitYMT0C_zAYRqk9-387" value="" style="endArrow=none;html=1;rounded=0;entryX=0.5;entryY=0;entryDx=0;entryDy=0;" parent="1" target="gfKqpitYMT0C_zAYRqk9-386" edge="1">
          <mxGeometry width="50" height="50" relative="1" as="geometry">
            <mxPoint x="-160" y="-340" as="sourcePoint" />
            <mxPoint x="-30" y="-260" as="targetPoint" />
          </mxGeometry>
        </mxCell>
        <mxCell id="gfKqpitYMT0C_zAYRqk9-389" value="Earns" style="rhombus;whiteSpace=wrap;html=1;fillColor=#FFB366;" parent="1" vertex="1">
          <mxGeometry x="-400" y="-30" width="80" height="60" as="geometry" />
        </mxCell>
        <mxCell id="gfKqpitYMT0C_zAYRqk9-390" value="" style="endArrow=none;html=1;rounded=0;exitX=1;exitY=0.5;exitDx=0;exitDy=0;" parent="1" source="gfKqpitYMT0C_zAYRqk9-389" edge="1">
          <mxGeometry width="50" height="50" relative="1" as="geometry">
            <mxPoint x="-500" y="-10" as="sourcePoint" />
            <mxPoint x="-190" y="-100" as="targetPoint" />
          </mxGeometry>
        </mxCell>
        <mxCell id="gfKqpitYMT0C_zAYRqk9-391" value="" style="endArrow=none;html=1;rounded=0;entryX=0;entryY=0.5;entryDx=0;entryDy=0;exitX=0.5;exitY=0;exitDx=0;exitDy=0;" parent="1" source="gfKqpitYMT0C_zAYRqk9-20" target="gfKqpitYMT0C_zAYRqk9-389" edge="1">
          <mxGeometry width="50" height="50" relative="1" as="geometry">
            <mxPoint x="-400" y="140" as="sourcePoint" />
            <mxPoint x="-450" y="-60" as="targetPoint" />
          </mxGeometry>
        </mxCell>
        <mxCell id="gfKqpitYMT0C_zAYRqk9-392" value="" style="endArrow=none;html=1;rounded=0;exitX=0;exitY=0;exitDx=0;exitDy=0;entryX=0.798;entryY=0.919;entryDx=0;entryDy=0;entryPerimeter=0;" parent="1" source="gfKqpitYMT0C_zAYRqk9-4" target="gfKqpitYMT0C_zAYRqk9-56" edge="1">
          <mxGeometry width="50" height="50" relative="1" as="geometry">
            <mxPoint x="400" y="440" as="sourcePoint" />
            <mxPoint x="450" y="390" as="targetPoint" />
          </mxGeometry>
        </mxCell>
        <mxCell id="gfKqpitYMT0C_zAYRqk9-393" value="" style="endArrow=none;html=1;rounded=0;exitX=0.182;exitY=-0.017;exitDx=0;exitDy=0;exitPerimeter=0;entryX=0.5;entryY=1;entryDx=0;entryDy=0;" parent="1" source="gfKqpitYMT0C_zAYRqk9-4" target="gfKqpitYMT0C_zAYRqk9-55" edge="1">
          <mxGeometry width="50" height="50" relative="1" as="geometry">
            <mxPoint x="400" y="440" as="sourcePoint" />
            <mxPoint x="450" y="390" as="targetPoint" />
          </mxGeometry>
        </mxCell>
        <mxCell id="gfKqpitYMT0C_zAYRqk9-394" value="" style="endArrow=none;html=1;rounded=0;exitX=0.75;exitY=0;exitDx=0;exitDy=0;entryX=0.5;entryY=1;entryDx=0;entryDy=0;" parent="1" source="gfKqpitYMT0C_zAYRqk9-4" target="gfKqpitYMT0C_zAYRqk9-60" edge="1">
          <mxGeometry width="50" height="50" relative="1" as="geometry">
            <mxPoint x="400" y="440" as="sourcePoint" />
            <mxPoint x="450" y="390" as="targetPoint" />
          </mxGeometry>
        </mxCell>
        <mxCell id="gfKqpitYMT0C_zAYRqk9-409" value="" style="endArrow=none;html=1;rounded=0;exitX=0.777;exitY=0.968;exitDx=0;exitDy=0;exitPerimeter=0;" parent="1" source="gfKqpitYMT0C_zAYRqk9-254" edge="1">
          <mxGeometry width="50" height="50" relative="1" as="geometry">
            <mxPoint x="1420" y="490" as="sourcePoint" />
            <mxPoint x="1480" y="450" as="targetPoint" />
          </mxGeometry>
        </mxCell>
        <mxCell id="gfKqpitYMT0C_zAYRqk9-410" value="" style="endArrow=none;html=1;rounded=0;entryX=0.25;entryY=0;entryDx=0;entryDy=0;" parent="1" target="gfKqpitYMT0C_zAYRqk9-16" edge="1">
          <mxGeometry width="50" height="50" relative="1" as="geometry">
            <mxPoint x="1450" y="300" as="sourcePoint" />
            <mxPoint x="1470" y="440" as="targetPoint" />
          </mxGeometry>
        </mxCell>
        <mxCell id="gfKqpitYMT0C_zAYRqk9-415" value="" style="endArrow=none;html=1;rounded=0;entryX=1;entryY=0.5;entryDx=0;entryDy=0;" parent="1" target="gfKqpitYMT0C_zAYRqk9-16" edge="1">
          <mxGeometry width="50" height="50" relative="1" as="geometry">
            <mxPoint x="1680" y="460" as="sourcePoint" />
            <mxPoint x="1470" y="440" as="targetPoint" />
          </mxGeometry>
        </mxCell>
        <mxCell id="gfKqpitYMT0C_zAYRqk9-417" value="" style="endArrow=none;html=1;rounded=0;entryX=0;entryY=0.5;entryDx=0;entryDy=0;" parent="1" target="gfKqpitYMT0C_zAYRqk9-108" edge="1">
          <mxGeometry width="50" height="50" relative="1" as="geometry">
            <mxPoint x="1170" y="620" as="sourcePoint" />
            <mxPoint x="1330" y="550" as="targetPoint" />
          </mxGeometry>
        </mxCell>
        <mxCell id="gfKqpitYMT0C_zAYRqk9-419" value="" style="endArrow=none;html=1;rounded=0;exitX=0.409;exitY=1.03;exitDx=0;exitDy=0;exitPerimeter=0;" parent="1" source="gfKqpitYMT0C_zAYRqk9-110" edge="1">
          <mxGeometry width="50" height="50" relative="1" as="geometry">
            <mxPoint x="1280" y="600" as="sourcePoint" />
            <mxPoint x="1123" y="620" as="targetPoint" />
          </mxGeometry>
        </mxCell>
        <mxCell id="gfKqpitYMT0C_zAYRqk9-420" value="" style="endArrow=none;html=1;rounded=0;exitX=0.5;exitY=1;exitDx=0;exitDy=0;" parent="1" source="gfKqpitYMT0C_zAYRqk9-111" edge="1">
          <mxGeometry width="50" height="50" relative="1" as="geometry">
            <mxPoint x="1280" y="600" as="sourcePoint" />
            <mxPoint x="1100" y="620" as="targetPoint" />
          </mxGeometry>
        </mxCell>
        <mxCell id="gfKqpitYMT0C_zAYRqk9-430" value="" style="endArrow=none;html=1;rounded=0;exitX=0.25;exitY=0;exitDx=0;exitDy=0;" parent="1" source="gfKqpitYMT0C_zAYRqk9-15" edge="1">
          <mxGeometry width="50" height="50" relative="1" as="geometry">
            <mxPoint x="940" y="160" as="sourcePoint" />
            <mxPoint x="990" y="110" as="targetPoint" />
          </mxGeometry>
        </mxCell>
        <mxCell id="gfKqpitYMT0C_zAYRqk9-438" value="" style="endArrow=none;html=1;rounded=0;entryX=1;entryY=1;entryDx=0;entryDy=0;" parent="1" target="gfKqpitYMT0C_zAYRqk9-199" edge="1">
          <mxGeometry width="50" height="50" relative="1" as="geometry">
            <mxPoint x="1530" y="-170" as="sourcePoint" />
            <mxPoint x="1440" y="-220" as="targetPoint" />
          </mxGeometry>
        </mxCell>
        <mxCell id="gfKqpitYMT0C_zAYRqk9-439" value="" style="endArrow=none;html=1;rounded=0;exitX=0.689;exitY=1.005;exitDx=0;exitDy=0;exitPerimeter=0;" parent="1" source="gfKqpitYMT0C_zAYRqk9-198" edge="1">
          <mxGeometry width="50" height="50" relative="1" as="geometry">
            <mxPoint x="1390" y="-170" as="sourcePoint" />
            <mxPoint x="1550" y="-170" as="targetPoint" />
          </mxGeometry>
        </mxCell>
        <mxCell id="gfKqpitYMT0C_zAYRqk9-440" value="" style="endArrow=none;html=1;rounded=0;" parent="1" edge="1">
          <mxGeometry width="50" height="50" relative="1" as="geometry">
            <mxPoint x="1560" y="-170" as="sourcePoint" />
            <mxPoint x="1510" y="-300" as="targetPoint" />
          </mxGeometry>
        </mxCell>
        <mxCell id="gfKqpitYMT0C_zAYRqk9-441" value="" style="endArrow=none;html=1;rounded=0;entryX=0.5;entryY=1;entryDx=0;entryDy=0;" parent="1" target="gfKqpitYMT0C_zAYRqk9-204" edge="1">
          <mxGeometry width="50" height="50" relative="1" as="geometry">
            <mxPoint x="1580" y="-170" as="sourcePoint" />
            <mxPoint x="1560" y="-260" as="targetPoint" />
          </mxGeometry>
        </mxCell>
        <mxCell id="gfKqpitYMT0C_zAYRqk9-442" value="" style="endArrow=none;html=1;rounded=0;" parent="1" edge="1">
          <mxGeometry width="50" height="50" relative="1" as="geometry">
            <mxPoint x="1610" y="-170" as="sourcePoint" />
            <mxPoint x="1660" y="-290" as="targetPoint" />
          </mxGeometry>
        </mxCell>
        <mxCell id="gfKqpitYMT0C_zAYRqk9-443" value="" style="endArrow=none;html=1;rounded=0;entryX=0.233;entryY=0.948;entryDx=0;entryDy=0;entryPerimeter=0;" parent="1" target="gfKqpitYMT0C_zAYRqk9-202" edge="1">
          <mxGeometry width="50" height="50" relative="1" as="geometry">
            <mxPoint x="1620" y="-170" as="sourcePoint" />
            <mxPoint x="1560" y="-260" as="targetPoint" />
          </mxGeometry>
        </mxCell>
        <mxCell id="gfKqpitYMT0C_zAYRqk9-450" value="" style="endArrow=none;html=1;rounded=0;" parent="1" edge="1">
          <mxGeometry width="50" height="50" relative="1" as="geometry">
            <mxPoint x="1080" y="-330" as="sourcePoint" />
            <mxPoint x="1110" y="-240" as="targetPoint" />
          </mxGeometry>
        </mxCell>
        <mxCell id="gfKqpitYMT0C_zAYRqk9-451" value="" style="endArrow=none;html=1;rounded=0;" parent="1" edge="1">
          <mxGeometry width="50" height="50" relative="1" as="geometry">
            <mxPoint x="1140" y="-240" as="sourcePoint" />
            <mxPoint x="1170" y="-320" as="targetPoint" />
          </mxGeometry>
        </mxCell>
        <mxCell id="gfKqpitYMT0C_zAYRqk9-452" value="" style="endArrow=none;html=1;rounded=0;entryX=0.282;entryY=0.918;entryDx=0;entryDy=0;entryPerimeter=0;" parent="1" target="gfKqpitYMT0C_zAYRqk9-184" edge="1">
          <mxGeometry width="50" height="50" relative="1" as="geometry">
            <mxPoint x="1160" y="-240" as="sourcePoint" />
            <mxPoint x="1210" y="-280" as="targetPoint" />
          </mxGeometry>
        </mxCell>
        <mxCell id="gfKqpitYMT0C_zAYRqk9-456" value="" style="endArrow=none;html=1;rounded=0;entryX=1;entryY=1;entryDx=0;entryDy=0;" parent="1" target="gfKqpitYMT0C_zAYRqk9-215" edge="1">
          <mxGeometry width="50" height="50" relative="1" as="geometry">
            <mxPoint x="1060" y="-520" as="sourcePoint" />
            <mxPoint x="1110" y="-590" as="targetPoint" />
          </mxGeometry>
        </mxCell>
        <mxCell id="gfKqpitYMT0C_zAYRqk9-457" value="" style="endArrow=none;html=1;rounded=0;entryX=0.64;entryY=0.967;entryDx=0;entryDy=0;entryPerimeter=0;" parent="1" target="gfKqpitYMT0C_zAYRqk9-214" edge="1">
          <mxGeometry width="50" height="50" relative="1" as="geometry">
            <mxPoint x="1080" y="-520" as="sourcePoint" />
            <mxPoint x="1110" y="-590" as="targetPoint" />
          </mxGeometry>
        </mxCell>
        <mxCell id="gfKqpitYMT0C_zAYRqk9-464" value="" style="endArrow=none;html=1;rounded=0;exitX=0.756;exitY=0.956;exitDx=0;exitDy=0;exitPerimeter=0;" parent="1" source="gfKqpitYMT0C_zAYRqk9-86" edge="1">
          <mxGeometry width="50" height="50" relative="1" as="geometry">
            <mxPoint x="560" y="-20" as="sourcePoint" />
            <mxPoint x="630" y="-10" as="targetPoint" />
          </mxGeometry>
        </mxCell>
        <mxCell id="gfKqpitYMT0C_zAYRqk9-487" value="" style="endArrow=none;html=1;rounded=0;exitX=0.409;exitY=1.001;exitDx=0;exitDy=0;exitPerimeter=0;" parent="1" source="gfKqpitYMT0C_zAYRqk9-119" edge="1">
          <mxGeometry width="50" height="50" relative="1" as="geometry">
            <mxPoint x="170" y="-210" as="sourcePoint" />
            <mxPoint x="170" y="-250" as="targetPoint" />
          </mxGeometry>
        </mxCell>
        <mxCell id="gfKqpitYMT0C_zAYRqk9-488" value="" style="endArrow=none;html=1;rounded=0;exitX=0.231;exitY=0.939;exitDx=0;exitDy=0;exitPerimeter=0;" parent="1" source="gfKqpitYMT0C_zAYRqk9-120" edge="1">
          <mxGeometry width="50" height="50" relative="1" as="geometry">
            <mxPoint x="170" y="-210" as="sourcePoint" />
            <mxPoint x="190" y="-250" as="targetPoint" />
          </mxGeometry>
        </mxCell>
        <mxCell id="gfKqpitYMT0C_zAYRqk9-491" value="" style="endArrow=none;html=1;rounded=0;entryX=1;entryY=0.25;entryDx=0;entryDy=0;" parent="1" target="gfKqpitYMT0C_zAYRqk9-19" edge="1">
          <mxGeometry width="50" height="50" relative="1" as="geometry">
            <mxPoint x="310" y="-240" as="sourcePoint" />
            <mxPoint x="220" y="-260" as="targetPoint" />
          </mxGeometry>
        </mxCell>
        <mxCell id="gfKqpitYMT0C_zAYRqk9-492" value="" style="endArrow=none;html=1;rounded=0;exitX=1;exitY=0.5;exitDx=0;exitDy=0;" parent="1" source="gfKqpitYMT0C_zAYRqk9-162" edge="1">
          <mxGeometry width="50" height="50" relative="1" as="geometry">
            <mxPoint x="-310" y="-340" as="sourcePoint" />
            <mxPoint x="-220" y="-360" as="targetPoint" />
          </mxGeometry>
        </mxCell>
        <mxCell id="gfKqpitYMT0C_zAYRqk9-503" value="" style="endArrow=none;html=1;rounded=0;exitX=1;exitY=1;exitDx=0;exitDy=0;" parent="1" source="gfKqpitYMT0C_zAYRqk9-143" edge="1">
          <mxGeometry width="50" height="50" relative="1" as="geometry">
            <mxPoint x="-110" y="60" as="sourcePoint" />
            <mxPoint x="-210" y="-130" as="targetPoint" />
          </mxGeometry>
        </mxCell>
        <mxCell id="gfKqpitYMT0C_zAYRqk9-504" value="" style="endArrow=none;html=1;rounded=0;entryX=0.25;entryY=0;entryDx=0;entryDy=0;" parent="1" target="gfKqpitYMT0C_zAYRqk9-21" edge="1">
          <mxGeometry width="50" height="50" relative="1" as="geometry">
            <mxPoint x="-200" y="-180" as="sourcePoint" />
            <mxPoint x="-60" y="10" as="targetPoint" />
          </mxGeometry>
        </mxCell>
        <mxCell id="gfKqpitYMT0C_zAYRqk9-510" value="" style="endArrow=none;html=1;rounded=0;exitX=0.5;exitY=1;exitDx=0;exitDy=0;" parent="1" source="gfKqpitYMT0C_zAYRqk9-132" edge="1">
          <mxGeometry width="50" height="50" relative="1" as="geometry">
            <mxPoint x="-160" y="380" as="sourcePoint" />
            <mxPoint x="-460" y="170" as="targetPoint" />
          </mxGeometry>
        </mxCell>
        <mxCell id="gfKqpitYMT0C_zAYRqk9-513" value="" style="endArrow=none;html=1;rounded=0;" parent="1" edge="1">
          <mxGeometry width="50" height="50" relative="1" as="geometry">
            <mxPoint x="-450" y="100" as="sourcePoint" />
            <mxPoint x="-440" y="150" as="targetPoint" />
          </mxGeometry>
        </mxCell>
        <mxCell id="gfKqpitYMT0C_zAYRqk9-525" value="" style="endArrow=none;html=1;rounded=0;exitX=1;exitY=0.5;exitDx=0;exitDy=0;" parent="1" source="gfKqpitYMT0C_zAYRqk9-272" edge="1">
          <mxGeometry width="50" height="50" relative="1" as="geometry">
            <mxPoint x="-520" y="410" as="sourcePoint" />
            <mxPoint x="-500" y="396" as="targetPoint" />
          </mxGeometry>
        </mxCell>
        <mxCell id="gfKqpitYMT0C_zAYRqk9-535" value="" style="endArrow=none;html=1;rounded=0;entryX=0.5;entryY=0;entryDx=0;entryDy=0;" parent="1" target="gfKqpitYMT0C_zAYRqk9-9" edge="1">
          <mxGeometry width="50" height="50" relative="1" as="geometry">
            <mxPoint x="-380" y="570" as="sourcePoint" />
            <mxPoint x="-270" y="660" as="targetPoint" />
          </mxGeometry>
        </mxCell>
        <mxCell id="gfKqpitYMT0C_zAYRqk9-538" value="" style="endArrow=none;html=1;rounded=0;" parent="1" edge="1">
          <mxGeometry width="50" height="50" relative="1" as="geometry">
            <mxPoint x="-340" y="660" as="sourcePoint" />
            <mxPoint x="-300" y="660" as="targetPoint" />
          </mxGeometry>
        </mxCell>
        <mxCell id="gfKqpitYMT0C_zAYRqk9-549" value="" style="endArrow=none;html=1;rounded=0;exitX=1;exitY=1;exitDx=0;exitDy=0;entryX=0;entryY=0.5;entryDx=0;entryDy=0;" parent="1" source="gfKqpitYMT0C_zAYRqk9-31" target="gfKqpitYMT0C_zAYRqk9-2" edge="1">
          <mxGeometry width="50" height="50" relative="1" as="geometry">
            <mxPoint x="360" y="590" as="sourcePoint" />
            <mxPoint x="410" y="540" as="targetPoint" />
          </mxGeometry>
        </mxCell>
        <mxCell id="gfKqpitYMT0C_zAYRqk9-550" value="" style="endArrow=none;html=1;rounded=0;exitX=1;exitY=1;exitDx=0;exitDy=0;entryX=0;entryY=0;entryDx=0;entryDy=0;" parent="1" source="gfKqpitYMT0C_zAYRqk9-32" target="gfKqpitYMT0C_zAYRqk9-2" edge="1">
          <mxGeometry width="50" height="50" relative="1" as="geometry">
            <mxPoint x="320" y="600" as="sourcePoint" />
            <mxPoint x="370" y="550" as="targetPoint" />
          </mxGeometry>
        </mxCell>
        <mxCell id="gfKqpitYMT0C_zAYRqk9-551" value="" style="endArrow=none;html=1;rounded=0;exitX=0.647;exitY=1.016;exitDx=0;exitDy=0;exitPerimeter=0;entryX=0.25;entryY=0;entryDx=0;entryDy=0;" parent="1" source="gfKqpitYMT0C_zAYRqk9-34" target="gfKqpitYMT0C_zAYRqk9-2" edge="1">
          <mxGeometry width="50" height="50" relative="1" as="geometry">
            <mxPoint x="320" y="600" as="sourcePoint" />
            <mxPoint x="370" y="550" as="targetPoint" />
          </mxGeometry>
        </mxCell>
        <mxCell id="gfKqpitYMT0C_zAYRqk9-552" value="" style="endArrow=none;html=1;rounded=0;exitX=0.5;exitY=1;exitDx=0;exitDy=0;entryX=0.75;entryY=0;entryDx=0;entryDy=0;" parent="1" source="gfKqpitYMT0C_zAYRqk9-36" target="gfKqpitYMT0C_zAYRqk9-2" edge="1">
          <mxGeometry width="50" height="50" relative="1" as="geometry">
            <mxPoint x="320" y="600" as="sourcePoint" />
            <mxPoint x="370" y="550" as="targetPoint" />
          </mxGeometry>
        </mxCell>
        <mxCell id="gfKqpitYMT0C_zAYRqk9-553" value="" style="endArrow=none;html=1;rounded=0;exitX=1;exitY=0;exitDx=0;exitDy=0;entryX=0.212;entryY=0.94;entryDx=0;entryDy=0;entryPerimeter=0;" parent="1" source="gfKqpitYMT0C_zAYRqk9-2" target="gfKqpitYMT0C_zAYRqk9-37" edge="1">
          <mxGeometry width="50" height="50" relative="1" as="geometry">
            <mxPoint x="320" y="600" as="sourcePoint" />
            <mxPoint x="370" y="550" as="targetPoint" />
          </mxGeometry>
        </mxCell>
        <mxCell id="gfKqpitYMT0C_zAYRqk9-554" value="" style="endArrow=none;html=1;rounded=0;exitX=1;exitY=0.5;exitDx=0;exitDy=0;entryX=0.294;entryY=0.959;entryDx=0;entryDy=0;entryPerimeter=0;" parent="1" source="gfKqpitYMT0C_zAYRqk9-2" target="gfKqpitYMT0C_zAYRqk9-33" edge="1">
          <mxGeometry width="50" height="50" relative="1" as="geometry">
            <mxPoint x="320" y="600" as="sourcePoint" />
            <mxPoint x="370" y="550" as="targetPoint" />
          </mxGeometry>
        </mxCell>
        <mxCell id="gfKqpitYMT0C_zAYRqk9-555" value="" style="endArrow=none;html=1;rounded=0;exitX=0;exitY=0.5;exitDx=0;exitDy=0;entryX=1;entryY=0.75;entryDx=0;entryDy=0;" parent="1" source="gfKqpitYMT0C_zAYRqk9-38" target="gfKqpitYMT0C_zAYRqk9-2" edge="1">
          <mxGeometry width="50" height="50" relative="1" as="geometry">
            <mxPoint x="320" y="600" as="sourcePoint" />
            <mxPoint x="370" y="550" as="targetPoint" />
          </mxGeometry>
        </mxCell>
        <mxCell id="gfKqpitYMT0C_zAYRqk9-557" value="" style="endArrow=none;html=1;rounded=0;entryX=1;entryY=1;entryDx=0;entryDy=0;" parent="1" target="gfKqpitYMT0C_zAYRqk9-224" edge="1">
          <mxGeometry width="50" height="50" relative="1" as="geometry">
            <mxPoint x="560" y="810" as="sourcePoint" />
            <mxPoint x="490" y="660" as="targetPoint" />
          </mxGeometry>
        </mxCell>
        <mxCell id="gfKqpitYMT0C_zAYRqk9-567" value="&lt;b&gt;1&lt;/b&gt;" style="text;html=1;strokeColor=none;fillColor=none;align=center;verticalAlign=middle;whiteSpace=wrap;rounded=0;" parent="1" vertex="1">
          <mxGeometry x="390" y="560" width="35" height="20" as="geometry" />
        </mxCell>
        <mxCell id="gfKqpitYMT0C_zAYRqk9-570" value="&lt;b&gt;N&lt;/b&gt;" style="text;html=1;strokeColor=none;fillColor=none;align=center;verticalAlign=middle;whiteSpace=wrap;rounded=0;" parent="1" vertex="1">
          <mxGeometry x="377.5" y="380" width="60" height="30" as="geometry" />
        </mxCell>
        <mxCell id="gfKqpitYMT0C_zAYRqk9-571" value="&lt;b&gt;1&lt;/b&gt;" style="text;html=1;strokeColor=none;fillColor=none;align=center;verticalAlign=middle;whiteSpace=wrap;rounded=0;" parent="1" vertex="1">
          <mxGeometry x="385" y="330" width="35" height="20" as="geometry" />
        </mxCell>
        <mxCell id="gfKqpitYMT0C_zAYRqk9-575" value="&lt;b&gt;1&lt;/b&gt;" style="text;html=1;strokeColor=none;fillColor=none;align=center;verticalAlign=middle;whiteSpace=wrap;rounded=0;" parent="1" vertex="1">
          <mxGeometry x="1440" y="480" width="35" height="20" as="geometry" />
        </mxCell>
        <mxCell id="gfKqpitYMT0C_zAYRqk9-581" value="&lt;b&gt;1&lt;/b&gt;" style="text;html=1;strokeColor=none;fillColor=none;align=center;verticalAlign=middle;whiteSpace=wrap;rounded=0;" parent="1" vertex="1">
          <mxGeometry x="270" y="360" width="35" height="20" as="geometry" />
        </mxCell>
        <mxCell id="gfKqpitYMT0C_zAYRqk9-584" value="&lt;b&gt;N&lt;/b&gt;" style="text;html=1;strokeColor=none;fillColor=none;align=center;verticalAlign=middle;whiteSpace=wrap;rounded=0;" parent="1" vertex="1">
          <mxGeometry x="-440" y="410" width="60" height="30" as="geometry" />
        </mxCell>
        <mxCell id="gfKqpitYMT0C_zAYRqk9-585" value="&lt;b&gt;N&lt;/b&gt;" style="text;html=1;strokeColor=none;fillColor=none;align=center;verticalAlign=middle;whiteSpace=wrap;rounded=0;" parent="1" vertex="1">
          <mxGeometry x="-110" y="315" width="60" height="30" as="geometry" />
        </mxCell>
        <mxCell id="gfKqpitYMT0C_zAYRqk9-596" value="" style="endArrow=none;html=1;rounded=0;exitX=0.412;exitY=0.074;exitDx=0;exitDy=0;exitPerimeter=0;" parent="1" source="gfKqpitYMT0C_zAYRqk9-329" edge="1">
          <mxGeometry width="50" height="50" relative="1" as="geometry">
            <mxPoint x="630" y="-150" as="sourcePoint" />
            <mxPoint x="653" y="-360" as="targetPoint" />
          </mxGeometry>
        </mxCell>
        <mxCell id="gfKqpitYMT0C_zAYRqk9-599" value="&lt;b&gt;1&lt;/b&gt;" style="text;html=1;strokeColor=none;fillColor=none;align=center;verticalAlign=middle;whiteSpace=wrap;rounded=0;" parent="1" vertex="1">
          <mxGeometry x="210" y="-220" width="35" height="20" as="geometry" />
        </mxCell>
        <mxCell id="gfKqpitYMT0C_zAYRqk9-622" value="&lt;b&gt;1&lt;/b&gt;" style="text;html=1;strokeColor=none;fillColor=none;align=center;verticalAlign=middle;whiteSpace=wrap;rounded=0;" parent="1" vertex="1">
          <mxGeometry x="-165" y="-330" width="35" height="20" as="geometry" />
        </mxCell>
        <mxCell id="gfKqpitYMT0C_zAYRqk9-626" value="FirstName" style="ellipse;whiteSpace=wrap;html=1;" parent="1" vertex="1">
          <mxGeometry x="-450" y="-185" width="120" height="30" as="geometry" />
        </mxCell>
        <mxCell id="gfKqpitYMT0C_zAYRqk9-627" value="LastName" style="ellipse;whiteSpace=wrap;html=1;" parent="1" vertex="1">
          <mxGeometry x="-320" y="-260" width="120" height="30" as="geometry" />
        </mxCell>
        <mxCell id="gfKqpitYMT0C_zAYRqk9-630" value="" style="endArrow=none;html=1;rounded=0;exitX=1;exitY=0.5;exitDx=0;exitDy=0;entryX=0;entryY=0.5;entryDx=0;entryDy=0;" parent="1" source="gfKqpitYMT0C_zAYRqk9-626" target="gfKqpitYMT0C_zAYRqk9-143" edge="1">
          <mxGeometry width="50" height="50" relative="1" as="geometry">
            <mxPoint x="-70" y="-60" as="sourcePoint" />
            <mxPoint x="-20" y="-110" as="targetPoint" />
          </mxGeometry>
        </mxCell>
        <mxCell id="gfKqpitYMT0C_zAYRqk9-632" value="" style="endArrow=none;html=1;rounded=0;entryX=0.5;entryY=0;entryDx=0;entryDy=0;exitX=0.5;exitY=1;exitDx=0;exitDy=0;" parent="1" source="gfKqpitYMT0C_zAYRqk9-627" target="gfKqpitYMT0C_zAYRqk9-143" edge="1">
          <mxGeometry width="50" height="50" relative="1" as="geometry">
            <mxPoint x="-270" y="-220" as="sourcePoint" />
            <mxPoint x="-20" y="-110" as="targetPoint" />
          </mxGeometry>
        </mxCell>
        <mxCell id="gfKqpitYMT0C_zAYRqk9-635" value="" style="endArrow=none;html=1;rounded=0;entryX=0;entryY=1;entryDx=0;entryDy=0;" parent="1" target="gfKqpitYMT0C_zAYRqk9-638" edge="1">
          <mxGeometry width="50" height="50" relative="1" as="geometry">
            <mxPoint x="-100" y="-120" as="sourcePoint" />
            <mxPoint x="-65" y="-120" as="targetPoint" />
          </mxGeometry>
        </mxCell>
        <mxCell id="gfKqpitYMT0C_zAYRqk9-640" value="" style="ellipse;whiteSpace=wrap;html=1;" parent="1" vertex="1">
          <mxGeometry x="40" y="-200" width="120" height="50" as="geometry" />
        </mxCell>
        <mxCell id="gfKqpitYMT0C_zAYRqk9-641" value="Phone_No" style="ellipse;whiteSpace=wrap;html=1;" parent="1" vertex="1">
          <mxGeometry x="55" y="-195" width="90" height="40" as="geometry" />
        </mxCell>
        <mxCell id="gfKqpitYMT0C_zAYRqk9-642" value="" style="endArrow=none;html=1;rounded=0;entryX=0.037;entryY=0.844;entryDx=0;entryDy=0;entryPerimeter=0;" parent="1" target="gfKqpitYMT0C_zAYRqk9-641" edge="1">
          <mxGeometry width="50" height="50" relative="1" as="geometry">
            <mxPoint x="-100" y="-120" as="sourcePoint" />
            <mxPoint x="90" y="-130" as="targetPoint" />
          </mxGeometry>
        </mxCell>
        <mxCell id="gfKqpitYMT0C_zAYRqk9-665" value="Offers" style="rhombus;whiteSpace=wrap;html=1;fillColor=#FFB366;" parent="1" vertex="1">
          <mxGeometry x="-97.5" y="-300" width="80" height="50" as="geometry" />
        </mxCell>
        <mxCell id="gfKqpitYMT0C_zAYRqk9-666" value="" style="endArrow=none;html=1;rounded=0;entryX=0;entryY=0.25;entryDx=0;entryDy=0;exitX=1;exitY=0.5;exitDx=0;exitDy=0;" parent="1" source="gfKqpitYMT0C_zAYRqk9-665" target="gfKqpitYMT0C_zAYRqk9-19" edge="1">
          <mxGeometry width="50" height="50" relative="1" as="geometry">
            <mxPoint x="60" y="-90" as="sourcePoint" />
            <mxPoint x="110" y="-140" as="targetPoint" />
          </mxGeometry>
        </mxCell>
        <mxCell id="gfKqpitYMT0C_zAYRqk9-667" value="" style="endArrow=none;html=1;rounded=0;entryX=0;entryY=0.5;entryDx=0;entryDy=0;" parent="1" target="gfKqpitYMT0C_zAYRqk9-665" edge="1">
          <mxGeometry width="50" height="50" relative="1" as="geometry">
            <mxPoint x="-120" y="-340" as="sourcePoint" />
            <mxPoint x="110" y="-140" as="targetPoint" />
          </mxGeometry>
        </mxCell>
        <mxCell id="gfKqpitYMT0C_zAYRqk9-670" value="" style="group" parent="1" vertex="1" connectable="0">
          <mxGeometry x="280" y="-790" width="625" height="330" as="geometry" />
        </mxCell>
        <mxCell id="gfKqpitYMT0C_zAYRqk9-330" value="" style="group" parent="gfKqpitYMT0C_zAYRqk9-670" vertex="1" connectable="0">
          <mxGeometry x="55" y="90" width="570" height="200" as="geometry" />
        </mxCell>
        <mxCell id="gfKqpitYMT0C_zAYRqk9-671" value="" style="group" parent="gfKqpitYMT0C_zAYRqk9-330" vertex="1" connectable="0">
          <mxGeometry x="40" y="-20" width="465" height="220" as="geometry" />
        </mxCell>
        <mxCell id="gfKqpitYMT0C_zAYRqk9-231" value="Joining_Date" style="ellipse;whiteSpace=wrap;html=1;" parent="gfKqpitYMT0C_zAYRqk9-671" vertex="1">
          <mxGeometry y="150" width="100" height="30" as="geometry" />
        </mxCell>
        <mxCell id="gfKqpitYMT0C_zAYRqk9-233" value="DOB" style="ellipse;whiteSpace=wrap;html=1;" parent="gfKqpitYMT0C_zAYRqk9-671" vertex="1">
          <mxGeometry x="345" y="90" width="100" height="30" as="geometry" />
        </mxCell>
        <mxCell id="gfKqpitYMT0C_zAYRqk9-235" value="name" style="ellipse;whiteSpace=wrap;html=1;" parent="gfKqpitYMT0C_zAYRqk9-671" vertex="1">
          <mxGeometry x="15" y="105" width="100" height="30" as="geometry" />
        </mxCell>
        <mxCell id="gfKqpitYMT0C_zAYRqk9-236" value="Address" style="ellipse;whiteSpace=wrap;html=1;" parent="gfKqpitYMT0C_zAYRqk9-671" vertex="1">
          <mxGeometry x="135" y="40" width="100" height="30" as="geometry" />
        </mxCell>
        <mxCell id="gfKqpitYMT0C_zAYRqk9-237" value="ContactInfo" style="ellipse;whiteSpace=wrap;html=1;" parent="gfKqpitYMT0C_zAYRqk9-671" vertex="1">
          <mxGeometry x="60" y="70" width="100" height="30" as="geometry" />
        </mxCell>
        <mxCell id="gfKqpitYMT0C_zAYRqk9-238" value="&lt;u&gt;Staff_ID&lt;/u&gt;" style="ellipse;whiteSpace=wrap;html=1;" parent="gfKqpitYMT0C_zAYRqk9-671" vertex="1">
          <mxGeometry y="190" width="100" height="30" as="geometry" />
        </mxCell>
        <mxCell id="gfKqpitYMT0C_zAYRqk9-245" value="Empl_Status" style="ellipse;whiteSpace=wrap;html=1;" parent="gfKqpitYMT0C_zAYRqk9-671" vertex="1">
          <mxGeometry x="355" y="130" width="100" height="30" as="geometry" />
        </mxCell>
        <mxCell id="gfKqpitYMT0C_zAYRqk9-247" value="Salary" style="ellipse;whiteSpace=wrap;html=1;" parent="gfKqpitYMT0C_zAYRqk9-671" vertex="1">
          <mxGeometry x="235" y="30" width="100" height="30" as="geometry" />
        </mxCell>
        <mxCell id="gfKqpitYMT0C_zAYRqk9-248" value="Qualification" style="ellipse;whiteSpace=wrap;html=1;" parent="gfKqpitYMT0C_zAYRqk9-671" vertex="1">
          <mxGeometry x="365" y="170" width="100" height="30" as="geometry" />
        </mxCell>
        <mxCell id="gfKqpitYMT0C_zAYRqk9-331" value="Staff" style="rounded=0;whiteSpace=wrap;html=1;fillColor=#D4E1F5;" parent="gfKqpitYMT0C_zAYRqk9-671" vertex="1">
          <mxGeometry x="175" y="190" width="120" height="30" as="geometry" />
        </mxCell>
        <mxCell id="gfKqpitYMT0C_zAYRqk9-470" value="" style="endArrow=none;html=1;rounded=0;entryX=0;entryY=0.5;entryDx=0;entryDy=0;exitX=1;exitY=0.5;exitDx=0;exitDy=0;" parent="gfKqpitYMT0C_zAYRqk9-671" source="gfKqpitYMT0C_zAYRqk9-238" target="gfKqpitYMT0C_zAYRqk9-331" edge="1">
          <mxGeometry width="50" height="50" relative="1" as="geometry">
            <mxPoint x="-5" y="280" as="sourcePoint" />
            <mxPoint x="45" y="230" as="targetPoint" />
          </mxGeometry>
        </mxCell>
        <mxCell id="gfKqpitYMT0C_zAYRqk9-472" value="" style="endArrow=none;html=1;rounded=0;entryX=0;entryY=0;entryDx=0;entryDy=0;exitX=1;exitY=0.5;exitDx=0;exitDy=0;" parent="gfKqpitYMT0C_zAYRqk9-671" source="gfKqpitYMT0C_zAYRqk9-231" target="gfKqpitYMT0C_zAYRqk9-331" edge="1">
          <mxGeometry width="50" height="50" relative="1" as="geometry">
            <mxPoint x="-5" y="280" as="sourcePoint" />
            <mxPoint x="45" y="230" as="targetPoint" />
          </mxGeometry>
        </mxCell>
        <mxCell id="gfKqpitYMT0C_zAYRqk9-474" value="" style="endArrow=none;html=1;rounded=0;entryX=0.25;entryY=0;entryDx=0;entryDy=0;exitX=1;exitY=1;exitDx=0;exitDy=0;" parent="gfKqpitYMT0C_zAYRqk9-671" source="gfKqpitYMT0C_zAYRqk9-237" target="gfKqpitYMT0C_zAYRqk9-331" edge="1">
          <mxGeometry width="50" height="50" relative="1" as="geometry">
            <mxPoint x="-5" y="280" as="sourcePoint" />
            <mxPoint x="45" y="230" as="targetPoint" />
          </mxGeometry>
        </mxCell>
        <mxCell id="gfKqpitYMT0C_zAYRqk9-478" value="" style="endArrow=none;html=1;rounded=0;exitX=0.5;exitY=1;exitDx=0;exitDy=0;" parent="gfKqpitYMT0C_zAYRqk9-671" source="gfKqpitYMT0C_zAYRqk9-236" target="gfKqpitYMT0C_zAYRqk9-331" edge="1">
          <mxGeometry width="50" height="50" relative="1" as="geometry">
            <mxPoint x="-5" y="280" as="sourcePoint" />
            <mxPoint x="45" y="230" as="targetPoint" />
          </mxGeometry>
        </mxCell>
        <mxCell id="gfKqpitYMT0C_zAYRqk9-479" value="" style="endArrow=none;html=1;rounded=0;exitX=0.5;exitY=1;exitDx=0;exitDy=0;entryX=0.5;entryY=0;entryDx=0;entryDy=0;" parent="gfKqpitYMT0C_zAYRqk9-671" source="gfKqpitYMT0C_zAYRqk9-247" target="gfKqpitYMT0C_zAYRqk9-331" edge="1">
          <mxGeometry width="50" height="50" relative="1" as="geometry">
            <mxPoint x="-5" y="280" as="sourcePoint" />
            <mxPoint x="45" y="230" as="targetPoint" />
          </mxGeometry>
        </mxCell>
        <mxCell id="gfKqpitYMT0C_zAYRqk9-480" value="" style="endArrow=none;html=1;rounded=0;exitX=0.272;exitY=1.022;exitDx=0;exitDy=0;exitPerimeter=0;entryX=0.68;entryY=0.048;entryDx=0;entryDy=0;entryPerimeter=0;" parent="gfKqpitYMT0C_zAYRqk9-671" source="gfKqpitYMT0C_zAYRqk9-233" target="gfKqpitYMT0C_zAYRqk9-331" edge="1">
          <mxGeometry width="50" height="50" relative="1" as="geometry">
            <mxPoint x="-5" y="280" as="sourcePoint" />
            <mxPoint x="45" y="230" as="targetPoint" />
          </mxGeometry>
        </mxCell>
        <mxCell id="gfKqpitYMT0C_zAYRqk9-481" value="" style="endArrow=none;html=1;rounded=0;exitX=0;exitY=1;exitDx=0;exitDy=0;" parent="gfKqpitYMT0C_zAYRqk9-671" source="gfKqpitYMT0C_zAYRqk9-245" target="gfKqpitYMT0C_zAYRqk9-331" edge="1">
          <mxGeometry width="50" height="50" relative="1" as="geometry">
            <mxPoint x="-5" y="280" as="sourcePoint" />
            <mxPoint x="45" y="230" as="targetPoint" />
          </mxGeometry>
        </mxCell>
        <mxCell id="gfKqpitYMT0C_zAYRqk9-625" value="Age" style="ellipse;whiteSpace=wrap;html=1;dashed=1;dashPattern=8 8;" parent="gfKqpitYMT0C_zAYRqk9-671" vertex="1">
          <mxGeometry x="350" y="40" width="75" height="30" as="geometry" />
        </mxCell>
        <mxCell id="gfKqpitYMT0C_zAYRqk9-652" value="Unit" style="ellipse;whiteSpace=wrap;html=1;" parent="gfKqpitYMT0C_zAYRqk9-671" vertex="1">
          <mxGeometry x="82.5" width="55" height="40" as="geometry" />
        </mxCell>
        <mxCell id="gfKqpitYMT0C_zAYRqk9-657" value="" style="endArrow=none;html=1;rounded=0;exitX=0;exitY=0;exitDx=0;exitDy=0;entryX=1;entryY=1;entryDx=0;entryDy=0;" parent="gfKqpitYMT0C_zAYRqk9-671" source="gfKqpitYMT0C_zAYRqk9-236" target="gfKqpitYMT0C_zAYRqk9-652" edge="1">
          <mxGeometry width="50" height="50" relative="1" as="geometry">
            <mxPoint x="15" y="210" as="sourcePoint" />
            <mxPoint x="65" y="160" as="targetPoint" />
          </mxGeometry>
        </mxCell>
        <mxCell id="gfKqpitYMT0C_zAYRqk9-473" value="" style="endArrow=none;html=1;rounded=0;exitX=0.16;exitY=0.048;exitDx=0;exitDy=0;exitPerimeter=0;" parent="gfKqpitYMT0C_zAYRqk9-670" source="gfKqpitYMT0C_zAYRqk9-331" edge="1">
          <mxGeometry width="50" height="50" relative="1" as="geometry">
            <mxPoint x="90" y="350" as="sourcePoint" />
            <mxPoint x="200" y="200" as="targetPoint" />
          </mxGeometry>
        </mxCell>
        <mxCell id="gfKqpitYMT0C_zAYRqk9-482" value="" style="endArrow=none;html=1;rounded=0;entryX=0;entryY=1;entryDx=0;entryDy=0;" parent="gfKqpitYMT0C_zAYRqk9-670" target="gfKqpitYMT0C_zAYRqk9-248" edge="1">
          <mxGeometry width="50" height="50" relative="1" as="geometry">
            <mxPoint x="390" y="260" as="sourcePoint" />
            <mxPoint x="140" y="300" as="targetPoint" />
          </mxGeometry>
        </mxCell>
        <mxCell id="gfKqpitYMT0C_zAYRqk9-624" value="" style="endArrow=none;html=1;rounded=0;exitX=0.5;exitY=0;exitDx=0;exitDy=0;" parent="gfKqpitYMT0C_zAYRqk9-670" source="gfKqpitYMT0C_zAYRqk9-331" edge="1">
          <mxGeometry width="50" height="50" relative="1" as="geometry">
            <mxPoint x="500" y="370" as="sourcePoint" />
            <mxPoint x="460" y="140" as="targetPoint" />
          </mxGeometry>
        </mxCell>
        <mxCell id="gfKqpitYMT0C_zAYRqk9-646" value="MiddleName" style="ellipse;whiteSpace=wrap;html=1;" parent="gfKqpitYMT0C_zAYRqk9-670" vertex="1">
          <mxGeometry y="90" width="95" height="40" as="geometry" />
        </mxCell>
        <mxCell id="gfKqpitYMT0C_zAYRqk9-647" value="FirstName" style="ellipse;whiteSpace=wrap;html=1;" parent="gfKqpitYMT0C_zAYRqk9-670" vertex="1">
          <mxGeometry y="140" width="90" height="40" as="geometry" />
        </mxCell>
        <mxCell id="gfKqpitYMT0C_zAYRqk9-645" value="LastName" style="ellipse;whiteSpace=wrap;html=1;" parent="gfKqpitYMT0C_zAYRqk9-670" vertex="1">
          <mxGeometry x="80" y="60" width="90" height="40" as="geometry" />
        </mxCell>
        <mxCell id="gfKqpitYMT0C_zAYRqk9-648" value="" style="endArrow=none;html=1;rounded=0;exitX=0;exitY=0.5;exitDx=0;exitDy=0;entryX=1;entryY=1;entryDx=0;entryDy=0;" parent="gfKqpitYMT0C_zAYRqk9-670" source="gfKqpitYMT0C_zAYRqk9-235" target="gfKqpitYMT0C_zAYRqk9-647" edge="1">
          <mxGeometry width="50" height="50" relative="1" as="geometry">
            <mxPoint x="250" y="170" as="sourcePoint" />
            <mxPoint x="300" y="120" as="targetPoint" />
          </mxGeometry>
        </mxCell>
        <mxCell id="gfKqpitYMT0C_zAYRqk9-649" value="" style="endArrow=none;html=1;rounded=0;exitX=1;exitY=1;exitDx=0;exitDy=0;entryX=0;entryY=0;entryDx=0;entryDy=0;" parent="gfKqpitYMT0C_zAYRqk9-670" source="gfKqpitYMT0C_zAYRqk9-646" target="gfKqpitYMT0C_zAYRqk9-235" edge="1">
          <mxGeometry width="50" height="50" relative="1" as="geometry">
            <mxPoint x="250" y="170" as="sourcePoint" />
            <mxPoint x="300" y="120" as="targetPoint" />
          </mxGeometry>
        </mxCell>
        <mxCell id="gfKqpitYMT0C_zAYRqk9-650" value="" style="endArrow=none;html=1;rounded=0;exitX=0.442;exitY=0.967;exitDx=0;exitDy=0;exitPerimeter=0;entryX=0.297;entryY=0.109;entryDx=0;entryDy=0;entryPerimeter=0;" parent="gfKqpitYMT0C_zAYRqk9-670" source="gfKqpitYMT0C_zAYRqk9-645" target="gfKqpitYMT0C_zAYRqk9-235" edge="1">
          <mxGeometry width="50" height="50" relative="1" as="geometry">
            <mxPoint x="250" y="170" as="sourcePoint" />
            <mxPoint x="300" y="120" as="targetPoint" />
          </mxGeometry>
        </mxCell>
        <mxCell id="gfKqpitYMT0C_zAYRqk9-232" value="Gender" style="ellipse;whiteSpace=wrap;html=1;" parent="gfKqpitYMT0C_zAYRqk9-670" vertex="1">
          <mxGeometry x="480" y="280" width="100" height="30" as="geometry" />
        </mxCell>
        <mxCell id="gfKqpitYMT0C_zAYRqk9-483" value="" style="endArrow=none;html=1;rounded=0;exitX=0;exitY=0.5;exitDx=0;exitDy=0;entryX=1;entryY=0.5;entryDx=0;entryDy=0;" parent="gfKqpitYMT0C_zAYRqk9-670" source="gfKqpitYMT0C_zAYRqk9-232" target="gfKqpitYMT0C_zAYRqk9-331" edge="1">
          <mxGeometry width="50" height="50" relative="1" as="geometry">
            <mxPoint x="90" y="350" as="sourcePoint" />
            <mxPoint x="140" y="300" as="targetPoint" />
          </mxGeometry>
        </mxCell>
        <mxCell id="gfKqpitYMT0C_zAYRqk9-651" value="Street" style="ellipse;whiteSpace=wrap;html=1;" parent="gfKqpitYMT0C_zAYRqk9-670" vertex="1">
          <mxGeometry x="210" y="30" width="50" height="40" as="geometry" />
        </mxCell>
        <mxCell id="gfKqpitYMT0C_zAYRqk9-654" value="City" style="ellipse;whiteSpace=wrap;html=1;" parent="gfKqpitYMT0C_zAYRqk9-670" vertex="1">
          <mxGeometry x="262.5" width="57.5" height="40" as="geometry" />
        </mxCell>
        <mxCell id="gfKqpitYMT0C_zAYRqk9-655" value="Province" style="ellipse;whiteSpace=wrap;html=1;" parent="gfKqpitYMT0C_zAYRqk9-670" vertex="1">
          <mxGeometry x="330" width="70" height="40" as="geometry" />
        </mxCell>
        <mxCell id="gfKqpitYMT0C_zAYRqk9-656" value="Postal_Code" style="ellipse;whiteSpace=wrap;html=1;" parent="gfKqpitYMT0C_zAYRqk9-670" vertex="1">
          <mxGeometry x="350" y="50" width="90" height="40" as="geometry" />
        </mxCell>
        <mxCell id="gfKqpitYMT0C_zAYRqk9-658" value="" style="endArrow=none;html=1;rounded=0;exitX=0.334;exitY=-0.022;exitDx=0;exitDy=0;exitPerimeter=0;entryX=1;entryY=1;entryDx=0;entryDy=0;" parent="gfKqpitYMT0C_zAYRqk9-670" source="gfKqpitYMT0C_zAYRqk9-236" target="gfKqpitYMT0C_zAYRqk9-651" edge="1">
          <mxGeometry width="50" height="50" relative="1" as="geometry">
            <mxPoint x="200" y="180" as="sourcePoint" />
            <mxPoint x="250" y="130" as="targetPoint" />
          </mxGeometry>
        </mxCell>
        <mxCell id="gfKqpitYMT0C_zAYRqk9-659" value="" style="endArrow=none;html=1;rounded=0;entryX=0.5;entryY=1;entryDx=0;entryDy=0;" parent="gfKqpitYMT0C_zAYRqk9-670" target="gfKqpitYMT0C_zAYRqk9-654" edge="1">
          <mxGeometry width="50" height="50" relative="1" as="geometry">
            <mxPoint x="280" y="110" as="sourcePoint" />
            <mxPoint x="250" y="130" as="targetPoint" />
          </mxGeometry>
        </mxCell>
        <mxCell id="gfKqpitYMT0C_zAYRqk9-660" value="" style="endArrow=none;html=1;rounded=0;exitX=0;exitY=1;exitDx=0;exitDy=0;entryX=0.618;entryY=-0.006;entryDx=0;entryDy=0;entryPerimeter=0;" parent="gfKqpitYMT0C_zAYRqk9-670" source="gfKqpitYMT0C_zAYRqk9-655" target="gfKqpitYMT0C_zAYRqk9-236" edge="1">
          <mxGeometry width="50" height="50" relative="1" as="geometry">
            <mxPoint x="200" y="180" as="sourcePoint" />
            <mxPoint x="250" y="130" as="targetPoint" />
          </mxGeometry>
        </mxCell>
        <mxCell id="gfKqpitYMT0C_zAYRqk9-661" value="" style="endArrow=none;html=1;rounded=0;exitX=0;exitY=0.5;exitDx=0;exitDy=0;entryX=0.741;entryY=0.057;entryDx=0;entryDy=0;entryPerimeter=0;" parent="gfKqpitYMT0C_zAYRqk9-670" source="gfKqpitYMT0C_zAYRqk9-656" target="gfKqpitYMT0C_zAYRqk9-236" edge="1">
          <mxGeometry width="50" height="50" relative="1" as="geometry">
            <mxPoint x="200" y="180" as="sourcePoint" />
            <mxPoint x="250" y="130" as="targetPoint" />
          </mxGeometry>
        </mxCell>
        <mxCell id="gfKqpitYMT0C_zAYRqk9-674" value="d" style="ellipse;whiteSpace=wrap;html=1;" parent="gfKqpitYMT0C_zAYRqk9-670" vertex="1">
          <mxGeometry x="320" y="310" width="20" height="20" as="geometry" />
        </mxCell>
        <mxCell id="gfKqpitYMT0C_zAYRqk9-673" value="" style="endArrow=none;html=1;rounded=0;entryX=0.5;entryY=1;entryDx=0;entryDy=0;" parent="1" target="gfKqpitYMT0C_zAYRqk9-331" edge="1">
          <mxGeometry width="50" height="50" relative="1" as="geometry">
            <mxPoint x="610" y="-480" as="sourcePoint" />
            <mxPoint x="550" y="-450" as="targetPoint" />
          </mxGeometry>
        </mxCell>
        <mxCell id="gfKqpitYMT0C_zAYRqk9-675" value="" style="endArrow=none;html=1;rounded=0;" parent="1" edge="1">
          <mxGeometry width="50" height="50" relative="1" as="geometry">
            <mxPoint x="640" y="-460" as="sourcePoint" />
            <mxPoint x="580" y="-460" as="targetPoint" />
          </mxGeometry>
        </mxCell>
        <mxCell id="gfKqpitYMT0C_zAYRqk9-676" value="" style="endArrow=none;html=1;rounded=0;entryX=0.5;entryY=1;entryDx=0;entryDy=0;" parent="1" target="gfKqpitYMT0C_zAYRqk9-674" edge="1">
          <mxGeometry width="50" height="50" relative="1" as="geometry">
            <mxPoint x="610" y="-440" as="sourcePoint" />
            <mxPoint x="550" y="-450" as="targetPoint" />
          </mxGeometry>
        </mxCell>
        <mxCell id="gfKqpitYMT0C_zAYRqk9-677" value="" style="endArrow=none;html=1;rounded=0;" parent="1" edge="1">
          <mxGeometry width="50" height="50" relative="1" as="geometry">
            <mxPoint x="360" y="-440" as="sourcePoint" />
            <mxPoint x="920" y="-440" as="targetPoint" />
          </mxGeometry>
        </mxCell>
        <mxCell id="gfKqpitYMT0C_zAYRqk9-678" value="" style="endArrow=none;html=1;rounded=0;" parent="1" target="gfKqpitYMT0C_zAYRqk9-679" edge="1">
          <mxGeometry width="50" height="50" relative="1" as="geometry">
            <mxPoint x="360" y="-440" as="sourcePoint" />
            <mxPoint x="410" y="-440" as="targetPoint" />
          </mxGeometry>
        </mxCell>
        <mxCell id="gfKqpitYMT0C_zAYRqk9-679" value="Dean" style="rounded=0;whiteSpace=wrap;html=1;fillColor=#D4E1F5;" parent="1" vertex="1">
          <mxGeometry x="300" y="-420" width="120" height="30" as="geometry" />
        </mxCell>
        <mxCell id="gfKqpitYMT0C_zAYRqk9-680" value="Security" style="rounded=0;whiteSpace=wrap;html=1;fillColor=#D4E1F5;" parent="1" vertex="1">
          <mxGeometry x="437.5" y="-420" width="120" height="30" as="geometry" />
        </mxCell>
        <mxCell id="gfKqpitYMT0C_zAYRqk9-681" value="" style="endArrow=none;html=1;rounded=0;entryX=0.5;entryY=0;entryDx=0;entryDy=0;" parent="1" target="gfKqpitYMT0C_zAYRqk9-680" edge="1">
          <mxGeometry width="50" height="50" relative="1" as="geometry">
            <mxPoint x="497" y="-440" as="sourcePoint" />
            <mxPoint x="490" y="-380" as="targetPoint" />
          </mxGeometry>
        </mxCell>
        <mxCell id="gfKqpitYMT0C_zAYRqk9-682" value="Teaching Assistant" style="rounded=0;whiteSpace=wrap;html=1;fillColor=#D4E1F5;" parent="1" vertex="1">
          <mxGeometry x="720" y="-420" width="120" height="30" as="geometry" />
        </mxCell>
        <mxCell id="gfKqpitYMT0C_zAYRqk9-683" value="Receptionist" style="rounded=0;whiteSpace=wrap;html=1;fillColor=#D4E1F5;" parent="1" vertex="1">
          <mxGeometry x="580" y="-420" width="120" height="30" as="geometry" />
        </mxCell>
        <mxCell id="gfKqpitYMT0C_zAYRqk9-684" value="Professor" style="rounded=0;whiteSpace=wrap;html=1;fillColor=#D4E1F5;" parent="1" vertex="1">
          <mxGeometry x="860" y="-420" width="120" height="30" as="geometry" />
        </mxCell>
        <mxCell id="gfKqpitYMT0C_zAYRqk9-686" value="" style="endArrow=none;html=1;rounded=0;" parent="1" edge="1">
          <mxGeometry width="50" height="50" relative="1" as="geometry">
            <mxPoint x="920" y="-420" as="sourcePoint" />
            <mxPoint x="920" y="-440" as="targetPoint" />
          </mxGeometry>
        </mxCell>
        <mxCell id="gfKqpitYMT0C_zAYRqk9-687" value="" style="endArrow=none;html=1;rounded=0;entryX=0.5;entryY=0;entryDx=0;entryDy=0;" parent="1" target="gfKqpitYMT0C_zAYRqk9-683" edge="1">
          <mxGeometry width="50" height="50" relative="1" as="geometry">
            <mxPoint x="640" y="-440" as="sourcePoint" />
            <mxPoint x="740" y="-430" as="targetPoint" />
          </mxGeometry>
        </mxCell>
        <mxCell id="gfKqpitYMT0C_zAYRqk9-688" value="" style="endArrow=none;html=1;rounded=0;exitX=0.5;exitY=0;exitDx=0;exitDy=0;" parent="1" source="gfKqpitYMT0C_zAYRqk9-682" edge="1">
          <mxGeometry width="50" height="50" relative="1" as="geometry">
            <mxPoint x="690" y="-380" as="sourcePoint" />
            <mxPoint x="780" y="-440" as="targetPoint" />
          </mxGeometry>
        </mxCell>
        <mxCell id="gfKqpitYMT0C_zAYRqk9-689" value="" style="endArrow=none;html=1;rounded=0;" parent="1" edge="1">
          <mxGeometry width="50" height="50" relative="1" as="geometry">
            <mxPoint x="360" y="-360" as="sourcePoint" />
            <mxPoint x="920" y="-360" as="targetPoint" />
          </mxGeometry>
        </mxCell>
        <mxCell id="gfKqpitYMT0C_zAYRqk9-690" value="" style="endArrow=none;html=1;rounded=0;entryX=0.5;entryY=1;entryDx=0;entryDy=0;" parent="1" target="gfKqpitYMT0C_zAYRqk9-679" edge="1">
          <mxGeometry width="50" height="50" relative="1" as="geometry">
            <mxPoint x="360" y="-360" as="sourcePoint" />
            <mxPoint x="650" y="-370" as="targetPoint" />
          </mxGeometry>
        </mxCell>
        <mxCell id="gfKqpitYMT0C_zAYRqk9-691" value="" style="endArrow=none;html=1;rounded=0;entryX=0.5;entryY=1;entryDx=0;entryDy=0;" parent="1" target="gfKqpitYMT0C_zAYRqk9-680" edge="1">
          <mxGeometry width="50" height="50" relative="1" as="geometry">
            <mxPoint x="498" y="-360" as="sourcePoint" />
            <mxPoint x="650" y="-370" as="targetPoint" />
          </mxGeometry>
        </mxCell>
        <mxCell id="gfKqpitYMT0C_zAYRqk9-692" value="" style="endArrow=none;html=1;rounded=0;entryX=0.5;entryY=1;entryDx=0;entryDy=0;" parent="1" target="gfKqpitYMT0C_zAYRqk9-683" edge="1">
          <mxGeometry width="50" height="50" relative="1" as="geometry">
            <mxPoint x="640" y="-360" as="sourcePoint" />
            <mxPoint x="650" y="-370" as="targetPoint" />
          </mxGeometry>
        </mxCell>
        <mxCell id="gfKqpitYMT0C_zAYRqk9-693" value="" style="endArrow=none;html=1;rounded=0;entryX=0.5;entryY=1;entryDx=0;entryDy=0;" parent="1" target="gfKqpitYMT0C_zAYRqk9-682" edge="1">
          <mxGeometry width="50" height="50" relative="1" as="geometry">
            <mxPoint x="780" y="-360" as="sourcePoint" />
            <mxPoint x="650" y="-370" as="targetPoint" />
          </mxGeometry>
        </mxCell>
        <mxCell id="gfKqpitYMT0C_zAYRqk9-694" value="" style="endArrow=none;html=1;rounded=0;" parent="1" edge="1">
          <mxGeometry width="50" height="50" relative="1" as="geometry">
            <mxPoint x="920" y="-360" as="sourcePoint" />
            <mxPoint x="920" y="-390" as="targetPoint" />
          </mxGeometry>
        </mxCell>
        <mxCell id="gfKqpitYMT0C_zAYRqk9-695" value="" style="endArrow=none;html=1;rounded=0;exitX=0.75;exitY=1;exitDx=0;exitDy=0;" parent="1" source="gfKqpitYMT0C_zAYRqk9-682" edge="1">
          <mxGeometry width="50" height="50" relative="1" as="geometry">
            <mxPoint x="750" y="-320" as="sourcePoint" />
            <mxPoint x="900" y="-390" as="targetPoint" />
            <Array as="points">
              <mxPoint x="810" y="-370" />
              <mxPoint x="900" y="-370" />
            </Array>
          </mxGeometry>
        </mxCell>
      </root>
    </mxGraphModel>
  </diagram>
</mxfile>
